<svg width="20" height="13" viewBox="0 0 20 13" fill="none" xmlns="http://www.w3.org/2000/svg">
<path d="M19.0909 7.27799H3.1091L7.0091 11.178C7.09431 11.2625 7.16194 11.363 7.20809 11.4738C7.25425 11.5846 7.27801 11.7034 7.27801 11.8234C7.27801 11.9435 7.25425 12.0623 7.20809 12.1731C7.16194 12.2838 7.09431 12.3844 7.0091 12.4689C6.92459 12.5541 6.82404 12.6217 6.71326 12.6679C6.60248 12.714 6.48366 12.7378 6.36365 12.7378C6.24364 12.7378 6.12481 12.714 6.01403 12.6679C5.90325 12.6217 5.80271 12.5541 5.71819 12.4689L0.263652 7.01436C0.179396 6.92941 0.112736 6.82867 0.0674953 6.71791C0.0222548 6.60715 -0.000676581 6.48855 1.51396e-05 6.3689C0.000514457 6.24862 0.0248782 6.12964 0.0716932 6.01884C0.118508 5.90805 0.186843 5.80764 0.272742 5.72345C0.363783 5.63518 0.472284 5.56693 0.591272 5.5231C0.71026 5.47926 0.837103 5.4608 0.96365 5.4689H19.0909C19.332 5.4689 19.5632 5.56468 19.7337 5.73517C19.9042 5.90566 20 6.13689 20 6.37799C20 6.6191 19.9042 6.85033 19.7337 7.02082C19.5632 7.1913 19.332 7.28708 19.0909 7.28708V7.27799ZM7.0091 0.268907C7.09431 0.353419 7.16194 0.453965 7.20809 0.564746C7.25425 0.675527 7.27801 0.794351 7.27801 0.914361C7.27801 1.03437 7.25425 1.1532 7.20809 1.26398C7.16194 1.37476 7.09431 1.4753 7.0091 1.55982L4.28183 4.28709C4.19732 4.37229 4.09677 4.43992 3.98599 4.48608C3.87521 4.53223 3.75639 4.55599 3.63638 4.55599C3.51637 4.55599 3.39754 4.53223 3.28676 4.48608C3.17598 4.43992 3.07543 4.37229 2.99092 4.28709C2.90572 4.20257 2.83808 4.10203 2.79193 3.99125C2.74578 3.88047 2.72201 3.76164 2.72201 3.64163C2.72201 3.52162 2.74578 3.4028 2.79193 3.29202C2.83808 3.18124 2.90572 3.08069 2.99092 2.99618L5.71819 0.268907C5.80271 0.1837 5.90325 0.116069 6.01403 0.0699155C6.12481 0.0237622 6.24364 0 6.36365 0C6.48366 0 6.60248 0.0237622 6.71326 0.0699155C6.82404 0.116069 6.92459 0.1837 7.0091 0.268907Z" fill="#002B5B"/>
</svg>
