<svg width="245" height="314" viewBox="0 0 245 314" fill="none" xmlns="http://www.w3.org/2000/svg">
<path d="M0.620117 8.89014H218.63V313.07H0.620117V8.89014Z" fill="#002B5B"/>
<path d="M14.4702 31.79H204.79V299.36H14.4702V31.79Z" fill="white"/>
<path d="M152.65 0H66.6001C64.264 0 62.3701 1.89383 62.3701 4.23V20.12C62.3701 22.4562 64.264 24.35 66.6001 24.35H152.65C154.986 24.35 156.88 22.4562 156.88 20.12V4.23C156.88 1.89383 154.986 0 152.65 0Z" fill="#FF6B00"/>
<path d="M142.2 42.7498H76C73.8823 42.7367 71.8551 41.8896 70.3576 40.3921C68.8602 38.8947 68.0131 36.8675 68 34.7498V13.2598C68 12.7293 68.2107 12.2206 68.5858 11.8456C68.9609 11.4705 69.4696 11.2598 70 11.2598H149.33C149.86 11.2598 150.369 11.4705 150.744 11.8456C151.119 12.2206 151.33 12.7293 151.33 13.2598V33.6998C151.317 36.1098 150.348 38.4161 148.636 40.1127C146.925 41.8094 144.61 42.7578 142.2 42.7498ZM72 15.2598V34.6998C72 35.7606 72.4214 36.7781 73.1716 37.5282C73.9217 38.2783 74.9391 38.6998 76 38.6998H142.2C143.55 38.6998 144.845 38.1635 145.799 37.2089C146.754 36.2544 147.29 34.9597 147.29 33.6098V15.2098L72 15.2598Z" fill="#FF6B00"/>
<path d="M156.88 63.21H62.3699C62.1047 63.21 61.8503 63.1046 61.6628 62.9171C61.4753 62.7295 61.3699 62.4752 61.3699 62.21C61.3699 61.9447 61.4753 61.6904 61.6628 61.5029C61.8503 61.3153 62.1047 61.21 62.3699 61.21H156.88C157.145 61.21 157.399 61.3153 157.587 61.5029C157.775 61.6904 157.88 61.9447 157.88 62.21C157.88 62.4752 157.775 62.7295 157.587 62.9171C157.399 63.1046 157.145 63.21 156.88 63.21ZM188.33 94.7H45.3999C45.1347 94.7 44.8803 94.5946 44.6928 94.4071C44.5053 94.2195 44.3999 93.9652 44.3999 93.7C44.3999 93.4347 44.5053 93.1804 44.6928 92.9929C44.8803 92.8053 45.1347 92.7 45.3999 92.7H188.33C188.595 92.7 188.849 92.8053 189.037 92.9929C189.225 93.1804 189.33 93.4347 189.33 93.7C189.33 93.9652 189.225 94.2195 189.037 94.4071C188.849 94.5946 188.595 94.7 188.33 94.7Z" fill="#002B5B"/>
<path d="M33.2201 98.8498C36.0588 98.8498 38.3601 96.5486 38.3601 93.7098C38.3601 90.8711 36.0588 88.5698 33.2201 88.5698C30.3813 88.5698 28.0801 90.8711 28.0801 93.7098C28.0801 96.5486 30.3813 98.8498 33.2201 98.8498Z" fill="#002B5B"/>
<path d="M188.33 114.32H45.3999C45.1347 114.32 44.8803 114.214 44.6928 114.027C44.5053 113.839 44.3999 113.585 44.3999 113.32C44.3999 113.055 44.5053 112.8 44.6928 112.613C44.8803 112.425 45.1347 112.32 45.3999 112.32H188.33C188.595 112.32 188.849 112.425 189.037 112.613C189.225 112.8 189.33 113.055 189.33 113.32C189.33 113.585 189.225 113.839 189.037 114.027C188.849 114.214 188.595 114.32 188.33 114.32Z" fill="#002B5B"/>
<path d="M33.2201 118.46C36.0588 118.46 38.3601 116.159 38.3601 113.32C38.3601 110.481 36.0588 108.18 33.2201 108.18C30.3813 108.18 28.0801 110.481 28.0801 113.32C28.0801 116.159 30.3813 118.46 33.2201 118.46Z" fill="#002B5B"/>
<path d="M188.33 133.93H45.3999C45.1347 133.93 44.8803 133.825 44.6928 133.637C44.5053 133.45 44.3999 133.195 44.3999 132.93C44.3999 132.665 44.5053 132.411 44.6928 132.223C44.8803 132.036 45.1347 131.93 45.3999 131.93H188.33C188.595 131.93 188.849 132.036 189.037 132.223C189.225 132.411 189.33 132.665 189.33 132.93C189.33 133.195 189.225 133.45 189.037 133.637C188.849 133.825 188.595 133.93 188.33 133.93Z" fill="#002B5B"/>
<path d="M33.2201 138.07C36.0588 138.07 38.3601 135.769 38.3601 132.93C38.3601 130.091 36.0588 127.79 33.2201 127.79C30.3813 127.79 28.0801 130.091 28.0801 132.93C28.0801 135.769 30.3813 138.07 33.2201 138.07Z" fill="#002B5B"/>
<path d="M188.33 153.54H45.3999C45.1347 153.54 44.8803 153.435 44.6928 153.247C44.5053 153.06 44.3999 152.805 44.3999 152.54C44.3999 152.275 44.5053 152.02 44.6928 151.833C44.8803 151.645 45.1347 151.54 45.3999 151.54H188.33C188.595 151.54 188.849 151.645 189.037 151.833C189.225 152.02 189.33 152.275 189.33 152.54C189.33 152.805 189.225 153.06 189.037 153.247C188.849 153.435 188.595 153.54 188.33 153.54Z" fill="#002B5B"/>
<path d="M33.2201 157.68C36.0588 157.68 38.3601 155.379 38.3601 152.54C38.3601 149.701 36.0588 147.4 33.2201 147.4C30.3813 147.4 28.0801 149.701 28.0801 152.54C28.0801 155.379 30.3813 157.68 33.2201 157.68Z" fill="#002B5B"/>
<path d="M188.33 173.15H45.3999C45.1347 173.15 44.8803 173.045 44.6928 172.857C44.5053 172.669 44.3999 172.415 44.3999 172.15C44.3999 171.885 44.5053 171.63 44.6928 171.443C44.8803 171.255 45.1347 171.15 45.3999 171.15H188.33C188.595 171.15 188.849 171.255 189.037 171.443C189.225 171.63 189.33 171.885 189.33 172.15C189.33 172.415 189.225 172.669 189.037 172.857C188.849 173.045 188.595 173.15 188.33 173.15Z" fill="#002B5B"/>
<path d="M33.2201 177.29C36.0588 177.29 38.3601 174.989 38.3601 172.15C38.3601 169.311 36.0588 167.01 33.2201 167.01C30.3813 167.01 28.0801 169.311 28.0801 172.15C28.0801 174.989 30.3813 177.29 33.2201 177.29Z" fill="#002B5B"/>
<path d="M188.33 192.76H45.3999C45.1347 192.76 44.8803 192.654 44.6928 192.467C44.5053 192.279 44.3999 192.025 44.3999 191.76C44.3999 191.495 44.5053 191.24 44.6928 191.053C44.8803 190.865 45.1347 190.76 45.3999 190.76H188.33C188.595 190.76 188.849 190.865 189.037 191.053C189.225 191.24 189.33 191.495 189.33 191.76C189.33 192.025 189.225 192.279 189.037 192.467C188.849 192.654 188.595 192.76 188.33 192.76Z" fill="#002B5B"/>
<path d="M33.2201 196.9C36.0588 196.9 38.3601 194.599 38.3601 191.76C38.3601 188.921 36.0588 186.62 33.2201 186.62C30.3813 186.62 28.0801 188.921 28.0801 191.76C28.0801 194.599 30.3813 196.9 33.2201 196.9Z" fill="#002B5B"/>
<path d="M188.33 212.37H45.3999C45.1347 212.37 44.8803 212.265 44.6928 212.077C44.5053 211.89 44.3999 211.635 44.3999 211.37C44.3999 211.105 44.5053 210.851 44.6928 210.663C44.8803 210.475 45.1347 210.37 45.3999 210.37H188.33C188.595 210.37 188.849 210.475 189.037 210.663C189.225 210.851 189.33 211.105 189.33 211.37C189.33 211.635 189.225 211.89 189.037 212.077C188.849 212.265 188.595 212.37 188.33 212.37Z" fill="#002B5B"/>
<path d="M33.2201 216.51C36.0588 216.51 38.3601 214.209 38.3601 211.37C38.3601 208.531 36.0588 206.23 33.2201 206.23C30.3813 206.23 28.0801 208.531 28.0801 211.37C28.0801 214.209 30.3813 216.51 33.2201 216.51Z" fill="#002B5B"/>
<path d="M188.33 231.98H45.3999C45.1347 231.98 44.8803 231.875 44.6928 231.687C44.5053 231.5 44.3999 231.245 44.3999 230.98C44.3999 230.715 44.5053 230.46 44.6928 230.273C44.8803 230.085 45.1347 229.98 45.3999 229.98H188.33C188.595 229.98 188.849 230.085 189.037 230.273C189.225 230.46 189.33 230.715 189.33 230.98C189.33 231.245 189.225 231.5 189.037 231.687C188.849 231.875 188.595 231.98 188.33 231.98Z" fill="#002B5B"/>
<path d="M33.2201 236.12C36.0588 236.12 38.3601 233.819 38.3601 230.98C38.3601 228.141 36.0588 225.84 33.2201 225.84C30.3813 225.84 28.0801 228.141 28.0801 230.98C28.0801 233.819 30.3813 236.12 33.2201 236.12Z" fill="#002B5B"/>
<path d="M188.33 251.59H45.3999C45.1347 251.59 44.8803 251.484 44.6928 251.297C44.5053 251.109 44.3999 250.855 44.3999 250.59C44.3999 250.325 44.5053 250.07 44.6928 249.883C44.8803 249.695 45.1347 249.59 45.3999 249.59H188.33C188.595 249.59 188.849 249.695 189.037 249.883C189.225 250.07 189.33 250.325 189.33 250.59C189.33 250.855 189.225 251.109 189.037 251.297C188.849 251.484 188.595 251.59 188.33 251.59Z" fill="#002B5B"/>
<path d="M33.2201 255.73C36.0588 255.73 38.3601 253.429 38.3601 250.59C38.3601 247.751 36.0588 245.45 33.2201 245.45C30.3813 245.45 28.0801 247.751 28.0801 250.59C28.0801 253.429 30.3813 255.73 33.2201 255.73Z" fill="#002B5B"/>
<path d="M204.79 295.95C226.997 295.95 245 277.947 245 255.74C245 233.532 226.997 215.53 204.79 215.53C182.583 215.53 164.58 233.532 164.58 255.74C164.58 277.947 182.583 295.95 204.79 295.95Z" fill="#002B5B"/>
<path d="M181.68 257.31L197.16 277.47L227.89 234L195.58 264.53L181.68 257.31Z" fill="#FF6B00"/>
</svg>
