<svg width="467" height="500" viewBox="0 0 467 500" fill="none" xmlns="http://www.w3.org/2000/svg">
<path fill-rule="evenodd" clip-rule="evenodd" d="M175.542 329.44H128.546C127.551 329.439 126.565 329.634 125.646 330.015C124.726 330.395 123.891 330.953 123.187 331.657C122.483 332.361 121.925 333.196 121.545 334.116C121.164 335.036 120.969 336.021 120.97 337.016C120.97 339.026 121.768 340.953 123.189 342.374C124.61 343.795 126.537 344.593 128.546 344.594H175.542C177.551 344.593 179.478 343.795 180.899 342.374C182.32 340.953 183.119 339.026 183.12 337.016C183.12 336.021 182.925 335.035 182.544 334.116C182.163 333.196 181.605 332.361 180.901 331.657C180.198 330.953 179.362 330.395 178.442 330.015C177.523 329.634 176.537 329.439 175.542 329.44ZM206.647 247.463H128.546C126.538 247.464 124.612 248.261 123.191 249.681C121.77 251.101 120.971 253.027 120.97 255.035C120.969 256.03 121.164 257.016 121.545 257.935C121.925 258.855 122.483 259.691 123.187 260.394C123.891 261.098 124.726 261.656 125.646 262.037C126.565 262.417 127.551 262.612 128.546 262.612H206.647C208.632 262.577 210.525 261.763 211.917 260.347C213.309 258.93 214.089 257.023 214.089 255.037C214.089 253.051 213.309 251.145 211.917 249.728C210.525 248.312 208.632 247.498 206.647 247.463ZM247.961 173.069C247.959 171.06 247.16 169.133 245.74 167.713C244.319 166.292 242.392 165.493 240.383 165.492H128.546C126.537 165.492 124.61 166.291 123.189 167.712C121.768 169.133 120.97 171.06 120.97 173.069C120.969 174.064 121.164 175.05 121.545 175.969C121.925 176.888 122.484 177.723 123.187 178.427C123.891 179.13 124.727 179.688 125.646 180.068C126.566 180.448 127.551 180.643 128.546 180.641H240.383C241.378 180.642 242.363 180.447 243.283 180.067C244.202 179.687 245.038 179.129 245.741 178.426C246.445 177.723 247.003 176.888 247.384 175.968C247.765 175.049 247.961 174.064 247.961 173.069ZM451.575 384.39L392.986 418.222C391.833 418.883 390.526 419.231 389.197 419.231C387.868 419.231 386.561 418.883 385.408 418.222L326.826 384.388V447.663L389.201 483.672L451.575 447.663V384.39ZM319.248 362.526L381.623 326.511V263.237L323.034 297.059C321.884 297.726 320.578 298.078 319.248 298.078C317.919 298.078 316.613 297.726 315.463 297.059L256.874 263.237V326.511L319.248 362.526ZM311.678 384.39L253.088 418.224C251.935 418.885 250.629 419.232 249.3 419.232C247.97 419.232 246.664 418.885 245.511 418.224L186.928 384.39V447.664L249.303 483.673L311.678 447.664V384.39ZM194.5 371.27L249.303 339.636L304.1 371.27L249.303 402.903L194.5 371.27ZM241.726 326.511L175.567 364.714C174.414 365.377 173.457 366.332 172.792 367.483C172.126 368.634 171.776 369.941 171.775 371.27V444.461H30.2851C21.9416 444.461 15.1484 437.674 15.1484 429.33V80.7566C15.1484 72.4131 21.9416 65.6141 30.2851 65.6141H97.0402V71.131C97.0402 81.1566 105.188 89.3236 115.233 89.3236H211.605C221.636 89.3236 229.798 81.1566 229.798 71.131V65.6141H296.541C304.883 65.6141 311.678 72.4131 311.678 80.7566V205.36L245.512 243.557C244.36 244.222 243.404 245.179 242.74 246.331C242.075 247.483 241.726 248.789 241.726 250.119V326.511ZM112.189 71.131C112.19 71.9373 112.512 72.7101 113.082 73.2798C113.653 73.8494 114.427 74.1694 115.233 74.1694H211.605C212.411 74.169 213.183 73.8488 213.753 73.2791C214.323 72.7093 214.643 71.9367 214.643 71.131V44.9547C214.642 44.1493 214.322 43.3772 213.752 42.8076C213.182 42.2381 212.41 41.9176 211.605 41.9163H182.614C177.399 41.9163 173.789 36.77 175.431 31.9213C178.221 23.6848 172.096 15.1566 163.412 15.1566C154.706 15.1566 148.617 23.699 151.392 31.9213C153.046 36.8229 149.395 41.9163 144.21 41.9163H115.232C114.426 41.9173 113.653 42.2375 113.082 42.8069C112.512 43.3764 112.19 44.1486 112.187 44.9547V71.131H112.189ZM264.451 250.118L319.248 218.484L374.045 250.118L319.248 281.753L264.451 250.118ZM389.201 339.636L443.997 371.27L389.201 402.903L334.404 371.27L389.201 339.636ZM466.724 371.27V452.037C466.723 453.367 466.374 454.673 465.709 455.825C465.045 456.977 464.089 457.934 462.938 458.6L392.986 498.984C391.834 499.649 390.527 500 389.197 500C387.867 500 386.56 499.649 385.408 498.984L319.248 460.788L253.088 498.984C251.937 499.649 250.63 500 249.3 500C247.969 500 246.662 499.649 245.511 498.984L177.322 459.614H30.2851C13.5875 459.614 0 446.028 0 429.329V80.7555C0 64.0579 13.5875 50.4645 30.2851 50.4645H97.0402V44.9535C97.0402 34.9279 105.188 26.7667 115.233 26.7667H135.601C136.2 11.9877 148.219 0 163.412 0C178.605 0 190.634 11.9842 191.217 26.7667H211.604C221.635 26.7667 229.796 34.9267 229.796 44.9535V50.4645H296.54C313.237 50.4645 326.825 64.0579 326.825 80.7555V205.36L392.985 243.557C394.138 244.221 395.095 245.177 395.761 246.329C396.426 247.482 396.777 248.789 396.776 250.119V326.512L462.936 364.715C464.087 365.379 465.044 366.334 465.709 367.485C466.374 368.636 466.724 369.941 466.724 371.27ZM108.664 139.291C107.137 137.985 105.154 137.339 103.151 137.492C101.148 137.646 99.2871 138.588 97.9765 140.11L69.563 173.233L56.1284 159.452C54.7256 158.016 52.8095 157.195 50.8016 157.171C48.7938 157.147 46.8586 157.922 45.4217 159.324C44.7088 160.018 44.1397 160.846 43.7468 161.76C43.3539 162.674 43.145 163.657 43.132 164.651C43.119 165.646 43.3022 166.634 43.671 167.558C44.0399 168.482 44.5872 169.324 45.2817 170.037L64.5072 189.736C67.5997 192.913 72.7813 192.746 75.6762 189.378L109.485 149.978C110.79 148.451 111.436 146.468 111.283 144.465C111.129 142.462 110.187 140.601 108.664 139.291ZM108.664 303.233C107.138 301.926 105.156 301.277 103.152 301.43C101.148 301.582 99.287 302.524 97.9765 304.047L69.563 337.169L56.1284 323.394C55.4345 322.681 54.607 322.113 53.6932 321.72C52.7794 321.328 51.7972 321.12 50.8029 321.107C49.8085 321.095 48.8214 321.279 47.8981 321.648C46.9748 322.017 46.1333 322.565 45.4217 323.259C44.7088 323.953 44.1397 324.781 43.7468 325.695C43.3539 326.609 43.145 327.592 43.132 328.587C43.119 329.582 43.3022 330.569 43.671 331.493C44.0399 332.417 44.5872 333.26 45.2817 333.972L64.5072 353.672C67.6138 356.863 72.7848 356.677 75.6762 353.319L109.485 313.914C110.79 312.387 111.436 310.406 111.282 308.404C111.128 306.402 110.187 304.542 108.664 303.233ZM109.485 231.944C112.202 228.779 111.837 223.99 108.666 221.262C105.481 218.546 100.706 218.905 97.9777 222.082L69.5641 255.199L56.1284 241.423C54.7256 239.987 52.8102 239.166 50.8028 239.141C48.7954 239.116 46.8601 239.888 45.4217 241.289C42.4257 244.206 42.3586 249.005 45.2817 251.996L64.5072 271.701C67.6068 274.886 72.7825 274.716 75.6762 271.349L109.485 231.944Z" fill="#C1C7CD"/>
</svg>
