<svg width="353" height="301" viewBox="0 0 353 301" fill="none" xmlns="http://www.w3.org/2000/svg">
<path fill-rule="evenodd" clip-rule="evenodd" d="M343.701 39.374C347.701 43.3712 349.95 48.7931 349.955 54.448C349.959 60.1029 347.718 65.5282 343.724 69.5315L148.223 265.327C143.984 269.571 138.898 272.873 133.297 275.018C127.696 277.163 121.705 278.104 115.716 277.777C109.727 277.451 103.873 275.866 98.5383 273.125C93.2031 270.384 88.5059 266.549 84.753 261.87L16.6442 176.88C14.8346 174.7 13.4772 172.182 12.6511 169.473C11.8251 166.763 11.5469 163.916 11.8329 161.098C12.1189 158.28 12.9633 155.547 14.3168 153.058C15.6704 150.57 17.506 148.376 19.7165 146.604C21.927 144.833 24.4681 143.519 27.1917 142.741C29.9153 141.962 32.7667 141.733 35.5795 142.068C38.3924 142.403 41.1104 143.295 43.5749 144.691C46.0395 146.088 48.2012 147.961 49.9339 150.202L118.043 235.192L313.525 39.3733C317.522 35.3733 322.944 33.124 328.599 33.1197C334.254 33.1154 339.679 35.3565 343.682 39.3505L343.701 39.374Z" fill="#248BFF"/>
</svg>
