<svg width="461" height="500" viewBox="0 0 461 500" fill="none" xmlns="http://www.w3.org/2000/svg">
<path d="M435.091 304.604H272.359C269.224 304.604 266.679 302.059 266.679 298.923V247.33C266.679 244.194 269.224 241.649 272.359 241.649H435.091C438.227 241.649 440.772 244.194 440.772 247.33V298.923C440.772 302.059 438.227 304.604 435.091 304.604ZM278.04 293.242H429.41V253.011H278.04V293.242Z" fill="#C1C7CD"/>
<path d="M438.329 500H269.122C256.897 500 246.944 490.047 246.944 477.822V234.48C246.944 222.255 256.897 212.314 269.122 212.314H438.329C450.555 212.314 460.507 222.255 460.507 234.48V477.834C460.507 490.047 450.555 500 438.329 500ZM269.122 223.664C263.157 223.664 258.305 228.515 258.305 234.469V477.822C258.305 483.787 263.157 488.638 269.122 488.638H438.329C444.294 488.638 449.146 483.787 449.146 477.822V234.48C449.146 228.515 444.294 223.675 438.329 223.675H269.122V223.664Z" fill="#C1C7CD"/>
<path d="M435.091 392.395H411.005C407.869 392.395 405.324 389.85 405.324 386.714V362.627C405.324 359.491 407.869 356.946 411.005 356.946H435.091C438.227 356.946 440.772 359.491 440.772 362.627V386.714C440.772 389.85 438.227 392.395 435.091 392.395ZM416.686 381.033H429.411V368.308H416.686V381.033ZM435.091 480.185H411.005C407.869 480.185 405.324 477.64 405.324 474.505V406.528C405.324 403.393 407.869 400.848 411.005 400.848H435.091C438.227 400.848 440.772 403.393 440.772 406.528V474.505C440.772 477.64 438.227 480.185 435.091 480.185ZM416.686 468.824H429.411V412.209H416.686V468.824ZM388.429 392.395H364.343C361.207 392.395 358.662 389.85 358.662 386.714V362.627C358.662 359.491 361.207 356.946 364.343 356.946H388.429C391.565 356.946 394.11 359.491 394.11 362.627V386.714C394.11 389.85 391.565 392.395 388.429 392.395ZM370.024 381.033H382.749V368.308H370.024V381.033ZM388.429 436.296H364.343C361.207 436.296 358.662 433.751 358.662 430.615V406.528C358.662 403.393 361.207 400.848 364.343 400.848H388.429C391.565 400.848 394.11 403.393 394.11 406.528V430.615C394.11 433.751 391.565 436.296 388.429 436.296ZM370.024 424.934H382.749V412.209H370.024V424.934ZM388.429 480.185H317.681C314.545 480.185 312 477.64 312 474.505V450.418C312 447.282 314.545 444.737 317.681 444.737H388.429C391.565 444.737 394.11 447.282 394.11 450.418V474.505C394.11 477.64 391.565 480.185 388.429 480.185ZM323.362 468.824H382.749V456.099H323.362V468.824ZM341.767 392.395H317.681C314.545 392.395 312 389.85 312 386.714V362.627C312 359.491 314.545 356.946 317.681 356.946H341.767C344.903 356.946 347.448 359.491 347.448 362.627V386.714C347.448 389.85 344.903 392.395 341.767 392.395ZM323.362 381.033H336.087V368.308H323.362V381.033ZM341.767 436.296H317.681C314.545 436.296 312 433.751 312 430.615V406.528C312 403.393 314.545 400.848 317.681 400.848H341.767C344.903 400.848 347.448 403.393 347.448 406.528V430.615C347.448 433.751 344.903 436.296 341.767 436.296ZM323.362 424.934H336.087V412.209H323.362V424.934ZM313.17 348.493H271.019C267.883 348.493 265.338 345.948 265.338 342.813V318.726C265.338 315.59 267.883 313.045 271.019 313.045H313.17C316.306 313.045 318.851 315.59 318.851 318.726V342.813C318.851 345.96 316.306 348.493 313.17 348.493ZM276.7 337.132H307.49V324.407H276.7V337.132ZM295.105 392.395H271.019C267.883 392.395 265.338 389.85 265.338 386.714V362.627C265.338 359.491 267.883 356.946 271.019 356.946H295.105C298.241 356.946 300.786 359.491 300.786 362.627V386.714C300.786 389.85 298.241 392.395 295.105 392.395ZM276.7 381.033H289.425V368.308H276.7V381.033ZM295.105 436.296H271.019C267.883 436.296 265.338 433.751 265.338 430.615V406.528C265.338 403.393 267.883 400.848 271.019 400.848H295.105C298.241 400.848 300.786 403.393 300.786 406.528V430.615C300.786 433.751 298.241 436.296 295.105 436.296ZM276.7 424.934H289.425V412.209H276.7V424.934ZM295.105 480.185H271.019C267.883 480.185 265.338 477.64 265.338 474.505V450.418C265.338 447.282 267.883 444.737 271.019 444.737H295.105C298.241 444.737 300.786 447.282 300.786 450.418V474.505C300.786 477.64 298.241 480.185 295.105 480.185ZM276.7 468.824H289.425V456.099H276.7V468.824ZM435.091 348.493H392.94C389.804 348.493 387.259 345.948 387.259 342.813V318.726C387.259 315.59 389.804 313.045 392.94 313.045H435.091C438.227 313.045 440.772 315.59 440.772 318.726V342.813C440.772 345.96 438.227 348.493 435.091 348.493ZM398.621 337.132H429.411V324.407H398.621V337.132ZM374.796 348.493H332.644C329.508 348.493 326.963 345.948 326.963 342.813V318.726C326.963 315.59 329.508 313.045 332.644 313.045H374.796C377.931 313.045 380.476 315.59 380.476 318.726V342.813C380.476 345.96 377.943 348.493 374.796 348.493ZM338.336 337.132H369.126V324.407H338.336V337.132Z" fill="#C1C7CD"/>
<path d="M252.625 463.916H48.6843C21.8369 463.916 0 442.079 0 415.231V48.6843C0 21.8369 21.8483 0 48.6843 0H277.018C280.154 0 282.699 2.54499 282.699 5.68079C282.699 8.81658 280.154 11.3616 277.018 11.3616H48.6843C28.1085 11.3616 11.3616 28.1085 11.3616 48.6843V415.243C11.3616 435.818 28.1085 452.565 48.6843 452.565H252.625C255.76 452.565 258.305 455.11 258.305 458.246C258.305 461.382 255.772 463.916 252.625 463.916ZM357.151 223.664C354.015 223.664 351.47 221.119 351.47 217.983V85.8139C351.47 82.6782 354.015 80.1332 357.151 80.1332C360.287 80.1332 362.832 82.6782 362.832 85.8139V217.983C362.832 221.119 360.287 223.664 357.151 223.664Z" fill="#C1C7CD"/>
<path d="M357.151 91.4946H298.184C283.38 91.4946 271.348 79.4514 271.348 64.6586V5.68069C271.35 4.55736 271.684 3.4597 272.309 2.52609C272.934 1.59248 273.821 0.864731 274.859 0.434578C275.896 0.00442484 277.038 -0.108871 278.14 0.108975C279.242 0.32682 280.255 0.866054 281.051 1.65869L361.184 81.7919C361.98 82.586 362.521 83.5987 362.74 84.7013C362.958 85.8038 362.844 86.9464 362.411 87.9839C361.977 89.0215 361.246 89.9081 360.311 90.5325C359.375 91.157 358.276 91.4916 357.151 91.4946ZM282.699 19.3941V64.6472C282.699 73.1798 289.64 80.1217 298.173 80.1217H343.426L282.699 19.3941ZM310.33 144.496H225.573C222.437 144.496 219.892 141.951 219.892 138.816C219.892 135.68 222.437 133.135 225.573 133.135H310.33C313.466 133.135 316.011 135.68 316.011 138.816C316.011 141.951 313.466 144.496 310.33 144.496ZM310.33 197.782H210.019C206.883 197.782 204.338 195.237 204.338 192.101C204.338 188.966 206.883 186.421 210.019 186.421H310.33C313.466 186.421 316.011 188.966 316.011 192.101C316.011 195.237 313.466 197.782 310.33 197.782ZM252.624 251.068H126.5C123.364 251.068 120.819 248.523 120.819 245.387C120.819 242.251 123.364 239.706 126.5 239.706H252.624C255.76 239.706 258.305 242.251 258.305 245.387C258.305 248.523 255.772 251.068 252.624 251.068ZM252.624 304.354H126.5C123.364 304.354 120.819 301.809 120.819 298.673C120.819 295.537 123.364 292.992 126.5 292.992H252.624C255.76 292.992 258.305 295.537 258.305 298.673C258.305 301.809 255.772 304.354 252.624 304.354ZM252.624 357.639H126.5C123.364 357.639 120.819 355.094 120.819 351.959C120.819 348.823 123.364 346.278 126.5 346.278H252.624C255.76 346.278 258.305 348.823 258.305 351.959C258.305 355.094 255.772 357.639 252.624 357.639ZM252.624 410.914H126.5C123.364 410.914 120.819 408.369 120.819 405.233C120.819 402.097 123.364 399.552 126.5 399.552H252.624C255.76 399.552 258.305 402.097 258.305 405.233C258.305 408.369 255.772 410.914 252.624 410.914ZM64.2155 266.042C62.7612 266.042 61.307 265.486 60.1935 264.384L48.4797 252.67C46.2642 250.454 46.2642 246.853 48.4797 244.637C50.6953 242.422 54.2969 242.422 56.5124 244.637L64.2042 252.329L90.1426 226.391C92.3581 224.175 95.9598 224.175 98.1753 226.391C100.391 228.606 100.391 232.208 98.1753 234.423L68.2375 264.384C67.1241 265.486 65.6698 266.042 64.2155 266.042ZM64.2155 372.614C62.7612 372.614 61.307 372.057 60.1935 370.955L48.4797 359.241C46.2642 357.026 46.2642 353.424 48.4797 351.209C50.6953 348.993 54.2969 348.993 56.5124 351.209L64.2042 358.901L90.1426 332.962C92.3581 330.747 95.9598 330.747 98.1753 332.962C100.391 335.178 100.391 338.779 98.1753 340.995L68.2148 370.955C67.1241 372.057 65.6698 372.614 64.2155 372.614ZM64.2155 425.9C62.7612 425.9 61.307 425.343 60.1935 424.241L48.4797 412.527C46.2642 410.312 46.2642 406.71 48.4797 404.495C50.6953 402.279 54.2969 402.279 56.5124 404.495L64.2042 412.186L90.1426 386.248C92.3581 384.032 95.9598 384.032 98.1753 386.248C100.391 388.463 100.391 392.065 98.1753 394.281L68.2148 424.241C67.1241 425.343 65.6698 425.9 64.2155 425.9ZM64.2155 319.328C62.7612 319.328 61.307 318.771 60.1935 317.669L48.4797 305.956C46.2642 303.74 46.2642 300.139 48.4797 297.923C50.6953 295.708 54.2969 295.708 56.5124 297.923L64.2042 305.615L90.1426 279.676C92.3581 277.461 95.9598 277.461 98.1753 279.676C100.391 281.892 100.391 285.493 98.1753 287.709L68.2148 317.669C67.1241 318.771 65.6698 319.328 64.2155 319.328ZM124.659 200.191C81.7351 200.191 46.821 165.277 46.821 122.353C46.821 79.4286 81.7351 44.5145 124.659 44.5145C167.583 44.5145 202.497 79.4286 202.497 122.353C202.497 165.277 167.583 200.191 124.659 200.191ZM124.659 55.8875C88.0067 55.8875 58.1825 85.7116 58.1825 122.364C58.1825 159.016 88.0067 188.841 124.659 188.841C161.312 188.841 191.136 159.016 191.136 122.364C191.136 85.7116 161.312 55.8875 124.659 55.8875Z" fill="#C1C7CD"/>
<path d="M125.443 92.097C122.307 92.097 119.762 89.552 119.762 86.4162V73.6344C119.762 70.4986 122.307 67.9536 125.443 67.9536C128.579 67.9536 131.124 70.4986 131.124 73.6344V86.4275C131.124 89.5633 128.579 92.097 125.443 92.097ZM123.875 176.775C120.739 176.775 118.194 174.23 118.194 171.094V158.301C118.194 155.165 120.739 152.62 123.875 152.62C127.011 152.62 129.556 155.165 129.556 158.301V171.094C129.556 174.23 127.011 176.775 123.875 176.775Z" fill="#C1C7CD"/>
<path d="M122.841 164.004C122.41 164.004 121.978 163.993 121.546 163.97C111.775 163.482 100.425 156.881 100.584 139.895C100.6 138.399 101.206 136.969 102.269 135.916C103.333 134.863 104.768 134.272 106.265 134.271H106.322C109.457 134.305 111.98 136.873 111.946 140.009C111.843 150.018 117.422 152.393 122.114 152.631C129.158 152.984 136.248 148.53 136.702 143.474C136.714 143.394 136.714 143.326 136.725 143.247C137.964 133.76 125.443 128.431 121.58 127.022C105.197 121.069 98.4366 112.082 101.504 100.311C105.526 84.8823 118.49 79.4969 128.84 81.008C140.986 82.7918 149.155 92.7786 148.712 105.31C148.598 108.446 145.939 110.9 142.826 110.787C141.32 110.732 139.897 110.081 138.87 108.978C137.843 107.874 137.296 106.408 137.35 104.901C137.645 96.6983 132.055 92.9604 127.181 92.2446C121.921 91.472 114.922 93.8693 112.491 103.174C111.446 107.185 112.286 111.559 125.454 116.342C131.317 118.478 150.245 126.806 147.996 144.61C146.86 156.483 134.351 164.004 122.841 164.004Z" fill="#C1C7CD"/>
</svg>
