<svg width="500" height="500" viewBox="0 0 500 500" fill="none" xmlns="http://www.w3.org/2000/svg">
<g clip-path="url(#clip0_3265_862)">
<path d="M382.812 160.156C382.812 158.084 381.989 156.097 380.524 154.632C379.059 153.167 377.072 152.344 375 152.344H156.25C154.178 152.344 152.191 153.167 150.726 154.632C149.261 156.097 148.438 158.084 148.438 160.156C148.438 162.228 149.261 164.215 150.726 165.681C152.191 167.146 154.178 167.969 156.25 167.969H375C377.072 167.969 379.059 167.146 380.524 165.681C381.989 164.215 382.812 162.228 382.812 160.156ZM156.25 207.031H257.813C259.885 207.031 261.872 206.208 263.337 204.743C264.802 203.278 265.625 201.291 265.625 199.219C265.625 197.147 264.802 195.16 263.337 193.694C261.872 192.229 259.885 191.406 257.813 191.406H156.25C154.178 191.406 152.191 192.229 150.726 193.694C149.261 195.16 148.438 197.147 148.438 199.219C148.438 201.291 149.261 203.278 150.726 204.743C152.191 206.208 154.178 207.031 156.25 207.031ZM123.242 155.219C121.932 153.615 120.04 152.597 117.98 152.387C115.92 152.176 113.861 152.792 112.254 154.098L89.6289 172.531L84.2539 165.73C83.6229 164.911 82.8355 164.225 81.9373 163.712C81.0391 163.199 80.0481 162.87 79.0216 162.743C77.9952 162.616 76.9537 162.695 75.9578 162.973C74.9618 163.252 74.0311 163.726 73.2196 164.367C72.4082 165.009 71.7322 165.805 71.2308 166.709C70.7294 167.614 70.4126 168.609 70.2987 169.637C70.1849 170.665 70.2763 171.705 70.5677 172.698C70.8591 173.69 71.3446 174.615 71.9961 175.418L82.2891 188.438C82.9319 189.25 83.7298 189.927 84.6365 190.428C85.5431 190.93 86.5404 191.246 87.5703 191.359C89.6472 191.576 91.7255 190.962 93.3516 189.652L122.121 166.215C123.728 164.906 124.75 163.012 124.961 160.95C125.172 158.888 124.555 156.826 123.246 155.219H123.242ZM156.25 285.156H257.813C259.885 285.156 261.872 284.333 263.337 282.868C264.802 281.403 265.625 279.416 265.625 277.344C265.625 275.272 264.802 273.285 263.337 271.819C261.872 270.354 259.885 269.531 257.813 269.531H156.25C154.178 269.531 152.191 270.354 150.726 271.819C149.261 273.285 148.438 275.272 148.438 277.344C148.438 279.416 149.261 281.403 150.726 282.868C152.191 284.333 154.178 285.156 156.25 285.156ZM156.25 347.656C154.178 347.656 152.191 348.479 150.726 349.944C149.261 351.41 148.438 353.397 148.438 355.469C148.438 357.541 149.261 359.528 150.726 360.993C152.191 362.458 154.178 363.281 156.25 363.281H257.813C259.885 363.281 261.872 362.458 263.337 360.993C264.802 359.528 265.625 357.541 265.625 355.469C265.625 353.397 264.802 351.41 263.337 349.944C261.872 348.479 259.885 347.656 257.813 347.656H156.25ZM382.812 54.6875C382.812 52.6155 381.989 50.6284 380.524 49.1632C379.059 47.6981 377.072 46.875 375 46.875H78.125C76.053 46.875 74.0659 47.6981 72.6007 49.1632C71.1356 50.6284 70.3125 52.6155 70.3125 54.6875V101.562C70.3125 103.635 71.1356 105.622 72.6007 107.087C74.0659 108.552 76.053 109.375 78.125 109.375H375C377.072 109.375 379.059 108.552 380.524 107.087C381.989 105.622 382.812 103.635 382.812 101.562V54.6875ZM171.875 93.75H85.9375V62.5H171.875V93.75ZM273.438 93.75H187.5V62.5H273.438V93.75ZM367.188 93.75H289.063V62.5H367.188V93.75ZM476.562 453.957L476.551 423.914C476.577 420.038 475.063 416.311 472.342 413.551C469.62 410.791 465.915 409.224 462.039 409.195L414.887 409.215L414.879 394.949C414.879 386.824 408.879 380.23 404.207 380.23H396.738C398.031 362.564 402.347 345.252 409.5 329.047C412.72 322.024 416.792 315.425 421.625 309.398C428.657 300.455 433.001 289.697 434.15 278.378C435.299 267.059 433.205 255.647 428.113 245.474C423.021 235.3 415.141 226.784 405.392 220.92C395.643 215.055 384.428 212.084 373.054 212.353C361.681 212.622 350.618 216.12 341.157 222.439C331.696 228.757 324.228 237.636 319.622 248.039C315.017 258.442 313.465 269.941 315.148 281.192C316.83 292.444 321.678 302.985 329.125 311.586C334.52 318.014 338.87 325.251 342.016 333.031C348.214 348.082 351.994 364.019 353.215 380.25C353.215 380.25 350.426 380.25 345.75 380.25C341.078 380.254 335.086 386.852 335.086 394.977L335.09 409.246L287.941 409.262C284.065 409.292 280.36 410.86 277.64 413.622C274.92 416.383 273.408 420.112 273.438 423.988L273.449 454.035C273.434 457.422 274.591 460.71 276.726 463.341C278.86 465.971 281.839 467.782 285.156 468.465V481.809C285.16 490.102 291.102 500 300.434 500L449.582 499.918C458.141 499.91 464.844 491.91 464.84 481.707V468.398C468.162 467.718 471.146 465.907 473.282 463.274C475.419 460.641 476.581 457.348 476.562 453.957ZM449.219 484.375H300.781C300.516 483.891 300.781 468.746 300.781 468.746L449.219 468.688C449.219 468.688 449.484 483.895 449.219 484.375ZM289.074 453.125L289.063 424.883L335.098 424.867C339.229 424.824 343.179 423.163 346.099 420.24C349.019 417.317 350.676 413.366 350.715 409.234V395.875H353.223C355.395 395.874 357.543 395.42 359.529 394.542C361.516 393.664 363.298 392.382 364.761 390.776C366.225 389.171 367.337 387.279 368.028 385.219C368.719 383.16 368.973 380.979 368.773 378.816C366.297 351.844 358.969 322.469 341.004 301.434C335.424 294.905 331.81 286.928 330.583 278.428C329.356 269.928 330.565 261.254 334.071 253.414C337.576 245.574 343.234 238.889 350.387 234.136C357.54 229.383 365.895 226.757 374.48 226.562C382.889 226.751 391.08 229.272 398.139 233.845C405.198 238.417 410.848 244.862 414.458 252.459C418.068 260.055 419.495 268.506 418.582 276.867C417.669 285.228 414.45 293.17 409.285 299.809C391.746 322.387 383.738 350.73 381.18 378.816C380.983 380.979 381.239 383.16 381.931 385.218C382.624 387.277 383.738 389.168 385.203 390.772C386.668 392.376 388.451 393.656 390.438 394.532C392.426 395.408 394.574 395.86 396.746 395.859H399.258V409.219C399.258 411.271 399.663 413.303 400.449 415.199C401.235 417.095 402.387 418.817 403.838 420.268C405.29 421.718 407.013 422.869 408.91 423.653C410.806 424.438 412.838 424.841 414.891 424.84L460.926 424.82L460.938 453.062L289.074 453.125Z" fill="#C1C7CD"/>
<path d="M386.719 249.996C386.718 247.925 385.894 245.939 384.429 244.474C382.964 243.01 380.978 242.187 378.906 242.188C374.802 242.187 370.738 242.996 366.946 244.567C363.155 246.137 359.71 248.44 356.808 251.342C353.906 254.244 351.604 257.689 350.034 261.481C348.464 265.273 347.656 269.337 347.656 273.441C347.657 275.513 348.481 277.499 349.946 278.963C351.411 280.427 353.397 281.25 355.469 281.25C356.495 281.249 357.514 281.047 358.462 280.654C359.41 280.261 360.271 279.685 360.996 278.959C361.721 278.233 362.296 277.372 362.688 276.424C363.08 275.476 363.282 274.46 363.281 273.434C363.282 269.29 364.929 265.317 367.859 262.388C370.789 259.458 374.763 257.812 378.906 257.812C379.933 257.812 380.949 257.61 381.897 257.217C382.845 256.825 383.706 256.249 384.432 255.523C385.157 254.797 385.733 253.935 386.125 252.987C386.518 252.039 386.719 251.022 386.719 249.996ZM429.688 388.023V324.914C427.421 328.208 425.452 331.697 423.805 335.34C419.269 345.465 416.043 356.126 414.203 367.066C418.151 369.225 421.582 372.219 424.256 375.838C426.93 379.457 428.783 383.615 429.688 388.023Z" fill="#C1C7CD"/>
<path d="M132.812 484.375V429.687C132.812 416.762 120.898 406.25 106.25 406.25H39.0625V23.4374C39.4071 21.1113 40.6294 19.0055 42.4783 17.5525C44.3272 16.0996 46.6623 15.4098 49.0039 15.6249H404.121C409.629 15.6249 414.062 19.3632 414.062 22.4608V206.695C419.132 209.833 423.815 213.555 428.016 217.785C428.605 218.383 429.117 219.035 429.688 219.656V22.4608C429.688 10.2851 417.977 -0.000102727 404.121 -0.000102727H49.0039C42.5106 -0.263025 36.1772 2.0543 31.3869 6.44572C26.5965 10.8371 23.7387 16.9458 23.4375 23.4374V414.062C23.4588 415.168 23.705 416.259 24.161 417.267C24.6169 418.275 25.2732 419.179 26.0898 419.926L114.867 498.051C116.293 499.306 118.128 499.999 120.027 500H274.434C271.701 495.216 270.094 489.872 269.734 484.375H132.812ZM117.188 475.508L52.8281 421.875H106.25C112.18 421.875 117.188 425.453 117.188 429.687V475.508Z" fill="#C1C7CD"/>
<path d="M148.438 238.281C148.438 240.353 149.261 242.34 150.726 243.806C152.191 245.271 154.178 246.094 156.25 246.094H303.359C305.291 240.614 307.84 235.372 310.957 230.469H156.25C154.178 230.469 152.191 231.292 150.726 232.757C149.261 234.222 148.438 236.209 148.438 238.281ZM123.242 233.344C121.932 231.74 120.04 230.722 117.98 230.512C115.92 230.301 113.861 230.917 112.254 232.223L89.6289 250.656L84.2539 243.855C83.6229 243.036 82.8355 242.35 81.9373 241.837C81.0391 241.324 80.0481 240.995 79.0216 240.868C77.9952 240.741 76.9537 240.82 75.9578 241.098C74.9618 241.377 74.0311 241.851 73.2196 242.492C72.4082 243.134 71.7322 243.93 71.2308 244.834C70.7294 245.739 70.4126 246.734 70.2987 247.762C70.1849 248.79 70.2763 249.83 70.5677 250.823C70.8591 251.815 71.3446 252.74 71.9961 253.543L82.2891 266.562C82.9319 267.375 83.7298 268.052 84.6365 268.553C85.5431 269.055 86.5404 269.371 87.5703 269.484C89.6472 269.701 91.7255 269.088 93.3516 267.777L122.121 244.34C123.728 243.031 124.75 241.137 124.961 239.075C125.172 237.013 124.555 234.951 123.246 233.344H123.242ZM112.254 310.352L89.6289 328.781L84.2539 321.98C83.6229 321.161 82.8355 320.475 81.9373 319.962C81.0391 319.449 80.0481 319.12 79.0216 318.993C77.9952 318.866 76.9537 318.945 75.9578 319.223C74.9618 319.502 74.0311 319.976 73.2196 320.617C72.4082 321.259 71.7322 322.055 71.2308 322.959C70.7294 323.864 70.4126 324.859 70.2987 325.887C70.1849 326.915 70.2763 327.955 70.5677 328.948C70.8591 329.94 71.3446 330.865 71.9961 331.668L82.2891 344.687C82.9319 345.5 83.7298 346.177 84.6365 346.678C85.5431 347.18 86.5404 347.496 87.5703 347.609C89.6472 347.826 91.7255 347.213 93.3516 345.902L122.121 322.465C122.917 321.817 123.577 321.019 124.064 320.116C124.551 319.213 124.856 318.222 124.96 317.202C125.065 316.181 124.967 315.15 124.673 314.167C124.379 313.184 123.894 312.268 123.246 311.473C122.598 310.677 121.8 310.017 120.897 309.53C119.994 309.043 119.004 308.738 117.983 308.634C116.962 308.529 115.931 308.627 114.948 308.921C113.965 309.215 113.05 309.704 112.254 310.352ZM317.238 321.727C313.804 317.672 310.802 313.271 308.281 308.594H156.25C154.178 308.594 152.191 309.417 150.726 310.882C149.261 312.347 148.438 314.334 148.438 316.406C148.438 318.478 149.261 320.465 150.726 321.931C152.191 323.396 154.178 324.219 156.25 324.219H319.18C318.543 323.375 317.91 322.52 317.238 321.727Z" fill="#C1C7CD"/>
</g>
<defs>
<clipPath id="clip0_3265_862">
<rect width="500" height="500" fill="white"/>
</clipPath>
</defs>
</svg>
