<svg width="193" height="202" viewBox="0 0 193 202" fill="none" xmlns="http://www.w3.org/2000/svg">
<path d="M120.258 103.616C119.283 102.157 117.523 101.807 116.076 102.773C114.617 103.748 114.267 105.509 115.233 106.955C116.208 108.415 117.96 108.752 119.415 107.799C120.875 106.823 121.234 105.076 120.258 103.616Z" fill="#002B5B"/>
<path d="M137.028 128.721C136.079 127.245 134.319 126.838 132.855 127.778C131.378 128.727 130.98 130.501 131.912 131.952C132.861 133.429 134.613 133.822 136.077 132.882C137.575 131.937 137.969 130.185 137.028 128.721Z" fill="#002B5B"/>
<path d="M153.733 153.721C152.771 152.253 151.001 151.889 149.546 152.843C148.078 153.805 147.715 155.574 148.668 157.029C149.631 158.497 151.378 158.856 152.846 157.894C154.327 156.923 154.695 155.189 153.733 153.721Z" fill="#002B5B"/>
<path d="M60.8622 52.7211C61.8373 54.1805 63.5849 54.5394 65.0443 53.5643C66.5037 52.5892 66.8626 50.8415 65.8875 49.3821C64.9123 47.9227 63.1517 47.5725 61.7053 48.539C60.2503 49.4924 59.9088 51.2661 60.8622 52.7211Z" fill="#002B5B"/>
<path d="M77.5731 77.7302C78.5352 79.1983 80.2785 79.579 81.7553 78.6299C83.2364 77.6591 83.6171 75.9158 82.6637 74.4607C81.7016 72.9926 79.9496 72.5989 78.4945 73.5523C77.0177 74.5014 76.6415 76.2795 77.5731 77.7302Z" fill="#002B5B"/>
<path d="M99.3426 99.4265C98.3631 97.9888 96.5894 97.6473 95.1388 98.6355C93.7011 99.6149 93.3683 101.402 94.3478 102.839C95.3359 104.29 97.0922 104.605 98.5429 103.617C100.002 102.642 100.331 100.877 99.3426 99.4265Z" fill="#002B5B"/>
<path d="M116.16 124.597C115.224 123.112 113.467 122.683 111.999 123.589C110.514 124.525 110.085 126.282 110.991 127.75C111.927 129.235 113.683 129.664 115.143 128.745C116.663 127.805 117.087 126.07 116.16 124.597Z" fill="#002B5B"/>
<path d="M132.859 149.593C131.897 148.125 130.132 147.74 128.69 148.685C127.222 149.647 126.837 151.412 127.79 152.867C128.752 154.335 130.508 154.707 131.963 153.754C133.432 152.792 133.812 151.048 132.859 149.593Z" fill="#002B5B"/>
<path d="M56.718 73.6308C57.7062 75.0814 59.4582 75.4186 60.9088 74.4305C62.3682 73.4553 62.7054 71.7034 61.7303 70.244C60.7551 68.7846 58.9901 68.4561 57.5307 69.4313C56.0931 70.4107 55.7516 72.1844 56.718 73.6308Z" fill="#002B5B"/>
<path d="M74.4668 94.347C72.9421 95.2527 72.4702 97.0005 73.328 98.4817C74.2249 99.9933 75.9814 100.478 77.4539 99.6074C78.9786 98.7018 79.4592 96.967 78.5884 95.4945C77.6871 93.9481 75.9393 93.4762 74.4668 94.347Z" fill="#002B5B"/>
<path d="M95.2761 120.444C94.34 118.958 92.5967 118.521 91.1242 119.448C89.6387 120.385 89.2102 122.141 90.1159 123.609C91.0519 125.095 92.8083 125.523 94.2677 124.604C95.7793 123.651 96.2034 121.916 95.2761 120.444Z" fill="#002B5B"/>
<path d="M111.911 145.338C110.932 143.901 109.154 143.581 107.712 144.582C106.274 145.562 105.954 147.34 106.943 148.79C107.935 150.219 109.691 150.535 111.142 149.546C112.584 148.545 112.9 146.789 111.911 145.338Z" fill="#002B5B"/>
<path d="M52.5496 94.5022C53.5247 95.9616 55.2636 96.3075 56.7317 95.3454C58.1911 94.3703 58.55 92.6226 57.5749 91.1633C56.5998 89.7039 54.8391 89.3537 53.3927 90.3201C51.9464 91.2865 51.5832 93.0559 52.5496 94.5022Z" fill="#002B5B"/>
<path d="M74.2821 116.128C73.2896 114.699 71.5116 114.379 70.0696 115.38C68.6407 116.373 68.3209 118.151 69.3221 119.593C70.3146 121.021 72.0709 121.337 73.5259 120.327C74.9765 119.339 75.292 117.583 74.2821 116.128Z" fill="#002B5B"/>
<path d="M91.0854 141.281C90.1232 139.813 88.3582 139.428 86.9162 140.372C85.4481 141.334 85.0631 143.099 86.0165 144.555C86.9786 146.023 88.7219 146.403 90.19 145.441C91.6581 144.479 92.0387 142.736 91.0854 141.281Z" fill="#002B5B"/>
<path d="M48.3404 115.304C49.2764 116.79 51.0328 117.218 52.4923 116.3C53.9908 115.355 54.4149 113.62 53.4963 112.161C52.5602 110.675 50.8038 110.247 49.3357 111.152C47.8545 112.067 47.4348 113.836 48.3404 115.304Z" fill="#002B5B"/>
<path d="M70.2042 137.143C69.2551 135.666 67.4944 135.26 66.0306 136.2C64.5538 137.149 64.1558 138.923 65.0875 140.374C66.0366 141.85 67.7886 142.244 69.2524 141.304C70.7509 140.359 71.1446 138.607 70.2042 137.143Z" fill="#002B5B"/>
<path d="M49.2469 132.878C48.2545 131.449 46.4895 131.12 45.0475 132.121C43.6186 133.114 43.2988 134.892 44.2913 136.321C45.2838 137.75 47.0401 138.065 48.4907 137.077C49.9197 136.085 50.2481 134.32 49.2469 132.878Z" fill="#002B5B"/>
<path d="M127.694 44.321C128.669 45.7804 130.421 46.1175 131.893 45.1337C133.353 44.1586 133.69 42.4066 132.715 40.9472C131.74 39.4878 129.966 39.1463 128.528 40.1258C127.069 41.1009 126.727 42.8746 127.694 44.321Z" fill="#002B5B"/>
<path d="M148.439 70.2809C149.964 69.3752 150.444 67.6405 149.573 66.168C148.668 64.6433 146.92 64.1714 145.447 65.0422C143.936 65.9392 143.451 67.6957 144.322 69.1682C145.206 70.6885 146.975 71.1648 148.439 70.2809Z" fill="#002B5B"/>
<path d="M166.218 91.0854C165.256 89.6173 163.491 89.2323 162.049 90.177C160.581 91.1391 160.196 92.9041 161.149 94.3592C162.111 95.8273 163.855 96.2079 165.323 95.2458C166.791 94.2837 167.159 92.5491 166.218 91.0854Z" fill="#002B5B"/>
<path d="M106.826 40.1958C107.819 41.6247 109.575 41.9402 111.026 40.952C112.464 39.9726 112.792 38.2076 111.782 36.7526C110.79 35.3236 109.025 34.9952 107.583 35.9963C106.158 36.9671 105.838 38.7451 106.826 40.1958Z" fill="#002B5B"/>
<path d="M128.593 61.8822C127.631 60.4142 125.888 60.0335 124.424 60.9739C122.956 61.936 122.562 63.688 123.516 65.1431C124.478 66.6111 126.221 66.9918 127.698 66.0427C129.153 65.0893 129.534 63.346 128.593 61.8822Z" fill="#002B5B"/>
<path d="M145.314 86.8952C144.352 85.4271 142.596 85.0552 141.136 86.0303C139.668 86.9924 139.305 88.7618 140.258 90.2169C141.22 91.685 142.981 92.0352 144.436 91.0818C145.909 90.0979 146.276 88.3633 145.314 86.8952Z" fill="#002B5B"/>
<path d="M162.027 111.916C161.052 110.456 159.3 110.119 157.841 111.094C156.381 112.07 156.04 113.843 157.019 115.281C157.994 116.74 159.746 117.077 161.219 116.094C162.656 115.114 163.002 113.375 162.027 111.916Z" fill="#002B5B"/>
<path d="M85.891 35.9668C86.8531 37.4348 88.6008 37.7938 90.0688 36.8317C91.5369 35.8696 91.9089 34.1132 90.9555 32.6582C89.9934 31.1901 88.224 30.8268 86.7689 31.7802C85.3226 32.7466 84.9463 34.5247 85.891 35.9668Z" fill="#002B5B"/>
<path d="M102.621 61.0058C103.584 62.4739 105.331 62.8328 106.799 61.8707C108.267 60.9086 108.639 59.1523 107.686 57.6972C106.724 56.2291 104.954 55.8659 103.499 56.8193C102.053 57.7857 101.677 59.5638 102.621 61.0058Z" fill="#002B5B"/>
<path d="M124.472 82.824C123.536 81.3385 121.78 80.9101 120.312 81.8157C118.826 82.7517 118.398 84.5081 119.303 85.9763C120.226 87.4705 121.996 87.8902 123.455 86.9716C124.976 86.0311 125.387 84.3052 124.472 82.824Z" fill="#002B5B"/>
<path d="M141.145 107.78C140.17 106.321 138.409 105.971 136.963 106.937C135.504 107.912 135.153 109.673 136.107 111.128C137.082 112.588 138.83 112.946 140.289 111.971C141.761 110.987 142.12 109.24 141.145 107.78Z" fill="#002B5B"/>
<path d="M157.889 132.83C156.927 131.362 155.158 130.999 153.703 131.952C152.235 132.914 151.871 134.684 152.825 136.139C153.787 137.607 155.547 137.957 157.003 137.004C158.484 136.033 158.851 134.298 157.889 132.83Z" fill="#002B5B"/>
<path d="M65.0096 31.8175C65.9717 33.2856 67.7324 33.6358 69.1874 32.6824C70.6555 31.7203 71.0274 29.964 70.061 28.5176C69.0989 27.0496 67.3295 26.6863 65.8745 27.6397C64.4325 28.5844 64.0562 30.3625 65.0096 31.8175Z" fill="#002B5B"/>
<path d="M81.6867 56.7896C82.6097 58.2838 84.3792 58.7035 85.8386 57.7849C87.3371 56.8401 87.7613 55.1055 86.8557 53.6373C85.9196 52.1518 84.1632 51.7234 82.6951 52.629C81.2009 53.552 80.7811 55.3214 81.6867 56.7896Z" fill="#002B5B"/>
<path d="M103.542 78.6088C102.58 77.1407 100.815 76.7557 99.3602 77.7091C97.8921 78.6712 97.5071 80.4363 98.4605 81.8913C99.4226 83.3594 101.179 83.7314 102.634 82.778C104.124 81.8202 104.504 80.0769 103.542 78.6088Z" fill="#002B5B"/>
</svg>
