<svg width="274" height="274" viewBox="0 0 274 274" fill="none" xmlns="http://www.w3.org/2000/svg">
<path d="M103.55 269.106L88.7307 259.744L116.221 262.115L103.55 269.106ZM91.1238 260.549L103.571 268.414L114.214 262.542L91.1238 260.549Z" fill="#002B5B"/>
<path d="M115.866 262.684L89.23 260.385L103.792 246.87L115.866 262.684ZM90.6228 259.908L114.572 261.974L103.716 247.755L90.6228 259.908Z" fill="#002B5B"/>
<path d="M115.191 262.786L103.194 247.072L133.57 243.788L115.191 262.786ZM104.312 247.552L115.246 261.872L131.993 244.56L104.312 247.552Z" fill="#002B5B"/>
<path d="M89.9034 260.578L76.6575 245.018L104.458 247.066L89.9034 260.578ZM78.0371 245.717L89.9527 259.716L103.048 247.559L78.0371 245.717Z" fill="#002B5B"/>
<path d="M114.439 262.705L132.826 243.697L143.383 259.855L142.894 259.904L114.439 262.705ZM132.735 244.65L115.998 261.952L142.345 259.359L132.735 244.65Z" fill="#002B5B"/>
<path d="M126.739 271.284L114.421 262.107L143.968 259.2L126.739 271.284ZM116.014 262.55L126.749 270.547L141.764 260.015L116.014 262.55Z" fill="#002B5B"/>
<path d="M142.835 260.108L132.307 243.995L132.701 243.886L163.601 235.341L142.835 260.108ZM133.254 244.351L142.895 259.106L161.909 236.427L133.254 244.351Z" fill="#002B5B"/>
<path d="M142.027 260.143L162.809 235.353L171.733 252.098L142.027 260.143ZM162.699 236.416L143.705 259.071L170.854 251.719L162.699 236.416Z" fill="#002B5B"/>
<path d="M171.258 252.477L162.341 235.743L162.632 235.613L192.667 222.107L171.258 252.477ZM163.169 236.025L171.329 251.34L190.921 223.546L163.169 236.025Z" fill="#002B5B"/>
<path d="M90.8165 260.731L67.6423 253.631L77.3768 244.941L90.8165 260.731ZM68.8315 253.371L89.0378 259.562L77.3193 245.794L68.8315 253.371Z" fill="#002B5B"/>
<path d="M83.4554 262.827L65.9146 252.478L90.8658 260.122L83.4554 262.827ZM70.5592 254.524L83.5161 262.169L88.9902 260.171L70.5592 254.524Z" fill="#002B5B"/>
<path d="M68.2139 253.92L53.9333 238.215L77.9467 245.232L68.2139 253.92ZM55.8023 239.383L68.2598 253.081L76.7478 245.503L55.8023 239.383Z" fill="#002B5B"/>
<path d="M69.8333 254.813L50.5187 243.159L54.8677 238.355L69.8333 254.813ZM51.4482 243.021L66.6404 252.189L54.8677 239.243L51.4482 243.021Z" fill="#002B5B"/>
<path d="M50.9851 243.53L35.5203 227.015L55.3343 238.728L50.9851 243.53ZM38.8084 229.652L50.9785 242.649L54.4014 238.87L38.8084 229.652Z" fill="#002B5B"/>
<path d="M151.896 268.991L142.286 259.454L172.485 251.277L151.896 268.991ZM143.442 259.76L151.925 268.177L170.102 252.54L143.442 259.76Z" fill="#002B5B"/>
<path d="M266.765 180.212L266.177 180.102L273.057 142.715L273.645 142.819L270.446 161.4L266.765 180.212Z" fill="#002B5B"/>
<path d="M266.767 180.209L266.177 180.106L269.112 162.812L273.057 142.711L273.645 142.822L266.767 180.209Z" fill="#002B5B"/>
<path d="M125.653 271.316L142.899 259.219L152.574 268.822L125.653 271.316ZM142.831 259.995L127.836 270.514L151.247 268.347L142.831 259.995Z" fill="#002B5B"/>
<path d="M137.769 273.663L137.687 273.646L124.819 270.794L154.425 268.052L137.769 273.663ZM128.67 271.036L137.737 273.046L149.396 269.116L128.67 271.036Z" fill="#002B5B"/>
<path d="M150.726 269.21L171.356 251.46L178.136 261.883L150.726 269.21ZM171.228 252.357L153.095 267.958L177.187 261.52L171.228 252.357Z" fill="#002B5B"/>
<path d="M159.594 271.704L150.919 268.54L180.079 260.747L159.594 271.704ZM152.903 268.629L159.548 271.052L175.242 262.657L152.903 268.629Z" fill="#002B5B"/>
<path d="M257.83 199.666L257.275 199.451L269.12 162.778L269.7 162.919L266.744 180.28L257.83 199.666ZM268.419 166.894L259.392 194.84L266.182 180.067L268.419 166.894Z" fill="#002B5B"/>
<path d="M257.843 199.633L257.264 199.503L259.386 183.648L269.133 162.744L269.689 162.961L257.843 199.633ZM259.947 183.857L258.292 196.302L267.64 167.361L259.947 183.857Z" fill="#002B5B"/>
<path d="M242.006 221.018L260.21 181.873L257.799 199.719L242.006 221.018ZM259.103 185.673L245.023 215.945L257.274 199.426L259.103 185.673Z" fill="#002B5B"/>
<path d="M238.767 228.297L238.251 227.995L243.248 218.344L257.32 199.364L257.809 199.706L238.767 228.297ZM250.765 209.206L243.753 218.659L241.27 223.461L250.765 209.206Z" fill="#002B5B"/>
<path d="M243.142 219.987L243.89 204.251L243.944 204.178L261.127 181.32L243.142 219.987ZM244.478 204.462L243.885 216.976L258.187 186.227L244.478 204.462Z" fill="#002B5B"/>
<path d="M223.44 237.569L244.538 203.21L243.806 218.617L243.717 218.698L223.44 237.569ZM243.829 205.504L226.245 234.143L243.221 218.346L243.829 205.504Z" fill="#002B5B"/>
<path d="M224.636 236.761L223.223 223.254L245.563 202.68L224.636 236.761ZM223.847 223.49L225.048 234.951L242.804 206.033L223.847 223.49Z" fill="#002B5B"/>
<path d="M201.133 251.809L223.756 222.601L225.158 236.005L225.007 236.106L201.133 251.809ZM223.315 224.143L203.8 249.34L224.526 235.707L223.315 224.143Z" fill="#002B5B"/>
<path d="M202.362 251.197L198.395 239.456L198.587 239.331L224.859 222.148L202.362 251.197ZM199.11 239.703L202.572 249.951L222.21 224.595L199.11 239.703Z" fill="#002B5B"/>
<path d="M177.617 262.182L170.852 251.779L200.02 238.684L177.617 262.182ZM171.733 252.037L177.706 261.222L197.487 240.475L171.733 252.037Z" fill="#002B5B"/>
<path d="M176.395 262.596L198.877 239.016L202.838 250.735L176.395 262.596ZM198.627 240.143L178.926 260.807L202.097 250.414L198.627 240.143Z" fill="#002B5B"/>
<path d="M181.756 265.861L177.125 261.615L205.026 249.1L181.756 265.861ZM178.197 261.788L181.802 265.093L199.911 252.048L178.197 261.788Z" fill="#002B5B"/>
<path d="M221.614 244.565L224.639 235.639L243.31 218.263L243.74 218.675L221.614 244.565ZM225.102 236.023L223.154 241.844L239.89 222.26L225.102 236.023Z" fill="#002B5B"/>
<path d="M202.897 256.522L202.148 250.428L202.303 250.326L224.679 235.607L225.046 236.075L202.897 256.522ZM202.787 250.721L203.347 255.291L221.965 238.106L202.787 250.721Z" fill="#002B5B"/>
<path d="M222.688 224.558L240.038 185.052L244.514 204.459L244.387 204.576L222.688 224.558ZM239.861 186.942L224.383 222.186L243.854 204.255L239.861 186.942Z" fill="#002B5B"/>
<path d="M273.054 142.798L269.142 104.1L269.736 104.035L272.111 124.346L273.648 142.744L273.054 142.798Z" fill="#002B5B"/>
<path d="M258.975 185.942L266.77 141.246L269.713 162.916L269.675 162.995L258.975 185.942ZM266.698 145.148L260.338 181.605L269.095 162.823L266.698 145.148Z" fill="#002B5B"/>
<path d="M269.109 162.91L266.432 143.187L266.441 143.137L270.679 122.624L271.27 122.696L269.703 162.881L269.109 162.91ZM267.036 143.207L269.24 159.431L270.531 126.29L267.036 143.207Z" fill="#002B5B"/>
<path d="M269.697 162.927L269.105 162.858L270.672 122.673L271.268 122.649L273.653 142.78L273.645 142.826L269.697 162.927ZM271.122 126.495L269.854 159.033L273.049 142.757L271.122 126.495Z" fill="#002B5B"/>
<path d="M170.42 252.627L191.862 222.211L199.139 239.734L198.875 239.851L170.42 252.627ZM191.725 223.442L172.165 251.189L198.366 239.426L191.725 223.442Z" fill="#002B5B"/>
<path d="M223.488 224.223L217.708 205.722L240.784 184.839L223.488 224.223ZM218.391 205.908L223.581 222.521L239.115 187.155L218.391 205.908Z" fill="#002B5B"/>
<path d="M273.054 142.804L270.674 122.709L269.142 104.094L269.736 104.04L273.648 142.739L273.054 142.804Z" fill="#002B5B"/>
<path d="M244.143 205.509L239.626 185.927L257.142 163.199L244.143 205.509ZM240.272 186.068L244.225 203.205L255.602 166.176L240.272 186.068Z" fill="#002B5B"/>
<path d="M197.878 240.508L218.13 205.072L223.887 223.497L197.878 240.508ZM217.969 206.558L199.629 238.651L223.182 223.247L217.969 206.558Z" fill="#002B5B"/>
<path d="M198.709 240.256L191.423 222.711L218.919 204.897L198.709 240.256ZM192.166 222.941L198.794 238.903L217.179 206.733L192.166 222.941Z" fill="#002B5B"/>
<path d="M243.397 205.901L256.454 163.403L259.974 183.849L243.397 205.901ZM256.288 165.972L244.97 202.814L259.34 183.697L256.288 165.972Z" fill="#002B5B"/>
<path d="M259.655 185.523L256.061 164.644L267.397 141.134L259.655 185.523ZM256.682 164.732L259.658 182.023L266.07 145.26L256.682 164.732Z" fill="#002B5B"/>
<path d="M105.641 269.721L82.5553 262.52L89.9625 259.816L90.0873 259.895L105.641 269.721ZM84.4162 262.475L101.479 267.798L89.8919 260.477L84.4162 262.475Z" fill="#002B5B"/>
<path d="M127.775 271.31L102.566 268.967L115.242 261.974L127.775 271.31ZM104.554 268.552L125.714 270.52L115.195 262.683L104.554 268.552Z" fill="#002B5B"/>
<path d="M117.473 271.745L103.504 269.052L103.588 268.463L126.772 270.618L126.762 271.214L117.473 271.745ZM109.606 269.622L117.512 271.146L122.763 270.844L109.606 269.622Z" fill="#002B5B"/>
<path d="M24.7002 215.589L13.21 194.001L27.108 208.637L24.7002 215.589ZM15.8 197.595L24.5836 214.1L26.4264 208.784L15.8 197.595Z" fill="#002B5B"/>
<path d="M77.9319 245.849L54.3487 238.958L66.7095 224.082L77.9319 245.849ZM55.3867 238.641L76.7643 244.887L66.5911 225.158L55.3867 238.641Z" fill="#002B5B"/>
<path d="M261.082 84.0547L241.428 50.7247L241.924 50.3961L255.152 68.251L261.616 83.7891L261.082 84.0547ZM244.824 55.3097L259.419 80.058L254.636 68.5427L244.824 55.3097Z" fill="#002B5B"/>
<path d="M270.682 122.756L261.05 83.9751L261.616 83.7923L269.736 104.046L271.27 122.659L270.682 122.756ZM262.669 88.0143L270.37 119.023L269.145 104.139L262.669 88.0143Z" fill="#002B5B"/>
<path d="M270.695 122.796L262.294 101.975L261.041 83.9234L261.629 83.8318L271.262 122.613L270.695 122.796ZM262.887 101.887L269.661 118.64L261.876 87.2981L262.887 101.887Z" fill="#002B5B"/>
<path d="M266.632 145.17L262.086 99.9041L271.283 122.656L271.264 122.744L266.632 145.17ZM263.099 104.004L266.836 141.225L270.661 122.712L263.099 104.004Z" fill="#002B5B"/>
<path d="M38.4931 230.205L24.3011 214.916L26.7104 207.964L38.4931 230.205ZM24.9827 214.772L35.8356 226.463L26.8255 209.458L24.9827 214.772Z" fill="#002B5B"/>
<path d="M55.62 239.59L36.7292 228.423L44.3204 218.036L55.62 239.59ZM37.5997 228.245L54.1156 238.008L44.2349 219.162L37.5997 228.245Z" fill="#002B5B"/>
<path d="M103.105 247.683L122.231 221.957L133.236 244.424L132.813 244.47L103.105 247.683ZM122.126 223.099L104.399 246.942L132.327 243.923L122.126 223.099Z" fill="#002B5B"/>
<path d="M132.745 244.779L121.753 222.339L122.096 222.241L153.031 213.445L132.745 244.779ZM122.604 222.717L132.818 243.568L151.667 214.452L122.604 222.717Z" fill="#002B5B"/>
<path d="M261.099 84.0792L247.14 64.9902L241.408 50.6838L241.942 50.4214L261.596 83.7522L261.099 84.0792ZM247.682 64.7338L258.018 78.8583L243.425 54.1117L247.682 64.7338Z" fill="#002B5B"/>
<path d="M37.1234 228.895L26.0273 207.949L44.7178 218.504L37.1234 228.895ZM27.5088 209.472L37.2038 227.773L43.8391 218.694L27.5088 209.472Z" fill="#002B5B"/>
<path d="M162.074 236.517L181.69 200.067L192.19 222.975L162.074 236.517ZM181.648 201.408L163.435 235.252L191.397 222.678L181.648 201.408Z" fill="#002B5B"/>
<path d="M191.804 223.569L181.29 200.627L208.91 182.956L191.804 223.569ZM182.048 200.849L191.781 222.084L207.614 184.493L182.048 200.849Z" fill="#002B5B"/>
<path d="M77.2899 245.911L66.1478 224.294L93.6514 225.806L77.2899 245.911ZM67.1562 224.946L77.4047 244.825L92.4491 226.337L67.1562 224.946Z" fill="#002B5B"/>
<path d="M104.258 247.649L103.731 247.61L76.7544 245.623L93.1093 225.526L104.258 247.649ZM77.9402 245.113L103.25 246.975L92.9911 226.617L77.9402 245.113Z" fill="#002B5B"/>
<path d="M103.703 247.878L92.5937 225.827L122.833 222.148L103.703 247.878ZM93.5084 226.316L103.801 246.746L121.523 222.908L93.5084 226.316Z" fill="#002B5B"/>
<path d="M217.457 206.754L230.478 163.183L240.308 186.075L217.457 206.754ZM230.578 164.933L218.641 204.876L239.592 185.919L230.578 164.933Z" fill="#002B5B"/>
<path d="M218.106 206.676L207.9 183.646L208.064 183.502L231.114 163.143L218.106 206.676ZM208.624 183.803L217.994 204.954L229.942 164.973L208.624 183.803Z" fill="#002B5B"/>
<path d="M191.141 223.604L208.255 182.972L218.426 205.927L218.213 206.065L191.141 223.604ZM208.269 184.478L192.445 222.048L217.672 205.703L208.269 184.478Z" fill="#002B5B"/>
<path d="M240.073 187.043L230.184 164.011L247.81 141.948L240.073 187.043ZM230.874 164.105L239.825 184.951L246.83 144.134L230.874 164.105Z" fill="#002B5B"/>
<path d="M239.45 187.133L247.199 141.978L256.715 164.732L239.45 187.133ZM247.442 144.104L240.447 184.862L256.029 164.643L247.442 144.104Z" fill="#002B5B"/>
<path d="M256.017 166.111L257.789 120.576L267.061 143.207L256.017 166.111ZM258.28 123.349L256.725 163.265L266.407 143.187L258.28 123.349Z" fill="#002B5B"/>
<path d="M267.236 145.212L257.724 121.988L257.743 121.897L262.708 100.105L267.236 145.212ZM258.348 121.937L266.231 141.181L262.478 103.803L258.348 121.937Z" fill="#002B5B"/>
<path d="M256.617 166.051L246.992 143.028L258.387 120.611L256.617 166.051ZM247.649 143.053L256.125 163.325L257.684 123.314L247.649 143.053Z" fill="#002B5B"/>
<path d="M54.8119 239.335L43.6963 218.134L67.1791 224.453L54.8119 239.335ZM44.8591 219.065L54.9236 238.263L66.1248 224.787L44.8591 219.065Z" fill="#002B5B"/>
<path d="M132.103 244.67L152.39 213.336L163.177 236.076L162.836 236.172L132.103 244.67ZM152.308 214.56L133.46 243.677L162.333 235.692L152.308 214.56Z" fill="#002B5B"/>
<path d="M162.737 236.546L151.95 213.801L182.347 200.104L162.737 236.546ZM152.75 214.096L162.772 235.222L180.988 201.371L152.75 214.096Z" fill="#002B5B"/>
<path d="M241.48 50.791L214.414 25.4806L214.806 25.0307L231.861 38.8209L241.911 50.378L241.48 50.791ZM220.863 30.6949L237.676 46.4167L231.447 39.2479L220.863 30.6949Z" fill="#002B5B"/>
<path d="M27.3428 209.75L14.138 195.844L20.742 184.029L27.3428 209.75ZM14.8721 195.752L26.1916 207.672L20.5352 185.625L14.8721 195.752Z" fill="#002B5B"/>
<path d="M181.152 201.423L194.365 157.408L208.655 183.826L181.152 201.423ZM194.524 158.957L182.187 200.052L207.867 183.623L194.524 158.957Z" fill="#002B5B"/>
<path d="M92.4738 226.442L111.777 194.891L122.595 222.778L92.4738 226.442ZM111.657 196.233L93.6283 225.701L121.761 222.278L111.657 196.233Z" fill="#002B5B"/>
<path d="M93.4773 226.393L66.1051 224.888L83.9562 198.76L93.4773 226.393ZM67.1956 224.351L92.6233 225.749L83.779 200.079L67.1956 224.351Z" fill="#002B5B"/>
<path d="M26.6415 209.416L20.1819 184.251L37.7541 193.463L26.6415 209.416ZM21.0935 185.403L26.8944 208.005L36.8785 193.677L21.0935 185.403Z" fill="#002B5B"/>
<path d="M207.818 184.515L215.916 138.801L230.91 164.118L207.818 184.515ZM216.223 140.493L208.705 182.935L230.144 163.998L216.223 140.493Z" fill="#002B5B"/>
<path d="M208.406 184.62L194.068 158.113L216.509 138.877L208.406 184.62ZM194.821 158.252L208.117 182.83L215.629 140.417L194.821 158.252Z" fill="#002B5B"/>
<path d="M66.5484 225.3L58.2495 198.327L84.4211 199.138L66.5484 225.3ZM59.0657 198.949L66.7538 223.939L83.3141 199.701L59.0657 198.949Z" fill="#002B5B"/>
<path d="M92.9746 226.768L83.4668 199.174L112.301 195.179L92.9746 226.768ZM84.2667 199.666L93.1258 225.375L111.133 195.944L84.2667 199.666Z" fill="#002B5B"/>
<path d="M258.045 123.26L247.478 80.1842L262.914 101.89L258.045 123.26ZM248.802 83.0794L258.026 120.665L262.273 102.018L248.802 83.0794Z" fill="#002B5B"/>
<path d="M67.0954 225.049L43.7832 218.775L58.7668 197.976L67.0954 225.049ZM44.7736 218.423L66.2068 224.191L58.55 199.3L44.7736 218.423Z" fill="#002B5B"/>
<path d="M122.139 223.251L111.32 195.367L141.207 186.584L122.139 223.251ZM112.112 195.756L122.218 221.803L140.029 187.552L112.112 195.756Z" fill="#002B5B"/>
<path d="M121.593 223.004L140.642 186.376L152.76 214.142L121.593 223.004ZM140.594 187.761L122.763 222.052L151.94 213.755L140.594 187.761Z" fill="#002B5B"/>
<path d="M230.782 165.071L215.704 139.617L215.841 139.456L232.891 119.073L230.782 165.071ZM216.435 139.677L230.276 163.045L232.214 120.815L216.435 139.677Z" fill="#002B5B"/>
<path d="M263.019 103.786L246.215 62.7309L261.632 83.7965L263.019 103.786ZM248.621 67.0282L262.166 100.123L261.048 84.0103L248.621 67.0282Z" fill="#002B5B"/>
<path d="M263.85 104.237L247.846 81.7331L247.841 81.6445L247.045 63.1809L263.85 104.237ZM248.434 81.5313L261.335 99.6707L247.79 66.5784L248.434 81.5313Z" fill="#002B5B"/>
<path d="M247.12 144.095L242.873 99.1298L258.38 121.94L258.302 122.097L247.12 144.095ZM243.688 101.388L247.521 141.987L257.689 121.984L243.688 101.388Z" fill="#002B5B"/>
<path d="M258.721 123.502L242.958 100.315L242.991 100.184L248.148 80.4136L258.721 123.502ZM243.604 100.203L257.349 120.423L248.132 82.85L243.604 100.203Z" fill="#002B5B"/>
<path d="M247.735 144.242L232.204 119.956L232.289 119.801L243.487 99.2577L247.735 144.242ZM232.899 119.931L246.907 141.839L243.075 101.26L232.899 119.931Z" fill="#002B5B"/>
<path d="M230.187 164.963L232.296 118.99L247.687 143.06L230.187 164.963ZM232.808 120.898L230.869 163.153L246.953 143.021L232.808 120.898Z" fill="#002B5B"/>
<path d="M14.3958 196.609L8.45532 172.199L21.0081 184.775L14.3958 196.609ZM9.54093 174.131L14.6158 194.988L20.2674 184.879L9.54093 174.131Z" fill="#002B5B"/>
<path d="M151.784 214.531L168.763 173.62L182.071 200.883L151.784 214.531ZM168.808 175.073L152.914 213.366L181.265 200.592L168.808 175.073Z" fill="#002B5B"/>
<path d="M44.7588 219.214L26.3361 208.809L37.4354 192.879L44.7588 219.214ZM27.2 208.612L43.798 217.985L37.1989 194.262L27.2 208.612Z" fill="#002B5B"/>
<path d="M14.2349 195.923L7.19229 180.774L7.21029 180.679L8.96762 171.775L14.7966 195.728L14.2349 195.923ZM7.81641 180.7L13.4991 192.922L9.0285 174.554L7.81641 180.7Z" fill="#002B5B"/>
<path d="M7.53068 182.142L1.47345 156.713L9.31088 173.125L7.53068 182.142ZM3.35893 162.048L7.47635 179.333L8.68692 173.203L3.35893 162.048Z" fill="#002B5B"/>
<path d="M44.1561 219.279L36.8933 193.163L59.161 198.452L44.1561 219.279ZM37.7408 193.977L44.3991 217.92L58.1558 198.825L37.7408 193.977Z" fill="#002B5B"/>
<path d="M152.357 214.712L140.226 186.917L169.349 173.763L152.357 214.712ZM141.011 187.218L152.342 213.185L168.22 174.928L141.011 187.218Z" fill="#002B5B"/>
<path d="M181.735 201.555L168.4 174.237L194.961 157.505L181.735 201.555ZM169.17 174.456L181.602 199.92L193.93 158.86L169.17 174.456Z" fill="#002B5B"/>
<path d="M248.418 66.571L223.056 35.6192L223.476 35.2005L241.962 50.4624L248.418 66.571ZM225.447 37.5942L246.417 63.1882L241.434 50.7551L225.447 37.5942Z" fill="#002B5B"/>
<path d="M241.493 50.8034L223.097 35.6602L214.391 25.456L214.822 25.0446L241.888 50.3552L241.493 50.8034ZM218.273 29.0905L223.516 35.2366L234.605 44.3615L218.273 29.0905Z" fill="#002B5B"/>
<path d="M247.222 65.1048L227.668 48.1834L222.392 33.8679L247.649 64.6912L247.222 65.1048ZM228.203 47.9048L244.998 62.3966L224.183 36.9927L228.203 47.9048Z" fill="#002B5B"/>
<path d="M3.76946 108.746L3.20773 108.544L8.83795 88.6731L9.41935 88.8036L7.42219 100.58L3.76946 108.746ZM7.91648 94.117L4.90939 104.735L6.86047 100.371L7.91648 94.117Z" fill="#002B5B"/>
<path d="M1.34529 122.729L0.763885 122.6L3.20117 108.573L6.87527 100.337L7.43699 100.537L1.34529 122.729ZM5.82749 104.144L3.76946 108.746L2.40954 116.598L5.82749 104.144Z" fill="#002B5B"/>
<path d="M83.3306 199.795L102.208 164.047L112.107 195.809L83.3306 199.795ZM102.064 165.598L84.4031 199.045L111.327 195.315L102.064 165.598Z" fill="#002B5B"/>
<path d="M83.7542 200.273L76.5573 168.558L102.678 164.436L83.7542 200.273ZM77.2816 169.047L83.981 198.566L101.594 165.21L77.2816 169.047Z" fill="#002B5B"/>
<path d="M9.30936 174.51L2.07941 159.371L9.05305 146.674L9.30936 174.51ZM2.75129 159.39L8.68692 171.819L8.4767 148.965L2.75129 159.39Z" fill="#002B5B"/>
<path d="M243.343 101.201L227.196 61.7573L248.474 81.5347L243.343 101.201ZM228.778 64.042L243.218 99.3166L247.807 81.7289L228.778 64.042Z" fill="#002B5B"/>
<path d="M168.359 174.967L177.17 129.964L194.856 158.277L168.359 174.967ZM177.464 131.564L169.211 173.725L194.033 158.089L177.464 131.564Z" fill="#002B5B"/>
<path d="M59.0198 199.031L36.8277 193.761L54.2404 167.935L59.0198 199.031ZM37.8049 193.38L58.2954 198.246L53.8823 169.536L37.8049 193.38Z" fill="#002B5B"/>
<path d="M58.4876 199.491L53.7115 168.436L77.4508 168.505L58.4876 199.491ZM54.4096 169.035L58.8292 197.786L76.388 169.099L54.4096 169.035Z" fill="#002B5B"/>
<path d="M84.2437 199.73L58.1362 198.92L77.0483 168.019L84.2437 199.73ZM59.1807 198.356L83.4915 199.11L76.7905 169.585L59.1807 198.356Z" fill="#002B5B"/>
<path d="M215.829 140.399L212.272 95.9084L232.943 119.941L215.829 140.399ZM213.014 97.6866L216.309 138.895L232.161 119.947L213.014 97.6866Z" fill="#002B5B"/>
<path d="M233.125 121.068L212.278 96.8295L223.069 78.5871L233.125 121.068ZM213.009 96.7656L231.979 118.819L222.829 80.167L213.009 96.7656Z" fill="#002B5B"/>
<path d="M140.131 187.616L153.827 144.482L169.193 174.488L140.131 187.616ZM153.957 146.048L141.107 186.521L168.377 174.203L153.957 146.048Z" fill="#002B5B"/>
<path d="M168.913 175.25L153.5 145.156L177.742 130.15L168.913 175.25ZM154.282 145.374L168.658 173.442L176.891 131.378L154.282 145.374Z" fill="#002B5B"/>
<path d="M244.141 101.57L222.612 79.459L227.947 62.0114L244.141 101.57ZM223.286 79.295L242.421 98.9487L228.027 63.7881L223.286 79.295Z" fill="#002B5B"/>
<path d="M232.441 120.772L222.409 78.3953L243.648 100.209L232.441 120.772ZM223.49 80.3587L232.664 119.116L242.912 100.309L223.49 80.3587Z" fill="#002B5B"/>
<path d="M20.9719 185.583L8.61292 173.202L19.6942 156.779L20.9719 185.583ZM9.38319 173.128L20.3052 184.07L19.1769 158.613L9.38319 173.128Z" fill="#002B5B"/>
<path d="M20.3774 185.717L19.1143 157.215L35.1049 164.755L20.3774 185.717ZM19.7566 158.177L20.8981 183.938L34.2081 164.992L19.7566 158.177Z" fill="#002B5B"/>
<path d="M37.6653 194.089L20.1985 184.933L34.8799 164.038L37.6653 194.089ZM21.077 184.72L36.969 193.05L34.433 165.711L21.077 184.72Z" fill="#002B5B"/>
<path d="M37.097 194.431L34.3213 164.504L54.5589 168.531L37.097 194.431ZM34.9915 165.245L37.5371 192.709L53.5636 168.94L34.9915 165.245Z" fill="#002B5B"/>
<path d="M8.7081 174.129L8.46021 147.13L19.8256 157.65L8.7081 174.129ZM9.06953 148.508L9.28799 172.2L19.0439 157.741L9.06953 148.508Z" fill="#002B5B"/>
<path d="M214.479 25.5273L183.287 9.35407L183.548 8.81819L202.749 17.457L214.778 25.0102L214.479 25.5273ZM193.072 13.7556L208.35 21.6766L202.468 17.9807L193.072 13.7556Z" fill="#002B5B"/>
<path d="M111.672 196.423L101.761 164.625L128.841 156.376L111.672 196.423ZM102.511 165.02L111.761 194.7L127.787 157.321L102.511 165.02Z" fill="#002B5B"/>
<path d="M0.30072 146.903L0.757333 122.646L1.35354 122.614L3.00407 135.936L2.98944 135.988L0.30072 146.903ZM1.27634 126.857L0.998842 141.571L2.39643 135.9L1.27634 126.857Z" fill="#002B5B"/>
<path d="M2.11725 159.415L0.346802 144.218L3.03047 133.328L2.71513 159.384L2.11725 159.415ZM0.951078 144.256L2.17309 154.721L2.37019 138.507L0.951078 144.256Z" fill="#002B5B"/>
<path d="M2.10077 160.572L2.41611 134.702L9.10233 147.824L2.10077 160.572ZM2.98439 137.133L2.72825 158.19L8.42742 147.814L2.98439 137.133Z" fill="#002B5B"/>
<path d="M228.633 49.0726L198.318 22.6599L223.526 35.2161L223.568 35.3275L228.633 49.0726ZM202.227 25.2732L227.264 47.0887L223.048 35.6437L202.227 25.2732Z" fill="#002B5B"/>
<path d="M223.154 35.6971L200.039 24.154L191.883 14.0791L223.453 35.1824L223.154 35.6971ZM200.463 23.7285L219.222 33.0722L194.825 16.7637L200.463 23.7285Z" fill="#002B5B"/>
<path d="M214.492 25.533L193.192 15.6722L183.264 9.34098L183.563 8.82558L214.755 24.998L214.492 25.533ZM193.498 15.1593L202.677 19.4074L189.213 12.4264L193.498 15.1593Z" fill="#002B5B"/>
<path d="M224.912 36.8746L193.187 15.669L193.48 15.1511L214.846 25.0693L224.912 36.8746ZM196.699 17.2981L221.663 33.9852L214.433 25.5051L196.699 17.2981Z" fill="#002B5B"/>
<path d="M216.45 140.662L196.853 114.248L197.012 114.068L212.886 96.0714L216.45 140.662ZM197.622 114.281L215.688 138.632L212.402 97.5236L197.622 114.281Z" fill="#002B5B"/>
<path d="M194.1 158.87L196.991 113.431L216.476 139.692L194.1 158.87ZM197.484 115.098L194.787 157.495L215.665 139.601L197.484 115.098Z" fill="#002B5B"/>
<path d="M194.683 159.129L176.926 130.701L197.579 113.593L194.683 159.129ZM177.709 130.827L194.205 157.236L196.894 114.936L177.709 130.827Z" fill="#002B5B"/>
<path d="M111.192 196.027L128.322 156.074L141.02 187.261L111.192 196.027ZM128.308 157.623L112.242 195.097L140.218 186.875L128.308 157.623Z" fill="#002B5B"/>
<path d="M140.653 187.946L127.93 156.695L154.379 144.717L140.653 187.946ZM128.7 157.001L140.584 186.19L153.405 145.813L128.7 157.001Z" fill="#002B5B"/>
<path d="M230.286 49.7201L203.393 34.7752L199.665 23.0419L230.286 49.7201ZM203.892 34.3696L225.611 46.4405L200.88 24.8914L203.892 34.3696Z" fill="#002B5B"/>
<path d="M249.489 83.2925L227.687 63.0291L227.646 47.0002L249.489 83.2925ZM228.285 62.7693L246.792 79.9712L228.249 49.161L228.285 62.7693Z" fill="#002B5B"/>
<path d="M248.49 82.7909L226.73 46.6347L247.712 64.7378L248.49 82.7909ZM229.167 49.5266L247.79 80.4727L247.125 65.0213L229.167 49.5266Z" fill="#002B5B"/>
<path d="M2.60178 137.563L0.747406 122.577L9.43583 109.817L2.60178 137.563ZM1.36833 122.726L2.7972 134.272L8.0628 112.896L1.36833 122.726Z" fill="#002B5B"/>
<path d="M0.294159 124.302L7.2382 99.0052L9.06129 111.428L0.294159 124.302ZM7.06094 101.911L1.8199 121L8.43717 111.285L7.06094 101.911Z" fill="#002B5B"/>
<path d="M2.06796 137.233L8.63764 110.555L14.5272 120.973L2.06796 137.233ZM8.8593 112.159L3.33101 134.602L13.8111 120.923L8.8593 112.159Z" fill="#002B5B"/>
<path d="M8.88889 148.72L2.34714 135.886L14.7177 119.743L8.88889 148.72ZM3.05014 135.95L8.64083 146.919L13.6222 122.154L3.05014 135.95Z" fill="#002B5B"/>
<path d="M101.653 165.281L116.297 124.511L128.707 157.041L101.653 165.281ZM116.313 126.232L102.619 164.364L127.922 156.656L116.313 126.232Z" fill="#002B5B"/>
<path d="M76.4094 169.185L94.2294 131.483L102.504 165.067L76.4094 169.185ZM94.0522 133.259L77.4311 168.419L101.768 164.578L94.0522 133.259Z" fill="#002B5B"/>
<path d="M19.6515 158.303L8.36166 147.853L23.9644 127.629L19.6515 158.303ZM9.16809 147.786L19.2179 157.088L23.0594 129.782L9.16809 147.786Z" fill="#002B5B"/>
<path d="M8.2204 149.016L13.9754 120.398L23.925 128.66L8.2204 149.016ZM14.3631 121.497L9.31089 146.624L23.1006 128.751L14.3631 121.497Z" fill="#002B5B"/>
<path d="M18.9732 158.833L23.2696 128.283L37.1397 133.98L18.9732 158.833ZM23.7541 129.128L19.8979 156.558L36.2085 134.242L23.7541 129.128Z" fill="#002B5B"/>
<path d="M34.9258 165.331L18.9813 157.811L37.0395 133.105L34.9258 165.331ZM19.888 157.58L34.3871 164.417L36.3087 135.116L19.888 157.58Z" fill="#002B5B"/>
<path d="M34.2853 165.977L36.3974 133.765L53.81 136.49L34.2853 165.977ZM36.9508 134.456L35.0277 163.771L52.7984 136.935L36.9508 134.456Z" fill="#002B5B"/>
<path d="M54.3686 169.101L34.162 165.08L53.5801 135.754L54.3686 169.101ZM35.1508 164.669L53.7542 168.37L53.0283 137.671L35.1508 164.669Z" fill="#002B5B"/>
<path d="M53.7872 169.812L52.997 136.422L73.2856 135.867L53.7872 169.812ZM53.6097 137.002L54.3356 167.66L72.2379 136.492L53.6097 137.002Z" fill="#002B5B"/>
<path d="M128.383 157.866L115.927 125.216L138.436 114.993L128.383 157.866ZM116.684 125.527L128.247 155.831L137.577 116.039L116.684 125.527Z" fill="#002B5B"/>
<path d="M77.2586 169.102L53.5473 169.032L72.9472 135.26L77.2586 169.102ZM54.5754 168.439L76.5803 168.503L72.5794 137.1L54.5754 168.439Z" fill="#002B5B"/>
<path d="M127.886 157.37L137.898 114.676L154.305 145.405L127.886 157.37ZM138.116 116.356L128.744 156.326L153.477 145.125L138.116 116.356Z" fill="#002B5B"/>
<path d="M76.7527 169.855L72.4299 135.936L94.6564 131.975L76.7527 169.855ZM73.0951 136.424L77.0862 167.75L93.6235 132.765L73.0951 136.424Z" fill="#002B5B"/>
<path d="M102.083 165.856L93.7827 132.17L116.791 124.906L102.083 165.856ZM94.4988 132.57L102.189 163.79L115.82 125.837L94.4988 132.57Z" fill="#002B5B"/>
<path d="M154.093 146.276L137.61 115.408L158.354 102.797L154.093 146.276ZM138.403 115.624L153.691 144.254L157.642 103.929L138.403 115.624Z" fill="#002B5B"/>
<path d="M153.536 145.836L157.78 102.534L177.744 130.851L153.536 145.836ZM158.217 104.192L154.248 144.694L176.891 130.677L158.217 104.192Z" fill="#002B5B"/>
<path d="M177.67 131.782L157.593 103.305L175.451 89.0387L177.67 131.782ZM158.404 103.42L176.965 129.746L174.914 90.2309L158.404 103.42Z" fill="#002B5B"/>
<path d="M177.049 131.373L174.84 88.8042L197.666 114.297L177.049 131.373ZM175.525 90.4654L177.584 130.154L196.807 114.233L175.525 90.4654Z" fill="#002B5B"/>
<path d="M197.77 115.308L174.778 89.6303L188.881 74.5167L197.77 115.308ZM175.587 89.6385L196.704 113.222L188.541 75.7582L175.587 89.6385Z" fill="#002B5B"/>
<path d="M197.07 114.905L188.221 74.2913L213.063 96.7746L212.868 96.9941L197.07 114.905ZM189.203 75.9836L197.403 113.625L212.224 96.8204L189.203 75.9836Z" fill="#002B5B"/>
<path d="M212.594 97.4694L197.375 59.7857L223.342 79.2992L212.594 97.4694ZM198.734 61.5532L212.694 96.1254L222.557 79.4548L198.734 61.5532Z" fill="#002B5B"/>
<path d="M213.408 97.8915L188.322 75.1886L198.116 60.0233L213.408 97.8915ZM189.101 75.0862L211.879 95.7035L197.993 61.3156L189.101 75.0862Z" fill="#002B5B"/>
<path d="M224.028 80.5611L197.699 60.7757L202.933 46.2667L224.028 80.5611ZM198.41 60.5634L221.87 78.1929L203.074 47.6368L198.41 60.5634Z" fill="#002B5B"/>
<path d="M223.041 80.0974L202.069 46.0012L228.338 62.7702L223.041 80.0974ZM203.94 47.9032L222.857 78.6567L227.635 63.0291L203.94 47.9032Z" fill="#002B5B"/>
<path d="M56.2672 27.0868L65.8604 20.3769L70.1749 24.8832L56.2672 27.0868ZM65.7832 21.1604L58.7307 26.0927L68.9563 24.4727L65.7832 21.1604Z" fill="#002B5B"/>
<path d="M65.8619 28.3136L55.6594 26.5796L70.5412 24.2211L65.8619 28.3136ZM59.3417 26.6001L65.6813 27.6777L68.59 25.1347L59.3417 26.6001Z" fill="#002B5B"/>
<path d="M48.9585 33.5819L57.4103 26.2723L67.0446 27.9088L48.9585 33.5819ZM57.5876 26.9074L51.5255 32.152L64.5005 28.0817L57.5876 26.9074Z" fill="#002B5B"/>
<path d="M50.2757 33.1632L50.1524 32.583L66.7127 27.3875L62.8762 31.7029L50.2757 33.1632ZM64.8321 28.6028L53.342 32.2078L62.5805 31.1367L64.8321 28.6028Z" fill="#002B5B"/>
<path d="M43.1542 40.2386L50.0949 32.5839L50.2067 32.5708L64.6942 30.8908L43.1542 40.2386ZM50.3874 33.1501L45.4568 38.589L60.7606 31.948L50.3874 33.1501Z" fill="#002B5B"/>
<path d="M44.386 39.701L44.1872 39.1398L63.5035 30.7572L60.741 35.0874L44.386 39.701ZM61.9499 32.0815L48.4888 37.9235L60.36 34.5752L61.9499 32.0815Z" fill="#002B5B"/>
<path d="M39.0154 46.8559L44.1182 39.1569L63.0437 33.8181L39.0154 46.8559ZM44.4945 39.6708L40.8368 45.189L58.0573 35.8446L44.4945 39.6708Z" fill="#002B5B"/>
<path d="M40.0387 46.2987L39.7823 45.7603L61.1056 34.19L59.5716 38.3334L40.0387 46.2987ZM59.9954 35.4725L44.8327 43.6994L59.1035 37.8802L59.9954 35.4725Z" fill="#002B5B"/>
<path d="M36.6733 53.2422L39.6954 45.7939L39.8119 45.7464L59.2251 37.8311L59.5026 38.357L36.6733 53.2422ZM40.1552 46.2512L37.9429 51.7007L56.5611 39.5617L40.1552 46.2512Z" fill="#002B5B"/>
<path d="M37.4453 52.7357L37.1446 52.2211L59.6718 37.5327L59.4434 41.3088L37.4453 52.7357ZM59.0033 38.6816L42.5301 49.4217L58.8686 40.9361L59.0033 38.6816Z" fill="#002B5B"/>
<path d="M36.243 59.1916L37.028 52.28L59.0181 40.8582L59.3383 41.3588L36.243 59.1916ZM37.5864 52.662L36.9969 57.855L56.3327 42.9248L37.5864 52.662Z" fill="#002B5B"/>
<path d="M20.5876 69.9456L20.205 69.4924L37.7031 51.6417L36.9033 58.6918L36.7899 58.7679L20.5876 69.9456ZM36.9132 53.3004L22.8081 67.6896L36.3383 58.3549L36.9132 53.3004Z" fill="#002B5B"/>
<path d="M36.7801 58.7753L36.4369 58.2868L59.3055 40.6296L60.3928 43.8853L36.7801 58.7753ZM59.005 41.6161L41.7778 54.9171L59.6767 43.6296L59.005 41.6161Z" fill="#002B5B"/>
<path d="M37.8099 64.4936L36.2774 58.386L59.8738 43.505L60.2367 43.9771L37.8099 64.4936ZM36.9624 58.6597L38.1449 63.3759L57.3676 45.7914L36.9624 58.6597Z" fill="#002B5B"/>
<path d="M38.1564 64.1732L37.7737 63.7151L60.0544 43.3338L62.4064 45.9431L38.1564 64.1732ZM60.0151 44.1812L42.7502 59.9718L61.526 45.8578L60.0151 44.1812Z" fill="#002B5B"/>
<path d="M41.4001 68.9295L37.5569 63.8765L61.7855 45.6628L62.1863 46.1012L41.4001 68.9295ZM38.3962 63.993L41.4428 67.9977L59.6077 48.0467L38.3962 63.993Z" fill="#002B5B"/>
<path d="M41.6202 68.6852L41.1998 68.2632L61.9006 45.5284L65.4152 47.3918L41.6202 68.6852ZM62.0285 46.2725L45.5718 64.3486L64.3789 47.518L62.0285 46.2725Z" fill="#002B5B"/>
<path d="M46.9893 72.2819L40.9272 68.5066L66.8491 45.3079L46.9893 72.2819ZM41.9174 68.4205L46.8364 71.4822L62.9451 49.6019L41.9174 68.4205Z" fill="#002B5B"/>
<path d="M47.1321 72.0844L46.6722 71.7059L64.7731 47.1197L69.3027 48.1695L47.1321 72.0844ZM65.021 47.7902L50.2855 67.8042L68.1647 48.5178L65.021 47.7902Z" fill="#002B5B"/>
<path d="M54.4538 74.3454L46.3635 72.0352L70.2341 46.2871L54.4538 74.3454ZM47.4605 71.7288L54.1632 73.6423L67.2351 50.4001L47.4605 71.7288Z" fill="#002B5B"/>
<path d="M54.5475 74.1725L54.0467 73.8471L68.5621 48.0393L73.9163 48.24L54.5475 74.1725ZM68.9053 48.6482L56.8321 70.1144L72.7569 48.7932L68.9053 48.6482Z" fill="#002B5B"/>
<path d="M63.5593 74.9633L53.7411 74.2519L74.3795 46.6199L63.5593 74.9633ZM54.8743 73.7357L63.1585 74.3363L72.292 50.4141L54.8743 73.7357Z" fill="#002B5B"/>
<path d="M63.6185 74.797L63.0797 74.5438L73.1215 48.24L79.0702 47.5944L63.6185 74.797ZM73.55 48.7932L65.0392 71.0871L77.9747 48.313L73.55 48.7932Z" fill="#002B5B"/>
<path d="M62.8203 74.9952L79.1424 46.2569L73.9624 74.0463L62.8203 74.9952ZM77.9007 49.6504L63.8977 74.3044L73.458 73.4906L77.9007 49.6504Z" fill="#002B5B"/>
<path d="M55.7317 106.626L63.1158 74.3716L74.2447 73.4235L55.7317 106.626ZM63.6021 74.9281L57.2476 102.68L73.1756 74.1134L63.6021 74.9281Z" fill="#002B5B"/>
<path d="M42.2575 105.267L54.1057 73.6799L63.906 74.3905L42.2575 105.267ZM54.5097 74.307L44.4697 101.071L62.8136 74.9091L54.5097 74.307Z" fill="#002B5B"/>
<path d="M23.4323 96.2084L41.3279 68.0535L47.3867 71.8254L23.4323 96.2084ZM41.5151 68.873L26.9733 91.7528L46.439 71.9385L41.5151 68.873Z" fill="#002B5B"/>
<path d="M20.8209 87.1384L20.3839 86.7351L37.9774 63.4398L41.8271 68.5026L20.8209 87.1384ZM37.9774 64.4297L22.6702 84.6995L41.0158 68.4239L37.9774 64.4297Z" fill="#002B5B"/>
<path d="M19.259 78.9303L18.8483 78.5002L36.7719 57.8951L38.3141 64.0502L38.1612 64.169L19.259 78.9303ZM36.4697 59.1506L21.335 76.5515L37.639 63.8191L36.4697 59.1506Z" fill="#002B5B"/>
<path d="M20.4546 87.6341L18.7465 78.5732L39.5869 62.2999L20.4546 87.6341ZM19.4018 78.8189L20.7913 86.1958L36.3677 65.5696L19.4018 78.8189Z" fill="#002B5B"/>
<path d="M5.87509 102.163L19.2129 77.8208L20.9457 87.0136L5.87509 102.163ZM18.9354 79.5713L8.42405 98.7537L20.3002 86.8163L18.9354 79.5713Z" fill="#002B5B"/>
<path d="M31.3781 101.701L46.7577 71.528L54.8332 73.8332L31.3781 101.701ZM47.0665 72.2361L34.2786 97.3284L53.7821 74.1535L47.0665 72.2361Z" fill="#002B5B"/>
<path d="M24.5885 60.5421L24.2304 60.0685L40.7038 44.9007L37.5471 52.6742L24.5885 60.5421ZM39.1468 47.1444L26.8386 58.4769L37.0676 52.2677L39.1468 47.1444Z" fill="#002B5B"/>
<path d="M28.5599 52.3137L45.7065 37.84L40.0632 46.2865L28.5599 52.3137ZM42.9046 40.9868L33.1061 49.2594L39.7183 45.7939L42.9046 40.9868Z" fill="#002B5B"/>
<path d="M37.4189 42.6004L50.0572 32.633L50.4629 33.0674L44.4204 39.6888L37.4189 42.6004ZM47.6166 35.3185L41.1932 40.3853L44.1298 39.1635L47.6166 35.3185Z" fill="#002B5B"/>
<path d="M50.3167 33.1968L48.8582 32.7953L57.3183 26.3525L57.696 26.8156L50.3167 33.1968Z" fill="#002B5B"/>
<path d="M25.206 94.5332L20.2329 86.8621L42.8158 66.8283L25.206 94.5332ZM21.0131 86.9678L25.1995 93.4278L40.027 70.0988L21.0131 86.9678Z" fill="#002B5B"/>
<path d="M69.5278 25.0701L65.0474 20.3917L74.7966 21.3636L69.5278 25.0701ZM66.5977 21.1456L69.6035 24.2859L73.1412 21.7978L66.5977 21.1456Z" fill="#002B5B"/>
<path d="M7.63242 112.969L20.5859 86.3081L25.5806 94.0145L7.63242 112.969ZM20.6599 87.5218L9.86435 109.744L24.8251 93.9457L20.6599 87.5218Z" fill="#002B5B"/>
<path d="M229.533 64.2404L202.697 47.11L203.382 33.8115L229.533 64.2404ZM203.313 46.7945L226.441 61.5583L203.902 35.3332L203.313 46.7945Z" fill="#002B5B"/>
<path d="M228.289 63.7085L202.327 33.4992L228.246 47.9049L228.289 63.7085ZM204.957 35.6446L227.686 62.0908L227.65 48.2556L204.957 35.6446Z" fill="#002B5B"/>
<path d="M74.2185 21.9052L64.86 20.9726L75.3386 15.0035L74.2185 21.9052ZM66.7817 20.5646L73.7192 21.2562L74.547 16.1409L66.7817 20.5646Z" fill="#002B5B"/>
<path d="M204.162 35.221L171.558 16.1901L200.509 23.7196L204.162 35.221ZM175.599 17.8578L203.122 33.923L200.038 24.2137L175.599 17.8578Z" fill="#002B5B"/>
<path d="M32.9352 99.9624L24.7462 94.0187L48.0618 70.2873L32.9352 99.9624ZM25.6593 93.9425L32.7218 99.0683L45.7639 73.4767L25.6593 93.9425Z" fill="#002B5B"/>
<path d="M206.261 35.7553L175.397 25.5159L173.117 16.409L206.261 35.7553ZM175.896 25.0528L201.023 33.3894L174.04 17.639L175.896 25.0528Z" fill="#002B5B"/>
<path d="M73.573 22.1494L74.731 15.0077L79.346 18.8527L73.573 22.1494ZM75.1546 16.1369L74.363 21.0112L78.3015 18.7609L75.1546 16.1369Z" fill="#002B5B"/>
<path d="M13.21 122.506L25.0698 93.5155L33.2687 99.4649L13.21 122.506ZM25.3342 94.4456L15.13 119.391L32.3899 99.5649L25.3342 94.4456Z" fill="#002B5B"/>
<path d="M200.197 24.2547L173.401 17.2859L167.72 9.60565L200.391 23.6926L200.197 24.2547ZM173.756 16.7622L196.571 22.696L169.517 11.0307L173.756 16.7622Z" fill="#002B5B"/>
<path d="M201.268 24.7202L165.818 9.43597L193.519 15.1511L201.268 24.7202ZM171.419 11.2004L199.277 23.2131L193.187 15.692L171.419 11.2004Z" fill="#002B5B"/>
<path d="M193.292 15.7133L168.453 10.5661L159.244 4.41183L193.443 15.1371L193.292 15.7133ZM168.735 10.0383L187.6 13.9301L163.029 6.22523L168.735 10.0383Z" fill="#002B5B"/>
<path d="M78.8731 19.237L74.3877 15.4985L85.528 10.3908L78.8731 19.237ZM75.4979 15.646L78.7745 18.3757L83.6328 11.9158L75.4979 15.646Z" fill="#002B5B"/>
<path d="M195.411 16.3786L161.047 5.60242L161.187 5.02391L183.586 8.83868L195.411 16.3786ZM165.398 6.34255L191.297 14.4635L183.316 9.37372L165.398 6.34255Z" fill="#002B5B"/>
<path d="M43.5419 103.546L32.321 99.6551L55.1978 72.4729L43.5419 103.546ZM33.3359 99.3756L43.187 102.791L53.4192 75.5148L33.3359 99.3756Z" fill="#002B5B"/>
<path d="M77.8761 19.5688L85.0058 10.0932L84.2453 16.65L77.8761 19.5688ZM84.1584 12.2132L79.7715 18.0438L83.6887 16.2475L84.1584 12.2132Z" fill="#002B5B"/>
<path d="M22.7161 130.215L32.6363 99.133L43.8555 103.023L22.7161 130.215ZM33.0206 99.8976L24.3076 127.195L42.8717 103.314L33.0206 99.8976Z" fill="#002B5B"/>
<path d="M183.376 9.38445L161.087 5.61231L151.459 2.37538L151.618 1.8009L183.491 8.79839L183.376 9.38445ZM156.849 3.56026L161.233 5.03615L171.393 6.75305L156.849 3.56026Z" fill="#002B5B"/>
<path d="M183.362 9.38109L151.49 2.38361L151.598 1.79771L171.156 4.73624L183.52 8.80661L183.362 9.38109ZM160.285 3.70375L177.778 7.5447L170.992 5.31072L160.285 3.70375Z" fill="#002B5B"/>
<path d="M83.5835 17.1605L84.306 10.9349L95.9047 6.80878L83.5835 17.1605ZM84.8563 11.3716L84.3504 15.737L92.9894 8.47969L84.8563 11.3716Z" fill="#002B5B"/>
<path d="M56.7204 104.979L42.8306 103.409L63.9912 73.2276L56.7204 104.979ZM43.8966 102.929L56.2572 104.327L62.7267 76.072L43.8966 102.929Z" fill="#002B5B"/>
<path d="M82.5159 17.2802L96.2596 5.73114L89.4073 14.8398L82.5159 17.2802ZM92.6347 9.55732L85.4198 15.6181L89.0378 14.3381L92.6347 9.55732Z" fill="#002B5B"/>
<path d="M36.0524 135.57L43.128 102.842L57.011 104.412L36.0524 135.57ZM43.5992 103.496L37.2958 132.652L55.9681 104.894L43.5992 103.496Z" fill="#002B5B"/>
<path d="M88.0129 15.7009L94.2721 7.38074L106.009 4.40529L88.0129 15.7009ZM94.6236 7.90772L90.4322 13.4768L102.481 5.91475L94.6236 7.90772Z" fill="#002B5B"/>
<path d="M55.9633 104.982L74.0969 72.4598L71.975 104.062L55.9633 104.982ZM73.3218 75.0764L57.0144 104.324L71.4133 103.497L73.3218 75.0764Z" fill="#002B5B"/>
<path d="M87.4759 15.3338L104.087 4.90759L104.437 5.38943L94.484 13.581L87.4759 15.3338ZM100.533 7.84293L90.9709 13.8448L94.2738 13.0188L100.533 7.84293Z" fill="#002B5B"/>
<path d="M52.864 138.112L56.2179 104.37L72.2197 103.45L52.864 138.112ZM56.7598 104.936L53.7428 135.312L71.1669 104.108L56.7598 104.936Z" fill="#002B5B"/>
<path d="M71.272 105.607L73.4269 73.5242L85.4033 70.9347L71.272 105.607ZM73.9935 74.0127L72.1162 101.951L84.4228 71.7566L73.9935 74.0127Z" fill="#002B5B"/>
<path d="M92.2553 14.6864L104.12 4.87723L115.492 3.23166L92.2553 14.6864ZM104.373 5.44348L96.5683 11.8954L111.852 4.36098L104.373 5.44348Z" fill="#002B5B"/>
<path d="M71.2081 104.179L85.0748 70.1545L88.6191 100.729L71.2081 104.179ZM84.7495 72.5368L72.1786 103.38L87.9605 100.252L84.7495 72.5368Z" fill="#002B5B"/>
<path d="M104.288 5.45573L104.192 4.86665L127.78 0.635666L127.895 1.22156L113.731 4.08893L104.288 5.45573Z" fill="#002B5B"/>
<path d="M92.6233 13.8398L113.539 3.52922L113.83 4.05033L99.3965 12.9017L92.6233 13.8398ZM108.091 6.8801L96.2003 12.7426L99.252 12.3198L108.091 6.8801Z" fill="#002B5B"/>
<path d="M72.5071 137.515L71.387 103.536L88.7899 100.087L72.5071 137.515ZM72.0012 104.023L73.0164 134.844L87.7881 100.895L72.0012 104.023Z" fill="#002B5B"/>
<path d="M88.1821 102.167L84.5886 71.1397L96.8689 67.0102L88.1821 102.167ZM85.2374 71.551L88.3957 98.8134L96.028 67.9224L85.2374 71.551Z" fill="#002B5B"/>
<path d="M99.4654 12.8844L99.1993 12.3517L113.583 3.49967L124.087 3.29408L99.4654 12.8844ZM113.759 4.09295L102.323 11.1299L120.743 3.95617L113.759 4.09295Z" fill="#002B5B"/>
<path d="M87.8701 100.942L96.4074 66.3849L105.825 95.0774L87.8701 100.942ZM96.4895 68.5484L88.7077 100.04L105.071 94.6964L96.4895 68.5484Z" fill="#002B5B"/>
<path d="M113.677 4.09463L113.636 3.50052L140.274 0.349686L140.358 0.939606L122.462 3.91925L113.677 4.09463ZM127.856 2.41886L119.736 3.37918L122.41 3.32681L127.856 2.41886Z" fill="#002B5B"/>
<path d="M97.7311 12.9188L122.306 3.34729L122.544 3.89391L103.88 12.8639L97.7311 12.9188ZM115.397 6.67854L100.98 12.2936L103.808 12.2681L115.397 6.67854Z" fill="#002B5B"/>
<path d="M94.0685 133.64L87.949 100.288L105.9 94.426L94.0685 133.64ZM88.6305 100.693L94.2114 131.101L104.997 95.3487L88.6305 100.693Z" fill="#002B5B"/>
<path d="M105.638 96.4255L96.0821 67.3061L108.098 61.8213L105.638 96.4255ZM96.8145 67.6265L105.258 93.3491L107.429 62.7826L96.8145 67.6265Z" fill="#002B5B"/>
<path d="M103.962 12.8516L103.747 12.2976L122.367 3.31775L131.566 4.58134L103.962 12.8516ZM122.462 3.93234L107.395 11.2004L128.762 4.79851L122.462 3.93234Z" fill="#002B5B"/>
<path d="M130.162 4.99033L122.374 3.92093L122.4 3.32765L151.539 1.7952L151.592 2.38847L130.162 4.99033ZM125.57 3.75779L130.167 4.38967L142.851 2.849L125.57 3.75779Z" fill="#002B5B"/>
<path d="M105.115 95.3667L107.533 61.3141L122.692 87.3621L105.115 95.3667ZM107.993 63.2898L105.782 94.407L121.845 87.0932L107.993 63.2898Z" fill="#002B5B"/>
<path d="M107.842 13.4901L102.533 12.6566L130.08 4.40445L130.27 4.96819L107.842 13.4901ZM105.22 12.4747L107.778 12.8753L122.311 7.35372L105.22 12.4747Z" fill="#002B5B"/>
<path d="M116.418 126.581L105.076 94.7291L122.65 86.7268L116.418 126.581ZM105.822 95.0446L116.192 124.162L121.887 87.7291L105.822 95.0446Z" fill="#002B5B"/>
<path d="M122.751 88.6502L107.355 62.195L118.55 55.6129L122.751 88.6502ZM108.17 62.4088L121.787 85.8049L118.072 56.5873L108.17 62.4088Z" fill="#002B5B"/>
<path d="M107.873 13.4745L107.704 12.904L130.162 4.37155L137.702 7.07512L107.873 13.4745ZM130.168 5.0083L111.583 12.0682L135.531 6.93011L130.168 5.0083Z" fill="#002B5B"/>
<path d="M122.03 87.7185L117.893 55.1868L138.325 77.9856L122.03 87.7185ZM118.727 57.0135L122.508 86.7376L137.395 77.8446L118.727 57.0135Z" fill="#002B5B"/>
<path d="M136.574 7.30454L128.345 4.35527L161.142 5.02071L161.157 5.61634L136.574 7.30454ZM131.985 5.02474L136.659 6.70052L154.423 5.4804L131.985 5.02474Z" fill="#002B5B"/>
<path d="M110.982 14.7634L106.786 13.0975L136.554 6.71126L136.7 7.28893L110.982 14.7634ZM108.834 13.2679L111.011 14.1325L128.523 9.04342L108.834 13.2679Z" fill="#002B5B"/>
<path d="M138.31 116.676L121.868 87.1202L138.157 77.3906L138.31 116.676ZM122.671 87.3357L137.704 114.356L137.563 78.4402L122.671 87.3357Z" fill="#002B5B"/>
<path d="M14.5666 76.8955L14.0871 76.545L24.178 60.1316L24.7067 60.4036L20.6435 69.8955L14.5666 76.8955ZM22.5782 63.8716L16.5013 73.757L20.1606 69.5408L22.5782 63.8716Z" fill="#002B5B"/>
<path d="M9.3832 88.9059L8.85107 88.6356L14.115 76.5055L20.1934 69.5055L20.6764 69.8529L9.3832 88.9059ZM14.5962 76.8611L11.2704 84.5496L18.4739 72.3959L14.5962 76.8611Z" fill="#002B5B"/>
<path d="M138.653 79.2475L117.87 56.0562L127.739 48.6858L138.653 79.2475ZM118.75 56.1439L137.066 76.5834L127.449 49.6479L118.75 56.1439Z" fill="#002B5B"/>
<path d="M7.63074 90.6891L20.9391 68.2354L19.3558 78.8362L7.63074 90.6891ZM19.8979 71.1658L10.62 86.8186L18.7941 78.5559L19.8979 71.1658Z" fill="#002B5B"/>
<path d="M111.034 14.7438L110.913 14.1612L136.674 6.67519L142.266 10.7325L111.034 14.7438ZM136.559 7.32989L114.766 13.6629L140.698 10.3325L136.559 7.32989Z" fill="#002B5B"/>
<path d="M6.55826 102.156L8.8462 88.6109L20.3611 76.9717L6.55826 102.156ZM9.40456 88.8969L7.73755 98.7602L17.7891 80.4201L9.40456 88.8969Z" fill="#002B5B"/>
<path d="M137.717 78.4035L126.972 48.313L151.907 67.4585L137.717 78.4035ZM128.217 50.0208L138.003 77.4274L150.93 67.4593L128.217 50.0208Z" fill="#002B5B"/>
<path d="M141.386 10.8308L135.542 6.5916L168.65 10.0219L168.62 10.6168L141.386 10.8308ZM137.692 7.41346L141.58 10.2333L163.253 10.063L137.692 7.41346Z" fill="#002B5B"/>
<path d="M113.226 16.6491L110.269 14.2406L141.445 10.2367L141.542 10.8243L113.226 16.6491ZM111.724 14.6553L113.383 16.0075L133.647 11.8396L111.724 14.6553Z" fill="#002B5B"/>
<path d="M158.51 104.489L137.438 77.8634L151.625 66.9233L158.51 104.489ZM138.282 77.9675L157.488 102.236L151.214 67.9944L138.282 77.9675Z" fill="#002B5B"/>
<path d="M8.59493 112.359L6.83087 100.354L21.6749 85.4354L8.59493 112.359ZM7.4666 100.562L8.90371 110.354L19.5726 88.3946L7.4666 100.562Z" fill="#002B5B"/>
<path d="M152.571 68.7197L127.136 49.1923L135.253 41.3728L152.571 68.7197ZM128.051 49.1414L150.268 66.1981L135.142 42.3111L128.051 49.1414Z" fill="#002B5B"/>
<path d="M113.314 16.627L113.245 16.0369L141.622 10.1989L145.042 15.483L113.314 16.627ZM141.343 10.8652L116.858 15.9018L143.968 14.9248L141.343 10.8652Z" fill="#002B5B"/>
<path d="M14.2119 121.632L8.38135 111.312L8.53254 111.152L26.0831 92.6156L14.2119 121.632ZM9.11714 111.401L14.1264 120.265L24.3208 95.3454L9.11714 111.401Z" fill="#002B5B"/>
<path d="M173.561 17.3219L144.336 15.4919L140.846 10.0997L173.639 16.731L173.561 17.3219ZM144.674 14.9151L169.261 16.4549L142.118 10.9652L144.674 14.9151Z" fill="#002B5B"/>
<path d="M151.368 67.9363L134.337 41.0401L162.796 56.3504L151.368 67.9363ZM136.058 42.6446L151.47 66.9815L161.812 56.4987L136.058 42.6446Z" fill="#002B5B"/>
<path d="M175.932 90.7432L150.991 67.4676L162.415 55.8867L162.583 56.3168L175.932 90.7432ZM151.846 67.4503L174.431 88.5265L162.194 56.9626L151.846 67.4503Z" fill="#002B5B"/>
<path d="M114.457 19.0879L112.813 16.0476L144.495 14.9052L144.541 15.4993L114.457 19.0879ZM113.797 16.609L114.789 18.4471L137.31 15.7616L113.797 16.609Z" fill="#002B5B"/>
<path d="M23.6621 129.218L13.7438 120.983L33.5527 98.2284L23.6621 129.218ZM14.5961 120.914L23.3616 128.193L32.1042 100.802L14.5961 120.914Z" fill="#002B5B"/>
<path d="M163.887 57.6156L134.747 41.9398L140.788 34.0171L163.887 57.6156ZM135.647 41.7448L160.722 55.2335L140.844 34.9284L135.647 41.7448Z" fill="#002B5B"/>
<path d="M145.837 21.2079L114.603 19.0649L114.589 18.4716L144.753 14.8742L145.837 21.2079ZM117.814 18.6879L145.119 20.5612L144.259 15.5329L117.814 18.6879Z" fill="#002B5B"/>
<path d="M36.8901 134.521L23.0348 128.832L43.9327 101.95L36.8901 134.521ZM23.9891 128.579L36.4581 133.699L42.7945 104.388L23.9891 128.579Z" fill="#002B5B"/>
<path d="M175.604 25.5798L145.219 21.148L144.129 14.7676L175.738 25.0005L175.604 25.5798ZM145.735 20.6203L172.189 24.4784L144.884 15.6395L145.735 20.6203Z" fill="#002B5B"/>
<path d="M162.343 56.8904L139.666 33.7263L170.55 45.2367L162.343 56.8904ZM141.964 35.2184L162.267 55.9595L169.616 45.525L141.964 35.2184Z" fill="#002B5B"/>
<path d="M114.605 21.9879L114.296 18.4462L145.499 20.5867L145.485 21.1824L114.605 21.9879ZM114.952 19.0887L115.154 21.3775L139.169 20.7505L114.952 19.0887Z" fill="#002B5B"/>
<path d="M189.756 76.2434L161.89 56.4955L170.098 44.8416L189.756 76.2434ZM162.721 56.3537L187.666 74.0307L170.069 45.9209L162.721 56.3537Z" fill="#002B5B"/>
<path d="M53.5704 137.056L36.1641 134.332L56.9044 103.502L53.5704 137.056ZM37.1841 133.889L53.0381 136.369L56.0733 105.804L37.1841 133.889Z" fill="#002B5B"/>
<path d="M172.187 46.4838L140.402 34.6374L144.147 26.9443L172.187 46.4838ZM141.228 34.3081L167.978 44.2787L144.378 27.8333L141.228 34.3081Z" fill="#002B5B"/>
<path d="M174.782 35.3029L143.59 20.3081L175.977 25.0307L174.782 35.3029ZM147.368 21.4611L174.285 34.4023L175.316 25.538L147.368 21.4611Z" fill="#002B5B"/>
<path d="M52.7868 137.024L71.957 102.695L73.0705 136.47L52.7868 137.024ZM71.4297 104.864L53.8199 136.4L72.4529 135.89L71.4297 104.864Z" fill="#002B5B"/>
<path d="M204.925 48.0925L174.211 35.039L175.411 24.7177L204.925 48.0925ZM174.856 34.6653L201.084 45.8112L175.881 25.851L174.856 34.6653Z" fill="#002B5B"/>
<path d="M177.259 35.8315L143.919 27.6104L145.256 20.4466L177.259 35.8315ZM144.608 27.1672L171.808 33.873L145.701 21.3225L144.608 27.1672Z" fill="#002B5B"/>
<path d="M170.213 45.8365L142.772 26.7139L174.945 34.6465L170.213 45.8365ZM145.755 28.0635L169.951 44.9252L174.122 35.0578L145.755 28.0635Z" fill="#002B5B"/>
<path d="M199.478 61.7869L169.703 45.5128L174.441 34.3065L199.478 61.7869ZM170.463 45.2489L196.633 59.5522L174.628 35.398L170.463 45.2489Z" fill="#002B5B"/>
<path d="M72.2657 136.571L88.4055 99.4731L94.4889 132.612L72.2657 136.571ZM88.1724 101.509L73.2594 135.788L93.7926 132.129L88.1724 101.509Z" fill="#002B5B"/>
<path d="M73.2332 74.1765L84.3291 45.181L85.2193 71.5846L73.2332 74.1765ZM83.8314 48.1541L74.1857 73.3604L84.6051 71.1068L83.8314 48.1541Z" fill="#002B5B"/>
<path d="M93.6907 132.825L105.424 93.9301L116.691 125.563L93.6907 132.825ZM105.472 95.8437L94.5908 131.915L115.921 125.18L105.472 95.8437Z" fill="#002B5B"/>
<path d="M73.9886 73.875L73.417 73.7135L78.2638 47.7073L84.559 46.2504L73.9886 73.875ZM78.7811 48.1999L74.6062 70.5889L83.6015 47.0845L78.7811 48.1999Z" fill="#002B5B"/>
<path d="M84.7068 74.1339L83.7739 46.4568L90.1596 44.2589L84.7068 74.1339ZM84.3866 46.8772L85.1175 68.5574L89.3877 45.1546L84.3866 46.8772Z" fill="#002B5B"/>
<path d="M84.5279 71.7895L89.7063 43.4141L96.8145 67.6575L84.5279 71.7895ZM89.8411 46.0003L85.2981 70.9019L96.0821 67.2757L89.8411 46.0003Z" fill="#002B5B"/>
<path d="M115.926 125.872L122.108 86.3237L138.425 115.654L115.926 125.872ZM122.429 88.1316L116.688 124.871L137.589 115.378L122.429 88.1316Z" fill="#002B5B"/>
<path d="M96.8524 69.9071L89.4141 44.5434L95.6386 41.6973L96.8524 69.9071ZM90.1334 44.8703L96.0443 65.0263L95.0803 42.6093L90.1334 44.8703Z" fill="#002B5B"/>
<path d="M89.5683 45.1284L84.9401 26.0174L95.8029 42.2784L89.5683 45.1284ZM86.3131 29.1486L89.979 44.2853L94.9159 42.0276L86.3131 29.1486Z" fill="#002B5B"/>
<path d="M95.2674 42.5521L84.3686 26.2354L101.128 39.1512L95.2674 42.5521ZM86.8863 28.9305L95.4514 41.7539L100.058 39.0815L86.8863 28.9305Z" fill="#002B5B"/>
<path d="M100.587 39.4897L83.6591 26.4426L105.856 35.6577L100.587 39.4897ZM87.5959 28.7233L100.599 38.7439L104.646 35.8012L87.5959 28.7233Z" fill="#002B5B"/>
<path d="M119.92 58.0559L100.129 39.0847L105.332 35.3012L119.92 58.0559ZM101.057 39.1478L116.704 54.1444L105.169 36.1568L101.057 39.1478Z" fill="#002B5B"/>
<path d="M108.745 64.4674L94.9438 42.0489L100.766 38.6702L108.745 64.4674ZM95.7733 42.2579L106.781 60.1364L100.418 39.5625L95.7733 42.2579Z" fill="#002B5B"/>
<path d="M105.312 36.0781L82.7951 26.7303L109.773 31.9594L105.312 36.0781ZM88.4598 28.4356L105.188 35.3799L108.502 32.3209L88.4598 28.4356Z" fill="#002B5B"/>
<path d="M109.257 32.4667L109.08 32.4332L85.5708 27.8759L85.638 27.2851L112.713 28.225L109.257 32.4667ZM89.4141 28.0129L109.019 31.8135L111.491 28.7798L89.4141 28.0129Z" fill="#002B5B"/>
<path d="M112.276 28.8077L85.6167 27.8809L85.6004 27.286L114.567 24.621L112.276 28.8077ZM90.3468 27.4481L111.928 28.198L113.505 25.3183L90.3468 27.4481Z" fill="#002B5B"/>
<path d="M85.6545 27.8801L85.5674 27.2909L115.287 21.2955L114.273 25.2479L85.6545 27.8801ZM114.472 22.0692L91.1303 26.777L113.799 24.6915L114.472 22.0692Z" fill="#002B5B"/>
<path d="M85.6858 27.8751L85.5412 27.2974L114.889 18.3749L115.2 21.9216L85.6858 27.8751ZM114.359 19.16L91.6494 26.064L114.559 21.443L114.359 19.16Z" fill="#002B5B"/>
<path d="M144.239 27.6858L113.659 25.2388L114.661 21.3358L144.319 27.0958L144.239 27.6858ZM114.415 24.7004L138.982 26.6672L115.098 22.0289L114.415 24.7004Z" fill="#002B5B"/>
<path d="M140.755 34.7645L111.647 28.7127L113.896 24.6029L140.916 34.1917L140.755 34.7645ZM112.559 28.2931L136.587 33.2886L114.175 25.3363L112.559 28.2931Z" fill="#002B5B"/>
<path d="M135.092 42.1218L108.643 32.274L112.031 28.1169L135.347 41.5842L135.092 42.1218ZM109.632 32.0062L131.969 40.3215L112.174 28.8881L109.632 32.0062Z" fill="#002B5B"/>
<path d="M129.943 50.928L104.756 35.7798L109.139 31.7341L129.943 50.928ZM105.746 35.6783L125.244 47.4057L109.139 32.5461L105.746 35.6783Z" fill="#002B5B"/>
<path d="M96.1692 67.9224L95.0113 41.0188L108.195 62.4327L96.1692 67.9224ZM95.7076 43.2879L96.7293 67.0111L107.332 62.1712L95.7076 43.2879Z" fill="#002B5B"/>
<path d="M137.71 116.045L137.558 77.0521L158.442 103.442L137.71 116.045ZM138.162 78.7788L138.303 114.987L157.554 103.284L138.162 78.7788Z" fill="#002B5B"/>
<path d="M107.589 62.7505L99.9664 38.1023L118.803 56.157L107.589 62.7505ZM101.22 40.1305L107.937 61.8532L117.821 56.0431L101.22 40.1305Z" fill="#002B5B"/>
<path d="M157.794 103.908L150.961 66.6242L175.64 89.6524L157.794 103.908ZM151.876 68.2936L158.201 102.817L174.727 89.6172L151.876 68.2936Z" fill="#002B5B"/>
<path d="M118.233 56.5315L104.311 34.8153L128.129 49.1399L118.233 56.5315ZM106.191 36.6428L118.389 55.6695L127.059 49.1939L106.191 36.6428Z" fill="#002B5B"/>
<path d="M175.075 90.1868L161.666 55.6072L189.163 75.091L175.075 90.1868ZM162.943 57.242L175.288 89.083L188.26 75.1828L162.943 57.242Z" fill="#002B5B"/>
<path d="M127.6 49.5774L127.391 49.3856L107.822 31.3317L135.746 41.7276L127.6 49.5774ZM110.455 32.9486L127.59 48.7571L134.649 41.9563L110.455 32.9486Z" fill="#002B5B"/>
<path d="M188.707 75.6942L169.223 44.5713L198.479 60.5617L188.707 75.6942ZM170.943 46.1905L188.717 74.5805L197.63 60.7772L170.943 46.1905Z" fill="#002B5B"/>
<path d="M135.276 42.2315L110.346 27.8326L141.34 34.2769L135.276 42.2315ZM113.859 29.1724L135.119 41.4523L140.29 34.6678L113.859 29.1724Z" fill="#002B5B"/>
<path d="M198.167 61.2371L173.393 34.0433L203.382 46.7879L198.167 61.2371ZM175.676 35.6619L197.942 60.102L202.628 47.1166L175.676 35.6619Z" fill="#002B5B"/>
<path d="M140.967 34.8432L111.796 24.4915L144.723 27.1269L140.967 34.8432ZM116.277 25.4479L140.663 34.1024L143.804 27.6513L116.277 25.4479Z" fill="#002B5B"/>
<path d="M203.273 47.5459L174.135 24.4686L203.952 34.3605L203.273 47.5459ZM177.157 26.1001L202.736 46.3585L203.332 34.7834L177.157 26.1001Z" fill="#002B5B"/>
<path d="M144.502 27.7391L144.206 27.6817L112.145 21.4552L145.84 20.5768L144.502 27.7391ZM117.614 21.9094L144.024 27.0384L145.117 21.1923L117.614 21.9094Z" fill="#002B5B"/>
<path d="M176.067 25.7339L142.161 14.7577L173.817 16.7401L176.067 25.7339ZM146.852 15.6494L175.226 24.8348L173.342 17.308L146.852 15.6494Z" fill="#002B5B"/>
<path d="M85.7152 27.8685L85.5149 27.3065L113.439 15.9509L115.062 18.946L85.7152 27.8685ZM113.17 16.7057L91.8052 25.3929L114.188 18.5887L113.17 16.7057Z" fill="#002B5B"/>
<path d="M174.28 17.4701L138.614 10.2572L168.768 10.0187L174.28 17.4701ZM144.349 10.8078L172.877 16.5778L168.469 10.6177L144.349 10.8078Z" fill="#002B5B"/>
<path d="M85.74 27.8588L85.4887 27.3187L111.034 14.0922L113.882 16.4155L85.74 27.8588ZM110.959 14.8037L91.5508 24.853L112.726 16.2418L110.959 14.8037Z" fill="#002B5B"/>
<path d="M169.785 10.739L136.585 7.29884L136.597 6.70472L161.218 5.01418L169.785 10.739ZM140.092 7.06287L167.451 9.89818L161.055 5.62306L140.092 7.06287Z" fill="#002B5B"/>
<path d="M85.7645 27.8472L85.4656 27.3335L107.776 12.8483L111.714 14.4119L85.7645 27.8472ZM107.842 13.5171L90.8922 24.5218L110.279 14.4839L107.842 13.5171Z" fill="#002B5B"/>
<path d="M85.7909 27.8326L85.436 27.3531L103.792 12.2501L108.627 13.0081L85.7909 27.8326ZM103.964 12.8818L89.9018 24.4522L106.994 13.3573L103.964 12.8818Z" fill="#002B5B"/>
<path d="M163.074 5.65662L130.159 4.98782L130.129 4.39454L151.585 1.78865L163.074 5.65662ZM134.389 4.47728L159.199 4.98043L151.523 2.3967L134.389 4.47728Z" fill="#002B5B"/>
<path d="M85.8171 27.8128L85.4064 27.381L99.2224 12.309L104.718 12.2599L85.8171 27.8128ZM99.4884 12.9032L88.7176 24.6537L103.036 12.8721L99.4884 12.9032Z" fill="#002B5B"/>
<path d="M122.429 3.92261L122.365 3.33084L140.302 0.343811L140.348 0.349685L151.592 1.79688L151.571 2.39016L122.429 3.92261ZM140.315 0.946151L127.692 3.04905L148.248 1.96806L140.315 0.946151Z" fill="#002B5B"/>
<path d="M85.8483 27.7841L85.3737 27.427L94.2311 13.0148L100.136 12.1968L85.8483 27.7841ZM94.5925 13.5671L87.5153 25.0799L98.5752 13.0148L94.5925 13.5671Z" fill="#002B5B"/>
<path d="M84.7758 29.5379L88.9803 14.3423L95.049 12.8238L84.7758 29.5379ZM89.4648 14.8364L86.4789 25.6282L93.7745 13.7579L89.4648 14.8364Z" fill="#002B5B"/>
<path d="M113.707 4.09212L113.613 3.50387L127.828 0.630632L140.302 0.347168L140.345 0.941284L113.707 4.09212ZM127.869 1.22643L120.856 2.64576L134.043 1.08629L127.869 1.22643Z" fill="#002B5B"/>
<path d="M85.5395 29.0208L83.636 16.25L89.6636 14.1169L85.5395 29.0208ZM84.2995 16.6483L85.7152 26.1452L88.7834 15.0618L84.2995 16.6483Z" fill="#002B5B"/>
<path d="M104.299 5.45338L104.181 4.869L114.51 2.5647L127.79 0.633987L127.889 1.22324L104.299 5.45338Z" fill="#002B5B"/>
<path d="M86.0915 28.6692L78.3573 18.6921L84.2043 16.0124L86.0915 28.6692ZM79.2902 18.9207L85.1634 26.4969L83.7312 16.8859L79.2902 18.9207Z" fill="#002B5B"/>
<path d="M86.6892 28.4652L73.3431 21.5939L78.901 18.4184L86.6892 28.4652ZM74.5931 21.5669L84.5656 26.7008L78.7466 19.1944L74.5931 21.5669Z" fill="#002B5B"/>
<path d="M87.54 28.2315L68.8101 24.8447L73.9442 21.2324L87.54 28.2315ZM70.3211 24.5111L83.7149 26.9335L73.9918 21.9282L70.3211 24.5111Z" fill="#002B5B"/>
<path d="M64.9586 28.3102L69.477 24.3587L85.6808 27.2892L85.6332 27.8809L64.9586 28.3102ZM69.6542 24.9971L66.5863 27.68L82.6441 27.3466L69.6542 24.9971Z" fill="#002B5B"/>
<path d="M61.9416 31.8536L65.6354 27.6999L85.62 27.2851L85.6776 27.8776L61.9416 31.8536ZM65.908 28.2906L63.5134 30.986L81.5337 27.966L65.908 28.2906Z" fill="#002B5B"/>
<path d="M59.8738 35.3373L62.5476 31.1472L85.5773 27.2883L85.7104 27.8694L59.8738 35.3373ZM62.909 31.6915L61.2272 34.3253L80.5845 28.7307L62.909 31.6915Z" fill="#002B5B"/>
<path d="M58.8243 38.6341L60.3222 34.5867L85.5445 27.2966L85.7383 27.8596L58.8243 38.6341ZM60.7788 35.076L59.8507 37.5795L79.9488 29.5346L60.7788 35.076Z" fill="#002B5B"/>
<path d="M58.826 41.6268L59.0509 37.9007L85.5149 27.3065L85.7645 27.848L58.826 41.6268ZM59.6242 38.3129L59.4862 40.6189L79.7223 30.2688L59.6242 38.3129Z" fill="#002B5B"/>
<path d="M59.8704 44.2139L58.7914 40.9745L85.4919 27.317L85.7875 27.835L59.8704 44.2139ZM59.5206 41.2712L60.1974 43.3009L79.9177 30.8393L59.5206 41.2712Z" fill="#002B5B"/>
<path d="M39.4917 41.7269L39.1106 41.267L49.4445 32.338L50.8899 32.7362L39.4917 41.7269ZM49.5924 32.9977L49.5793 33.0108L49.5941 32.9986L49.5924 32.9977Z" fill="#002B5B"/>
<path d="M61.9302 46.3061L59.575 43.6943L85.4673 27.331L85.8106 27.8187L61.9302 46.3061ZM60.4946 43.8205L62.0023 45.4957L80.4875 31.1842L60.4946 43.8205Z" fill="#002B5B"/>
<path d="M64.9489 47.8196L61.4177 45.948L85.4443 27.3474L85.8335 27.798L64.9489 47.8196ZM62.5131 45.8536L64.8469 47.0904L81.34 31.2802L62.5131 45.8536Z" fill="#002B5B"/>
<path d="M31.0268 51.0141L30.6112 50.5854L39.191 41.217L45.9726 38.3973L31.0268 51.0141ZM39.4818 41.7423L34.1325 47.6106L42.6386 40.4296L39.4818 41.7423Z" fill="#002B5B"/>
<path d="M68.8478 48.6769L64.2919 47.6205L85.4197 27.3679L85.8599 27.771L68.8478 48.6769ZM65.5023 47.2886L68.6196 48.0114L82.3484 31.1407L65.5023 47.2886Z" fill="#002B5B"/>
<path d="M22.7639 62.2294L30.695 50.5223L41.7977 44.7048L22.7639 62.2294ZM31.0399 51.0156L26.0996 58.345L38.0529 47.3403L31.0399 51.0156Z" fill="#002B5B"/>
<path d="M73.5024 48.8219L68.1251 48.6195L85.3967 27.3949L85.8861 27.7343L73.5024 48.8219ZM69.3439 48.068L73.1674 48.2121L83.3864 30.8114L69.3439 48.068Z" fill="#002B5B"/>
<path d="M72.778 48.8776L85.3705 27.4318L85.9092 27.6809L78.7416 48.2294L72.778 48.8776ZM84.3405 30.364L73.8933 48.1564L78.3015 47.6771L84.3405 30.364Z" fill="#002B5B"/>
<path d="M19.5217 71.0413L24.1944 60.0824L24.2765 60.0332L39.1861 50.982L19.5217 71.0413ZM24.6707 60.4929L21.3152 68.3599L35.4316 53.96L24.6707 60.4929Z" fill="#002B5B"/>
<path d="M78.0618 48.3662L86.1128 25.2814L84.3619 46.9084L78.0618 48.3662ZM85.1404 29.8853L78.9814 47.541L83.8003 46.4258L85.1404 29.8853Z" fill="#002B5B"/>
<path d="M18.6266 79.6646L20.1409 69.5285L20.2494 69.4555L38.3979 56.9339L18.6266 79.6646ZM20.6961 69.8727L19.5217 77.7273L34.842 60.1119L20.6961 69.8727Z" fill="#002B5B"/>
<path d="M83.746 47.0978L85.4788 25.7035L90.13 44.9007L83.746 47.0978ZM85.7744 29.4624L84.4145 46.2365L89.4206 44.5139L85.7744 29.4624Z" fill="#002B5B"/>
<path d="M238.759 228.309L238.269 227.968L257.31 199.377L257.819 199.688L251.009 211.738L238.759 228.309ZM253.289 206.491L245.501 218.187L250.509 211.413L253.289 206.491Z" fill="#002B5B"/>
<path d="M222.588 243.422L222.156 243.011L244.97 216.318L238.721 228.35L222.588 243.422ZM242.057 220.645L226.063 239.358L238.276 227.95L242.057 220.645Z" fill="#002B5B"/>
<path d="M203.286 256.156L202.918 255.688L225.495 234.847L222.635 243.397L203.286 256.156ZM224.189 236.865L206.019 253.639L222.133 243.012L224.189 236.865Z" fill="#002B5B"/>
<path d="M179.223 266.949L202.703 250.037L203.446 256.089L203.245 256.18L179.223 266.949ZM202.232 251.111L184.335 264.004L202.798 255.725L202.232 251.111Z" fill="#002B5B"/>
<path d="M157.166 272.325L177.706 261.339L182.383 265.624L157.166 272.325ZM177.614 262.065L161.975 270.431L181.175 265.328L177.614 262.065Z" fill="#002B5B"/>
<path d="M135.26 273.881L151.914 268.268L160.926 271.555L135.26 273.881ZM151.907 268.9L140.246 272.829L158.216 271.201L151.907 268.9Z" fill="#002B5B"/>
<path d="M137.725 273.652L117.463 271.743L117.476 271.147L126.769 270.615L126.81 270.624L137.819 273.064L137.725 273.652ZM121.441 271.517L133.003 272.608L126.719 271.216L121.441 271.517Z" fill="#002B5B"/>
</svg>
