<svg width="448" height="500" viewBox="0 0 448 500" fill="none" xmlns="http://www.w3.org/2000/svg">
<path d="M340.233 500H13.0233C5.81395 500 0 494.186 0 486.977V54.07C0 47.7909 5.11628 42.5583 11.5116 42.5583H273.953C275.465 42.5583 276.86 43.1397 278.023 44.1863L350.116 116.279C351.163 117.326 351.744 118.837 351.744 120.349V182.907C351.744 186.047 349.186 188.605 346.047 188.605C342.907 188.605 340.349 186.047 340.349 182.907V122.675L271.628 53.9537H11.3954L11.2791 54.07V486.861C11.2791 487.791 11.9767 488.605 13.0233 488.605H340.233L340.349 488.489V375C340.349 371.861 342.907 369.303 346.047 369.303C349.186 369.303 351.744 371.861 351.744 375V488.489C351.628 494.884 346.512 500 340.233 500Z" fill="#002B5B"/>
<path d="M66.7441 454.884H54.9999C51.8604 454.884 49.3022 452.325 49.3022 449.186C49.3022 446.046 51.8604 443.488 54.9999 443.488H66.7441C69.8836 443.488 72.4418 446.046 72.4418 449.186C72.4418 452.325 69.8836 454.884 66.7441 454.884ZM296.512 454.884H96.8604C93.7209 454.884 91.1627 452.325 91.1627 449.186C91.1627 446.046 93.7209 443.488 96.8604 443.488H296.512C299.651 443.488 302.209 446.046 302.209 449.186C302.209 452.325 299.651 454.884 296.512 454.884ZM66.7441 398.139H54.9999C51.8604 398.139 49.3022 395.581 49.3022 392.442C49.3022 389.302 51.8604 386.744 54.9999 386.744H66.7441C69.8836 386.744 72.4418 389.302 72.4418 392.442C72.4418 395.581 69.8836 398.139 66.7441 398.139ZM296.512 398.139H96.8604C93.7209 398.139 91.1627 395.581 91.1627 392.442C91.1627 389.302 93.7209 386.744 96.8604 386.744H296.512C299.651 386.744 302.209 389.302 302.209 392.442C302.209 395.581 299.651 398.139 296.512 398.139ZM66.7441 341.395H54.9999C51.8604 341.395 49.3022 338.837 49.3022 335.698C49.3022 332.558 51.8604 330 54.9999 330H66.7441C69.8836 330 72.4418 332.558 72.4418 335.698C72.4418 338.837 69.8836 341.395 66.7441 341.395ZM241.046 341.395H96.8604C93.7209 341.395 91.1627 338.837 91.1627 335.698C91.1627 332.558 93.7209 330 96.8604 330H240.93C244.07 330 246.628 332.558 246.628 335.698C246.628 338.837 244.186 341.395 241.046 341.395ZM66.7441 284.651H54.9999C51.8604 284.651 49.3022 282.093 49.3022 278.953C49.3022 275.814 51.8604 273.256 54.9999 273.256H66.7441C69.8836 273.256 72.4418 275.814 72.4418 278.953C72.4418 282.093 69.8836 284.651 66.7441 284.651ZM225.814 284.651H96.8604C93.7209 284.651 91.1627 282.093 91.1627 278.953C91.1627 275.814 93.7209 273.256 96.8604 273.256H225.698C228.837 273.256 231.395 275.814 231.395 278.953C231.395 282.093 228.953 284.651 225.814 284.651ZM66.7441 227.791H54.9999C51.8604 227.791 49.3022 225.232 49.3022 222.093C49.3022 218.953 51.8604 216.395 54.9999 216.395H66.7441C69.8836 216.395 72.4418 218.953 72.4418 222.093C72.4418 225.349 69.8836 227.791 66.7441 227.791ZM241.046 227.791H96.8604C93.7209 227.791 91.1627 225.232 91.1627 222.093C91.1627 218.953 93.7209 216.395 96.8604 216.395H240.93C244.07 216.395 246.628 218.953 246.628 222.093C246.628 225.349 244.186 227.791 241.046 227.791ZM66.7441 171.163H54.9999C51.8604 171.163 49.3022 168.605 49.3022 165.465C49.3022 162.325 51.8604 159.767 54.9999 159.767H66.7441C69.8836 159.767 72.4418 162.325 72.4418 165.465C72.4418 168.605 69.8836 171.163 66.7441 171.163ZM296.512 171.163H96.8604C93.7209 171.163 91.1627 168.605 91.1627 165.465C91.1627 162.325 93.7209 159.767 96.8604 159.767H296.512C299.651 159.767 302.209 162.325 302.209 165.465C302.209 168.605 299.651 171.163 296.512 171.163Z" fill="#002B5B"/>
<path d="M388.605 198.605C385.465 198.605 382.907 196.047 382.907 192.907V11.3953H53.9535V48.3721C53.9535 51.5116 51.3953 54.0698 48.2558 54.0698C45.1162 54.0698 42.5581 51.5116 42.5581 48.3721V11.2791C42.5581 5.11628 47.5581 0 53.8372 0H383.023C389.186 0 394.302 5 394.302 11.2791V193.023C394.302 196.047 391.744 198.605 388.605 198.605ZM383.023 457.442H345.93C342.791 457.442 340.233 454.884 340.233 451.744C340.233 448.605 342.791 446.047 345.93 446.047H382.907V365C382.907 361.86 385.465 359.302 388.605 359.302C391.744 359.302 394.302 361.86 394.302 365V446.163C394.302 452.326 389.302 457.442 383.023 457.442Z" fill="#002B5B"/>
<path d="M346.046 126.047H279.302C273.256 126.047 268.256 121.047 268.256 115V48.256C268.256 45.1165 270.814 42.5583 273.953 42.5583C277.093 42.5583 279.651 45.1165 279.651 48.256V114.651H346.046C349.186 114.651 351.744 117.21 351.744 120.349C351.744 123.489 349.186 126.047 346.046 126.047ZM70.3488 111.977C69.4186 111.977 68.4883 111.744 67.6744 111.279C65.8139 110.233 64.6511 108.372 64.6511 106.279V48.256C64.6511 45.1165 67.2093 42.5583 70.3488 42.5583C73.4883 42.5583 76.0465 45.1165 76.0465 48.256V95.6979L93.8372 83.9537C95.6976 82.6746 98.1395 82.6746 100.116 83.9537L117.791 95.5816V48.256C117.791 45.1165 120.349 42.5583 123.488 42.5583C126.628 42.5583 129.186 45.1165 129.186 48.256V106.163C129.186 108.256 128.023 110.233 126.163 111.163C124.302 112.21 122.093 112.093 120.349 110.93L96.9767 95.4653L73.4883 110.93C72.4418 111.628 71.3953 111.977 70.3488 111.977ZM346.046 380.698C290 380.698 244.302 335.116 244.302 278.954C244.302 222.791 289.884 177.21 346.046 177.21C402.209 177.21 447.791 222.791 447.791 278.954C447.791 335.116 402.093 380.698 346.046 380.698ZM346.046 188.605C296.279 188.605 255.698 229.186 255.698 278.954C255.698 328.721 296.279 369.303 346.046 369.303C395.814 369.303 436.395 328.721 436.395 278.954C436.395 229.186 395.814 188.605 346.046 188.605Z" fill="#002B5B"/>
<path d="M290.349 333.14C289.884 333.14 289.302 333.023 288.837 332.907C286.395 332.209 284.651 330 284.651 327.442V313.488C284.651 313.023 284.651 312.674 284.767 312.326C284.884 305.465 286.163 298.605 288.488 291.977C297.209 267.674 320.814 251.395 347.326 251.395H350.93V230.465C350.93 228.256 352.209 226.279 354.186 225.349C356.163 224.419 358.488 224.651 360.233 226.047L414.884 271.047C416.163 272.093 416.977 273.721 416.977 275.465C416.977 277.209 416.163 278.721 414.884 279.884L360.233 324.884C358.488 326.279 356.163 326.628 354.186 325.581C352.209 324.651 350.93 322.674 350.93 320.465V299.419H350.814C343.721 299.07 336.744 299.884 330.116 301.744C315.349 306.047 304.651 314.884 295.349 330.465C294.186 332.209 292.326 333.14 290.349 333.14ZM347.326 262.674C325.581 262.674 306.279 275.93 299.186 295.698C297.558 300.233 296.628 305 296.279 309.768C303.256 302.093 313.023 294.768 326.977 290.698C334.884 288.488 343.023 287.558 351.279 288.023L356.744 288.14C359.884 288.256 362.326 290.698 362.326 293.837V308.372L402.326 275.465L362.209 242.442V256.977C362.209 260.116 359.651 262.674 356.512 262.674H347.326Z" fill="#002B5B"/>
</svg>
