<svg width="22" height="22" viewBox="0 0 22 22" fill="none" xmlns="http://www.w3.org/2000/svg">
<path d="M11 21C5.47716 21 1 16.5228 1 11C1 5.47716 5.47716 1 11 1C16.5229 1 21 5.47716 21 11C21 16.5228 16.5229 21 11 21Z" stroke="white" stroke-width="0.9" stroke-linecap="round"/>
<path d="M3.85718 3.85714C4.79191 3.91214 5.27484 4.36999 6.10499 5.24716C7.60444 6.83152 9.10388 6.96372 10.1035 6.4356C11.6029 5.64343 10.3429 4.3603 12.1027 3.66299C13.2497 3.2085 13.4097 1.9718 12.7713 1" stroke="white" stroke-width="0.9" stroke-linejoin="round"/>
<path d="M20.2858 12.4286C18.1429 12.4286 17.7626 14.2097 16.0001 13.8571C12.4286 13.1429 11.4166 13.9413 11.4166 15.6444C11.4166 17.3474 11.4166 17.3474 10.6739 18.6247C10.1908 19.4556 10.0219 20.2863 10.9849 21" stroke="white" stroke-width="0.9" stroke-linejoin="round"/>
</svg>
