<svg width="17" height="254" viewBox="0 0 17 254" fill="none" xmlns="http://www.w3.org/2000/svg">
<rect x="1" y="1" width="15" height="15" rx="7.5" stroke="#002B5B"/>
<path d="M12.25 8.5C12.25 6.42893 10.5711 4.75 8.5 4.75C6.42893 4.75 4.75 6.42893 4.75 8.5C4.75 10.5711 6.42893 12.25 8.5 12.25C10.5711 12.25 12.25 10.5711 12.25 8.5Z" fill="#002B5B"/>
<rect x="7" y="18" width="3" height="60" fill="#002B5B"/>
<rect x="1" y="80" width="15" height="15" rx="7.5" stroke="#002B5B"/>
<path d="M12.25 87.5C12.25 85.4289 10.5711 83.75 8.5 83.75C6.42893 83.75 4.75 85.4289 4.75 87.5C4.75 89.5711 6.42893 91.25 8.5 91.25C10.5711 91.25 12.25 89.5711 12.25 87.5Z" fill="#002B5B"/>
<rect x="7" y="97" width="3" height="60" fill="#D9D9D9"/>
<rect x="1" y="159" width="15" height="15" rx="7.5" stroke="#DDE0E5"/>
<path d="M12.25 166.5C12.25 164.429 10.5711 162.75 8.5 162.75C6.42893 162.75 4.75 164.429 4.75 166.5C4.75 168.571 6.42893 170.25 8.5 170.25C10.5711 170.25 12.25 168.571 12.25 166.5Z" fill="#002B5B"/>
<rect x="7" y="176" width="3" height="60" fill="#D9D9D9"/>
<rect x="1" y="238" width="15" height="15" rx="7.5" stroke="#DDE0E5"/>
<path d="M12.25 245.5C12.25 243.429 10.5711 241.75 8.5 241.75C6.42893 241.75 4.75 243.429 4.75 245.5C4.75 247.571 6.42893 249.25 8.5 249.25C10.5711 249.25 12.25 247.571 12.25 245.5Z" fill="#002B5B"/>
</svg>
