<svg width="500" height="500" viewBox="0 0 500 500" fill="none" xmlns="http://www.w3.org/2000/svg">
<g clip-path="url(#clip0_3263_855)">
<path fill-rule="evenodd" clip-rule="evenodd" d="M86.4219 257.266C87.3925 258.263 88.553 259.055 89.8349 259.596C91.1168 260.137 92.494 260.416 93.8854 260.416C95.2768 260.416 96.6541 260.137 97.936 259.596C99.2179 259.055 100.378 258.263 101.349 257.266C101.349 257.266 132.182 225.651 156.844 184.667C173.833 156.422 187.682 123.771 187.682 93.75C187.682 42.0052 145.651 0 93.8854 0C42.1198 0 0.088562 42.0052 0.088562 93.75C0.088562 123.771 13.9375 156.422 30.9219 184.667C55.5886 225.651 86.4219 257.266 86.4219 257.266ZM93.8854 234.615C83.6979 223.161 64.8646 200.641 48.7917 173.927C33.7656 148.958 20.9323 120.292 20.9323 93.75C20.9323 53.5052 53.625 20.8333 93.8854 20.8333C134.146 20.8333 166.839 53.5052 166.839 93.75C166.839 120.292 154.005 148.958 138.979 173.927C122.906 200.646 104.073 223.161 93.8854 234.615Z" fill="#002B5B"/>
<path fill-rule="evenodd" clip-rule="evenodd" d="M398.922 496.849C399.893 497.846 401.053 498.638 402.335 499.179C403.617 499.72 404.994 499.999 406.386 499.999C407.777 499.999 409.154 499.72 410.436 499.179C411.718 498.638 412.878 497.846 413.849 496.849C413.849 496.849 444.682 465.234 469.344 424.25C486.333 396.005 500.182 363.359 500.182 333.333C500.182 281.594 458.151 239.583 406.386 239.583C354.62 239.583 312.589 281.594 312.589 333.333C312.589 363.354 326.438 396.01 343.422 424.25C368.089 465.234 398.922 496.854 398.922 496.854V496.849ZM406.386 474.203C396.198 462.745 377.365 440.224 361.292 413.51C346.266 388.542 333.432 359.875 333.432 333.333C333.432 293.088 366.125 260.417 406.386 260.417C446.646 260.417 479.339 293.088 479.339 333.333C479.339 359.875 466.505 388.542 451.479 413.51C435.406 440.229 416.573 462.75 406.386 474.203Z" fill="#002B5B"/>
<path fill-rule="evenodd" clip-rule="evenodd" d="M93.9219 46.9844C68.0261 46.9844 47.0052 68.0052 47.0052 93.901C47.0052 119.797 68.0261 140.823 93.9219 140.823C119.818 140.823 140.844 119.802 140.844 93.901C140.844 68 119.823 46.9844 93.9219 46.9844ZM93.9219 67.8385C108.313 67.8385 119.99 79.5156 119.99 93.901C119.99 108.286 108.313 119.969 93.9219 119.969C87.1195 119.802 80.6517 116.983 75.8995 112.113C71.1473 107.243 68.4872 100.708 68.4872 93.9036C68.4872 87.0992 71.1473 80.5644 75.8995 75.6944C80.6517 70.8244 87.1195 68.0051 93.9219 67.8385Z" fill="#002B5B"/>
<path fill-rule="evenodd" clip-rule="evenodd" d="M406.422 286.568C380.526 286.568 359.505 307.588 359.505 333.489C359.505 359.391 380.526 380.406 406.422 380.406C432.318 380.406 453.344 359.385 453.344 333.489C453.344 307.594 432.323 286.568 406.422 286.568ZM406.422 307.422C411.579 307.42 416.621 308.947 420.911 311.811C425.2 314.675 428.543 318.747 430.518 323.511C432.493 328.275 433.01 333.518 432.005 338.577C431 343.635 428.517 348.282 424.87 351.929C421.224 355.576 416.578 358.06 411.52 359.067C406.461 360.073 401.218 359.556 396.453 357.582C391.689 355.609 387.616 352.266 384.752 347.977C381.887 343.689 380.358 338.647 380.359 333.489C380.362 326.578 383.109 319.95 387.996 315.062C392.883 310.174 399.51 307.426 406.422 307.422Z" fill="#002B5B"/>
<path fill-rule="evenodd" clip-rule="evenodd" d="M135.417 260.417H218.76C241.766 260.417 260.417 279.068 260.417 302.073C260.417 325.078 241.766 343.75 218.76 343.75H151.042C107.896 343.75 72.9167 378.729 72.9167 421.875C72.9167 442.595 81.1478 462.466 95.799 477.118C110.45 491.769 130.322 500 151.042 500H364.583C367.346 500 369.996 498.902 371.949 496.949C373.903 494.995 375 492.346 375 489.583C375 486.821 373.903 484.171 371.949 482.218C369.996 480.264 367.346 479.167 364.583 479.167H151.042C135.847 479.167 121.275 473.131 110.53 462.386C99.7861 451.642 93.7501 437.07 93.7501 421.875C93.7501 390.234 119.401 364.583 151.042 364.583H218.76C253.271 364.583 281.25 336.583 281.25 302.073C281.25 267.562 253.271 239.583 218.76 239.583H135.417C132.654 239.583 130.005 240.681 128.051 242.634C126.098 244.588 125 247.237 125 250C125 252.763 126.098 255.412 128.051 257.366C130.005 259.319 132.654 260.417 135.417 260.417Z" fill="#002B5B"/>
</g>
<defs>
<clipPath id="clip0_3263_855">
<rect width="500" height="500" fill="white"/>
</clipPath>
</defs>
</svg>
