<svg width="25" height="22" viewBox="0 0 25 22" fill="none" xmlns="http://www.w3.org/2000/svg">
<path d="M14.0028 16L19.1139 11M19.1139 11L14.0028 6M19.1139 11H1.22498M7.61386 16V17.25C7.61386 18.2446 8.01773 19.1984 8.73662 19.9017C9.45551 20.6049 10.4305 21 11.4472 21H20.3916C21.4083 21 22.3833 20.6049 23.1022 19.9017C23.8211 19.1984 24.225 18.2446 24.225 17.25V4.75C24.225 3.75544 23.8211 2.80161 23.1022 2.09835C22.3833 1.39509 21.4083 1 20.3916 1H11.4472C10.4305 1 9.45551 1.39509 8.73662 2.09835C8.01773 2.80161 7.61386 3.75544 7.61386 4.75V6" stroke="white" stroke-linecap="round" stroke-linejoin="round"/>
</svg>
