<svg width="23" height="20" viewBox="0 0 23 20" fill="none" xmlns="http://www.w3.org/2000/svg">
<g clip-path="url(#clip0_3218_804)">
<path d="M8.18817 0.0075512L4.7517 0.00541782C2.81704 0.0041245 0.643233 -0.00654206 0.105243 2.32461C-0.0550961 3.019 0.0155737 3.83706 0.0151648 4.54516L0.0155735 11.4635C0.0154373 12.0682 -0.0149432 12.6869 0.026968 13.2896C0.150821 15.067 1.74079 16.4 3.64357 16.2861C3.66338 16.8696 3.5527 19.4254 3.6897 19.813C4.19161 20.3232 4.85033 19.6572 5.31113 19.3816C6.43433 18.71 7.55508 18.0289 8.66186 17.3339C9.12661 17.0419 9.99166 16.2429 10.5538 16.2861C10.9834 16.2537 11.4092 16.2782 11.8394 16.2834L13.499 16.2869C15.1417 16.288 16.7908 16.2511 18.4321 16.2822C20.8955 16.3291 22.818 15.7011 22.833 13.0578L22.837 4.2041C22.8395 2.36363 22.6656 0.530886 20.2284 0.0754847C19.6651 -0.0297288 19.0633 0.00564432 18.4907 0.00599099L8.18817 0.0075512ZM5.64742 0.88374L18.3063 0.883112C18.8462 0.88346 19.4459 0.845486 19.9775 0.93186C22.4086 1.32675 21.8908 3.92636 21.8905 5.57812L21.8897 11.0199C21.8897 15.0959 21.8339 15.4021 17.7578 15.4011L13.6566 15.4002L11.1718 15.398C10.8666 15.3959 10.4706 15.336 10.1751 15.3875C9.79049 15.4545 5.4769 18.3084 4.55855 18.7679L4.56153 16.8512C4.56181 16.584 4.67548 15.8208 4.46128 15.6181C4.00373 15.1855 2.23756 15.8735 1.30359 14.2473C0.777527 13.3316 0.933804 12.2919 0.932986 11.2851L0.933258 4.79884C0.927153 0.982434 1.34238 0.870554 5.64742 0.88374Z" fill="white"/>
<path d="M17.8502 4.89074L15.0737 4.88769C14.5785 4.88705 14.0739 4.86856 13.5798 4.89225C12.9188 4.92379 12.8751 5.49446 13.3376 5.80856C14.0274 5.80766 17.5873 5.881 17.9471 5.77044C18.4832 5.60579 18.2997 5.04625 17.8502 4.89074Z" fill="white"/>
<path d="M17.8542 7.78917H9.33392C8.46589 7.78905 5.80102 7.69774 5.12031 7.8758C4.80045 8.12771 4.92484 8.55135 5.29937 8.66356C6.36395 8.63406 7.44009 8.66369 8.50577 8.66445L14.533 8.66205C15.2198 8.66205 17.501 8.81239 18.0267 8.58922C18.474 8.39937 18.2484 7.88214 17.8542 7.78917Z" fill="white"/>
<path d="M17.853 10.6855L8.91634 10.6859C8.24799 10.6857 5.6702 10.6067 5.21467 10.7339C4.7258 10.8704 4.92208 11.4284 5.29824 11.5684C6.02302 11.6066 6.7706 11.5702 7.49756 11.5691L15.9034 11.5686C16.5294 11.5687 17.1836 11.6079 17.8067 11.5726C18.4154 11.538 18.4149 10.8256 17.853 10.6855Z" fill="white"/>
</g>
<defs>
<clipPath id="clip0_3218_804">
<rect width="23" height="20" fill="white"/>
</clipPath>
</defs>
</svg>
