<svg width="501" height="500" viewBox="0 0 501 500" fill="none" xmlns="http://www.w3.org/2000/svg">
<path fill-rule="evenodd" clip-rule="evenodd" d="M137.151 390.226C136.729 391.454 135.934 392.52 134.877 393.275C133.821 394.03 132.556 394.437 131.257 394.44C130.583 394.44 129.939 394.326 129.265 394.097L97.0942 383.087C93.8357 381.976 92.0922 378.438 93.2338 375.179C93.4948 374.405 93.9065 373.691 94.445 373.077C94.9835 372.463 95.6381 371.961 96.3713 371.601C97.1044 371.242 97.9015 371.031 98.7167 370.98C99.5318 370.93 100.349 371.041 101.121 371.308L133.291 382.319C136.55 383.44 138.293 386.978 137.151 390.226ZM291.382 0H208.839C206.131 0.67454 204.107 3.12364 204.107 6.03973V86.1128L191.903 74.3654C191.096 73.5936 190.096 73.0519 189.009 72.7965C187.921 72.541 186.785 72.5811 185.718 72.9126L4.41244 128.879C3.38876 129.197 2.46302 129.771 1.72233 130.547C0.981629 131.322 0.450323 132.273 0.178401 133.31C-0.330098 135.427 0.261423 137.658 1.78692 139.204L62.7342 200.805L21.1618 254.872C20.0618 256.356 19.6363 258.276 20.0618 260.092C20.4872 261.908 21.7118 263.444 23.4137 264.264L64.7785 284.376V432.411C64.7785 435.068 66.4286 437.434 68.9711 438.306L248.108 499.668C248.741 499.896 249.426 500 250.101 500C250.775 500 251.502 499.886 252.135 499.658V499.668L431.272 438.306C432.497 437.881 433.559 437.085 434.31 436.029C435.062 434.972 435.465 433.708 435.464 432.411V284.386L476.829 264.274C477.663 263.872 478.396 263.288 478.976 262.567C479.556 261.845 479.967 261.003 480.181 260.103C480.606 258.276 480.181 256.367 479.039 254.883L437.508 200.816L498.404 139.204C499.929 137.658 500.562 135.427 500.012 133.31C499.504 131.203 497.895 129.522 495.82 128.879L314.462 72.9126C312.303 72.238 309.969 72.7984 308.319 74.3654L296.115 86.1128V6.03973C296.115 3.11326 294.101 0.664162 291.382 0ZM137.151 418.578C136.729 419.806 135.934 420.871 134.877 421.626C133.821 422.381 132.556 422.788 131.257 422.791C130.583 422.791 129.939 422.677 129.265 422.449L97.0942 411.438C93.8357 410.328 92.0922 406.779 93.2338 403.53C94.3338 400.282 97.8518 398.549 101.121 399.66L133.291 410.67C136.55 411.781 138.293 415.319 137.151 418.578ZM279.583 434.03L325.358 418.837V435.161L279.583 450.343V434.03ZM267.13 429.526C267.133 428.218 267.548 426.944 268.315 425.884C269.083 424.824 270.164 424.033 271.406 423.621L329.634 404.298C331.502 403.665 333.619 403.987 335.227 405.16C336.836 406.332 337.811 408.211 337.811 410.203V439.644C337.811 442.322 336.078 444.708 333.536 445.559L275.308 464.882C274.675 465.09 274.031 465.204 273.357 465.204C272.049 465.197 270.776 464.784 269.714 464.021C268.918 463.442 268.268 462.684 267.82 461.808C267.371 460.932 267.134 459.962 267.13 458.978V429.526ZM427.577 193.147L311.079 153.245L332.654 120.431C333.878 118.511 334.013 116.073 332.903 114.049C331.844 112.036 329.727 110.78 327.434 110.78H296.115V103.381L314.296 85.8949L482.329 137.751L427.577 193.147ZM305.268 333.876L259.752 264.938L427.027 207.644L464.532 256.418L305.268 333.876ZM423.001 427.98L256.317 485.067V282.383L297.889 345.292C298.451 346.15 299.217 346.855 300.119 347.342C301.022 347.83 302.031 348.084 303.057 348.083C303.991 348.083 304.925 347.876 305.807 347.45L422.99 290.436V427.98H423.001ZM77.1797 427.98L243.864 485.067V282.383L202.333 345.292C201.763 346.151 200.989 346.856 200.08 347.344C199.17 347.831 198.155 348.085 197.123 348.083C196.189 348.083 195.297 347.876 194.415 347.45L77.1797 290.446V427.98ZM73.1947 207.644L240.47 264.938L194.954 333.876L35.6903 256.418L73.1947 207.644ZM185.884 85.8949L204.107 103.381V110.78H172.788C170.494 110.78 168.377 112.036 167.319 114.049C166.775 115.035 166.512 116.151 166.558 117.276C166.603 118.402 166.956 119.493 167.578 120.431L189.112 153.245L72.6447 193.147L17.8929 137.751L185.884 85.8949ZM250.09 255.08L90.1931 200.307L196.189 163.996L244.922 238.175C246.064 239.929 248.015 240.977 250.09 240.977C252.207 240.977 254.158 239.929 255.3 238.175L304.033 163.996L410.029 200.307L250.09 255.08ZM216.571 117.007V12.2662H283.661V117.017C283.661 120.462 286.463 123.244 289.888 123.244H315.915L250.101 223.418L184.328 123.244H210.344C213.769 123.233 216.571 120.452 216.571 117.007Z" fill="#C1C7CD"/>
</svg>
