<svg width="556" height="500" viewBox="0 0 556 500" fill="none" xmlns="http://www.w3.org/2000/svg">
<path d="M402.321 252.978L356.453 332.428C355.787 333.581 354.829 334.539 353.676 335.205C352.523 335.871 351.214 336.222 349.882 336.222C349.672 336.222 349.46 336.214 349.248 336.196C347.814 336.076 346.443 335.551 345.296 334.681C344.149 333.811 343.273 332.633 342.77 331.284L330.127 297.359L294.441 303.367C293.021 303.606 291.563 303.437 290.237 302.878C288.91 302.319 287.77 301.395 286.948 300.213C286.127 299.031 285.659 297.639 285.599 296.201C285.539 294.763 285.889 293.337 286.609 292.09L334.54 209.065C335.572 207.374 337.224 206.154 339.144 205.664C341.063 205.175 343.098 205.455 344.813 206.446C346.529 207.436 347.789 209.058 348.325 210.965C348.861 212.872 348.63 214.913 347.681 216.652L307.803 285.722L333.784 281.348C335.523 281.056 337.309 281.378 338.837 282.26C340.364 283.142 341.537 284.528 342.153 286.18L351.364 310.888L389.177 245.386C390.208 243.691 391.86 242.468 393.781 241.976C395.702 241.485 397.739 241.765 399.457 242.757C401.174 243.748 402.435 245.373 402.969 247.282C403.504 249.191 403.27 251.234 402.318 252.974L402.321 252.978ZM554.981 292.09L509.389 213.098C508.905 212.209 508.247 211.427 507.456 210.796C506.664 210.166 505.754 209.7 504.78 209.426C503.806 209.152 502.786 209.076 501.782 209.202C500.778 209.328 499.809 209.654 498.933 210.16C498.056 210.666 497.29 211.342 496.679 212.149C496.067 212.955 495.624 213.876 495.374 214.857C495.123 215.837 495.072 216.858 495.222 217.859C495.373 218.86 495.722 219.821 496.249 220.685L533.785 285.73L507.797 281.352C506.058 281.059 504.271 281.381 502.743 282.263C501.215 283.145 500.043 284.532 499.427 286.185L490.217 310.891L452.411 245.39C451.925 244.503 451.267 243.722 450.476 243.093C449.684 242.464 448.775 242 447.801 241.727C446.828 241.454 445.809 241.379 444.806 241.505C443.803 241.632 442.835 241.957 441.96 242.463C441.084 242.969 440.318 243.644 439.708 244.45C439.097 245.255 438.653 246.175 438.402 247.155C438.152 248.134 438.1 249.154 438.249 250.154C438.398 251.154 438.745 252.114 439.27 252.978L485.132 332.428C485.798 333.581 486.756 334.539 487.909 335.205C489.062 335.871 490.371 336.222 491.703 336.222C491.913 336.222 492.124 336.214 492.337 336.196C493.771 336.076 495.142 335.55 496.289 334.681C497.436 333.811 498.312 332.633 498.815 331.284L511.463 297.354L547.149 303.363C548.568 303.602 550.027 303.433 551.353 302.875C552.68 302.316 553.821 301.392 554.642 300.209C555.463 299.027 555.931 297.635 555.991 296.197C556.051 294.758 555.701 293.333 554.981 292.086V292.09ZM475.683 129.392L448.917 148.774L459.176 180.18C459.674 181.706 459.675 183.35 459.18 184.877C458.685 186.404 457.718 187.734 456.419 188.677C455.12 189.619 453.555 190.126 451.95 190.124C450.345 190.121 448.782 189.61 447.486 188.664L420.808 169.181L394.093 188.666C392.796 189.611 391.233 190.122 389.629 190.123C388.024 190.125 386.46 189.618 385.161 188.675C383.863 187.732 382.897 186.402 382.402 184.876C381.907 183.349 381.908 181.705 382.406 180.18L392.663 148.774L365.899 129.392C364.6 128.451 363.632 127.123 363.134 125.599C362.637 124.074 362.635 122.431 363.13 120.905C363.624 119.379 364.59 118.049 365.887 117.107C367.185 116.164 368.748 115.656 370.351 115.657H370.363L403.407 115.71L413.587 84.2455C414.082 82.7195 415.046 81.3893 416.343 80.4457C417.641 79.5022 419.203 78.9938 420.807 78.9935C422.412 78.9941 423.975 79.5032 425.272 80.4478C426.569 81.3924 427.533 82.7239 428.026 84.2509L438.178 115.71L471.217 115.657H471.229C472.833 115.656 474.396 116.164 475.694 117.107C476.991 118.049 477.956 119.379 478.451 120.905C478.946 122.431 478.944 124.074 478.447 125.599C477.949 127.123 476.982 128.451 475.683 129.392ZM447.763 130.871L432.667 130.896H432.657C431.051 130.896 429.487 130.387 428.19 129.442C426.892 128.497 425.927 127.165 425.435 125.637L420.795 111.262L416.142 125.644C415.648 127.17 414.683 128.5 413.386 129.444C412.089 130.387 410.526 130.896 408.922 130.896H408.91L393.815 130.871L406.041 139.725C407.342 140.667 408.311 141.998 408.807 143.526C409.304 145.054 409.303 146.7 408.805 148.227L404.123 162.563L416.327 153.657C417.626 152.709 419.193 152.198 420.802 152.198C422.41 152.198 423.977 152.709 425.276 153.657L437.439 162.54L432.763 148.226C432.265 146.699 432.264 145.053 432.761 143.525C433.257 141.997 434.226 140.666 435.527 139.724L447.763 130.871ZM420.808 224.326C403.053 224.329 385.695 219.067 370.93 209.204C356.165 199.342 344.657 185.322 337.86 168.918C331.064 152.515 329.285 134.464 332.748 117.049C336.211 99.6346 344.761 83.638 357.316 71.0827C369.871 58.5274 385.868 49.9774 403.282 46.514C420.697 43.0507 438.748 44.8296 455.152 51.6258C471.555 58.422 485.575 69.9302 495.438 84.6948C505.3 99.4594 510.563 116.817 510.56 134.573C510.529 158.367 501.063 181.178 484.238 198.004C467.413 214.829 444.603 224.295 420.808 224.326ZM495.383 134.573C495.386 119.819 491.014 105.395 482.819 93.1266C474.623 80.8578 462.974 71.2949 449.344 65.6475C435.713 60 420.714 58.5216 406.243 61.3993C391.773 64.2771 378.48 71.3816 368.048 81.8144C357.615 92.2471 350.511 105.54 347.633 120.01C344.756 134.481 346.234 149.48 351.882 163.11C357.53 176.741 367.093 188.39 379.362 196.585C391.631 204.78 406.054 209.152 420.808 209.149C440.579 209.123 459.532 201.257 473.511 187.277C487.491 173.297 495.356 154.344 495.382 134.573H495.383Z" fill="#1D7CC0"/>
<path d="M542.893 106.548C541.67 105.492 540.793 104.094 540.375 102.534C539.957 100.974 540.018 99.3249 540.549 97.7999C542.175 92.7724 542.728 87.4597 542.172 82.2052C541.616 76.9506 539.964 71.8711 537.323 67.2948C534.682 62.7186 531.11 58.7473 526.838 55.6378C522.566 52.5282 517.689 50.3495 512.522 49.2425C510.938 48.9399 509.48 48.1691 508.338 47.0296C507.196 45.8901 506.421 44.4343 506.115 42.8502C505.01 37.6793 502.832 32.798 499.722 28.522C496.611 24.2461 492.637 20.6709 488.058 18.0277C483.478 15.3845 478.395 13.7323 473.136 13.178C467.878 12.6236 462.562 13.1795 457.531 14.8096C456.018 15.3403 454.381 15.4017 452.832 14.9859C451.284 14.57 449.897 13.6963 448.853 12.479V12.4736C445.314 8.54837 440.991 5.40986 436.163 3.26115C431.334 1.11245 426.108 0.00143456 420.824 1.38832e-06C415.539 -0.00143178 410.312 1.10675 405.483 3.25283C400.653 5.39892 396.328 8.53509 392.787 12.4584C391.732 13.6803 390.334 14.5572 388.775 14.9752C387.215 15.3933 385.566 15.3333 384.042 14.8031C379.013 13.1816 373.701 12.6321 368.447 13.1902C363.193 13.7482 358.115 15.4013 353.539 18.0429C348.963 20.6845 344.992 24.2559 341.882 28.5267C338.772 32.7975 336.591 37.6729 335.481 42.8383C335.179 44.4222 334.408 45.8789 333.269 47.02C332.13 48.161 330.674 48.9337 329.091 49.2381C321.221 50.9239 314.095 55.0761 308.748 61.0908L217.975 8.71277C216.822 8.04689 215.514 7.69633 214.182 7.69633C212.85 7.69633 211.542 8.04689 210.388 8.71277L107.109 68.342L3.79341 128.003C2.64 128.669 1.6822 129.626 1.01631 130.78C0.350417 131.933 -9.9866e-05 133.241 2.13428e-08 134.573V373.123C-9.9866e-05 374.454 0.350417 375.763 1.01631 376.916C1.6822 378.069 2.64 379.027 3.79341 379.693L107.106 439.354L210.385 498.983C211.539 499.649 212.847 500 214.179 500C215.511 500 216.82 499.649 217.973 498.983L321.287 439.353L424.599 379.692C425.753 379.026 426.711 378.068 427.377 376.915C428.042 375.762 428.393 374.453 428.393 373.122V268.335C436.28 266.706 443.443 262.609 448.848 256.639C449.894 255.42 451.285 254.545 452.837 254.13C454.39 253.716 456.031 253.78 457.547 254.315C462.574 255.941 467.887 256.494 473.142 255.939C478.397 255.383 483.477 253.731 488.053 251.09C492.629 248.448 496.601 244.876 499.71 240.604C502.82 236.331 504.998 231.454 506.105 226.287C506.409 224.703 507.18 223.247 508.319 222.105C509.457 220.963 510.912 220.188 512.495 219.88C517.667 218.775 522.548 216.597 526.824 213.487C531.101 210.376 534.676 206.403 537.32 201.823C539.963 197.243 541.615 192.16 542.17 186.901C542.724 181.642 542.168 176.326 540.538 171.295C540.008 169.781 539.948 168.142 540.365 166.593C540.782 165.044 541.657 163.657 542.876 162.614C546.801 159.075 549.939 154.751 552.087 149.923C554.235 145.094 555.346 139.869 555.347 134.584C555.348 129.299 554.24 124.073 552.094 119.244C549.948 114.415 546.812 110.09 542.889 106.549L542.893 106.548ZM298.712 162.618C299.931 163.665 300.805 165.055 301.22 166.607C301.634 168.16 301.57 169.801 301.035 171.316C298.577 178.986 298.621 187.239 301.16 194.882L214.184 245.07L154.883 210.832L286.245 134.992C286.31 140.207 287.45 145.352 289.596 150.106C291.741 154.86 294.845 159.119 298.712 162.618ZM301.039 97.8118C301.568 99.329 301.629 100.97 301.216 102.522C300.803 104.075 299.934 105.468 298.721 106.522C296.295 108.705 294.165 111.196 292.383 113.93L139.707 202.069L97.2365 177.55L288.699 67.0442L301.17 74.2401C298.631 81.8852 298.585 90.1391 301.039 97.8118ZM89.6442 190.69L132.127 215.218V303.836L89.6442 279.311V190.69ZM114.695 81.4859L214.184 24.0461L273.513 58.2834L82.0585 168.785L22.7876 134.558L114.695 81.4859ZM15.1769 368.741V147.699L74.4728 181.932V283.698C74.4727 285.03 74.8233 286.339 75.4894 287.492C76.1555 288.646 77.1135 289.604 78.2673 290.27L135.926 323.548C137.08 324.213 138.389 324.564 139.721 324.564C141.053 324.564 142.361 324.213 143.515 323.547C144.668 322.881 145.626 321.923 146.292 320.769C146.958 319.616 147.309 318.307 147.309 316.975V223.981L206.605 258.214V479.269L114.706 426.211L15.1769 368.741ZM313.701 426.21L221.771 479.27V258.215L308.746 208.024C315.383 215.499 324.711 220.042 334.688 220.66C335.044 226.412 336.71 232.007 339.56 237.017C342.409 242.027 346.365 246.319 351.127 249.566C355.889 252.813 361.33 254.928 367.034 255.751C372.738 256.573 378.555 256.081 384.04 254.312C385.558 253.783 387.198 253.721 388.751 254.134C390.303 254.548 391.696 255.417 392.75 256.629C398.148 262.616 405.319 266.719 413.215 268.338V368.741L313.701 426.21ZM532.705 151.352C529.317 154.358 526.886 158.292 525.712 162.666C524.538 167.041 524.673 171.663 526.101 175.962C527.078 178.973 527.412 182.156 527.08 185.305C526.748 188.454 525.759 191.497 524.175 194.239C522.592 196.98 520.45 199.359 517.888 201.219C515.327 203.08 512.403 204.382 509.306 205.04C504.87 205.97 500.803 208.173 497.6 211.379C494.397 214.585 492.198 218.655 491.271 223.091C490.612 226.185 489.31 229.105 487.451 231.663C485.591 234.222 483.215 236.361 480.476 237.943C477.737 239.525 474.696 240.514 471.551 240.846C468.405 241.178 465.225 240.846 462.216 239.871C457.917 238.44 453.292 238.302 448.915 239.474C444.538 240.645 440.6 243.075 437.59 246.462C435.472 248.816 432.882 250.698 429.989 251.986C427.096 253.274 423.965 253.939 420.798 253.938C417.631 253.937 414.5 253.269 411.608 251.979C408.716 250.688 406.128 248.804 404.012 246.448C401.832 244.016 399.165 242.07 396.184 240.736C393.202 239.402 389.974 238.71 386.708 238.706C384.221 238.709 381.751 239.102 379.386 239.87C375.642 241.078 371.648 241.29 367.798 240.484C363.948 239.678 360.374 237.882 357.43 235.274C354.485 232.666 352.271 229.335 351.006 225.61C349.742 221.885 349.47 217.895 350.218 214.033C350.456 212.812 350.39 211.552 350.027 210.363C349.663 209.174 349.013 208.092 348.134 207.213C347.254 206.334 346.172 205.685 344.983 205.322C343.793 204.959 342.533 204.894 341.313 205.133C337.452 205.885 333.461 205.617 329.735 204.356C326.009 203.094 322.677 200.882 320.067 197.938C317.458 194.995 315.661 191.421 314.856 187.571C314.05 183.721 314.262 179.727 315.472 175.984C316.904 171.684 317.042 167.059 315.871 162.682C314.699 158.305 312.27 154.367 308.882 151.357C306.528 149.239 304.645 146.65 303.357 143.756C302.069 140.863 301.404 137.731 301.405 134.564C301.407 131.398 302.074 128.266 303.365 125.374C304.656 122.482 306.54 119.894 308.897 117.778C312.271 114.759 314.691 110.822 315.86 106.448C317.029 102.075 316.897 97.4547 315.48 93.155C314.516 90.1368 314.19 86.951 314.524 83.8001C314.859 80.6493 315.845 77.6026 317.421 74.8537C319.004 72.1183 321.144 69.7457 323.702 67.8892C326.26 66.0327 329.179 64.7337 332.271 64.0762C336.71 63.1516 340.782 60.9505 343.987 57.7435C347.192 54.5364 349.391 50.4629 350.312 46.0235C350.978 42.9323 352.283 40.0148 354.145 37.4592C356.007 34.9035 358.384 32.7665 361.123 31.1858C363.861 29.6051 366.901 28.6159 370.045 28.282C373.189 27.948 376.369 28.2768 379.378 29.2469C383.686 30.6671 388.314 30.7982 392.695 29.624C397.076 28.4498 401.018 26.0215 404.038 22.6375C406.156 20.2877 408.744 18.4092 411.635 17.124C414.526 15.8387 417.654 15.1752 420.818 15.1767C423.981 15.1781 427.109 15.8444 429.998 17.1323C432.888 18.4202 435.474 20.301 437.59 22.6527C440.598 26.0378 444.531 28.4669 448.905 29.6395C453.278 30.8122 457.9 30.6768 462.197 29.2502C465.208 28.2727 468.39 27.9387 471.538 28.2698C474.687 28.601 477.73 29.59 480.471 31.1726C483.213 32.7552 485.591 34.8962 487.452 37.4568C489.313 40.0174 490.616 42.9405 491.275 46.0366C492.203 50.4737 494.405 54.5438 497.611 57.7481C500.818 60.9524 504.89 63.1516 509.327 64.0762C512.421 64.7369 515.341 66.0397 517.899 67.9004C520.458 69.7611 522.597 72.1381 524.178 74.8777C525.759 77.6174 526.748 80.6585 527.08 83.8043C527.411 86.9501 527.079 90.1306 526.104 93.1398C524.683 97.4474 524.552 102.076 525.726 106.457C526.901 110.838 529.329 114.781 532.713 117.801C535.063 119.919 536.941 122.506 538.226 125.396C539.511 128.286 540.175 131.414 540.174 134.577C540.173 137.739 539.508 140.867 538.221 143.756C536.934 146.645 535.055 149.232 532.705 151.349V151.352Z" fill="#072C49"/>
</svg>
