<svg width="376" height="314" viewBox="0 0 376 314" fill="none" xmlns="http://www.w3.org/2000/svg">
<path fill-rule="evenodd" clip-rule="evenodd" d="M135.96 3.53463C54.893 54.7346 10.093 114.468 1.55966 184.868C-13.3737 291.535 82.6263 342.735 131.693 295.801C180.76 248.868 150.893 189.135 116.76 172.068C80.493 157.135 59.1597 163.535 63.4263 140.068C67.693 118.735 116.76 59.0013 161.56 29.1346C163.693 27.0013 165.826 22.7346 163.693 18.468C161.56 16.3346 157.293 12.068 153.026 3.53463C146.626 -0.732039 140.226 -0.732039 135.96 3.53463ZM347.16 3.53463C266.093 54.7346 221.293 114.468 212.76 182.735C197.826 289.401 293.826 340.601 342.893 293.668C391.96 246.735 362.093 187.001 327.96 169.935C293.826 152.868 272.493 159.268 274.626 137.935C278.893 116.601 327.96 56.868 372.76 27.0013C374.893 24.868 377.026 20.6013 374.893 16.3346C372.76 14.2013 368.493 9.93462 364.226 1.40129C357.826 -0.732047 353.56 -0.732039 347.16 3.53463Z" fill="#002B5B"/>
</svg>
