<svg width="22" height="22" viewBox="0 0 22 22" fill="none" xmlns="http://www.w3.org/2000/svg">
<path d="M11 21C16.5229 21 21 16.5229 21 11C21 5.47715 16.5229 1 11 1C5.47715 1 1 5.47715 1 11C1 16.5229 5.47715 21 11 21Z" stroke="white"/>
<path d="M11.9115 13.7936H10.324C10.3282 13.4201 10.3572 13.0983 10.4112 12.8286C10.4693 12.5547 10.5668 12.3077 10.7038 12.0878C10.8449 11.8678 11.0317 11.65 11.264 11.4341C11.4592 11.2597 11.6293 11.0937 11.7745 10.9361C11.9198 10.7783 12.0339 10.6165 12.1169 10.4505C12.1999 10.2803 12.2414 10.0915 12.2414 9.88397C12.2414 9.64322 12.2042 9.44397 12.1294 9.28622C12.0588 9.12434 11.9509 9.00197 11.8057 8.91897C11.6645 8.83597 11.486 8.79447 11.2703 8.79447C11.0918 8.79447 10.9258 8.83384 10.7723 8.91272C10.6187 8.98747 10.492 9.10359 10.3924 9.26134C10.297 9.41909 10.2472 9.62659 10.243 9.88397H8.43762C8.45007 9.31534 8.58078 8.84634 8.82978 8.47697C9.08303 8.10334 9.42128 7.82734 9.84466 7.64897C10.2679 7.46634 10.7432 7.37497 11.2703 7.37497C11.8513 7.37497 12.3494 7.47047 12.7644 7.66134C13.1794 7.84809 13.4969 8.12409 13.7169 8.48934C13.9369 8.85047 14.0469 9.29047 14.0469 9.80922C14.0469 10.1703 13.9763 10.492 13.8352 10.7742C13.694 11.0522 13.5094 11.3117 13.2812 11.5523C13.0529 11.7931 12.8018 12.0421 12.5278 12.2995C12.2913 12.5111 12.1294 12.7332 12.0423 12.9656C11.9593 13.198 11.9157 13.474 11.9115 13.7936ZM10.1372 15.7173C10.1372 15.4517 10.2285 15.2317 10.4112 15.0573C10.5938 14.879 10.8387 14.7897 11.1458 14.7897C11.4488 14.7897 11.6915 14.879 11.8742 15.0573C12.0609 15.2317 12.1543 15.4517 12.1543 15.7173C12.1543 15.9746 12.0609 16.1925 11.8742 16.371C11.6915 16.5495 11.4488 16.6387 11.1458 16.6387C10.8387 16.6387 10.5938 16.5495 10.4112 16.371C10.2285 16.1925 10.1372 15.9746 10.1372 15.7173Z" fill="white"/>
</svg>
