<svg width="368" height="500" viewBox="0 0 368 500" fill="none" xmlns="http://www.w3.org/2000/svg">
<path d="M112.962 500H112.862C111.46 499.98 110.094 499.549 108.936 498.759C107.778 497.969 106.877 496.855 106.347 495.557L83.3408 439.201L28.0421 464.436C26.7243 465.038 25.2546 465.225 23.8281 464.972C22.4016 464.719 21.0857 464.038 20.0551 463.02C19.0245 462.002 18.3279 460.695 18.0577 459.271C17.7875 457.848 17.9565 456.376 18.5424 455.051L78.7481 318.833C79.5144 317.099 80.9378 315.741 82.7053 315.058C84.4728 314.374 86.4395 314.42 88.1729 315.186C89.9062 315.953 91.2642 317.376 91.948 319.144C92.6318 320.911 92.5855 322.878 91.8192 324.611L39.2204 443.637L84.2194 423.116C85.095 422.716 86.0423 422.498 87.0044 422.474C87.9666 422.45 88.9237 422.62 89.8183 422.975C90.7129 423.33 91.5265 423.862 92.2104 424.539C92.8942 425.216 93.4342 426.025 93.7977 426.916L113.262 474.579L169.689 346.618C170.453 344.884 171.875 343.526 173.641 342.841C175.407 342.155 177.373 342.2 179.106 342.964C180.84 343.729 182.199 345.15 182.884 346.916C183.569 348.683 183.524 350.649 182.76 352.382L119.519 495.714C118.962 496.99 118.045 498.075 116.88 498.836C115.715 499.597 114.353 500.002 112.962 500Z" fill="#002B5B"/>
<path d="M141.532 367.403C139.225 367.414 136.926 367.118 134.697 366.525C124.033 363.667 116.904 354.382 110.612 346.168C107.169 340.914 102.815 336.318 97.7548 332.597C91.8855 329.988 85.5953 328.454 79.1838 328.068C68.5412 326.64 57.5343 325.168 49.8988 317.519C42.2632 309.869 40.7633 298.848 39.3419 288.198C38.9452 281.799 37.4117 275.523 34.8134 269.663C31.086 264.608 26.491 260.255 21.2423 256.806C13.0282 250.513 3.72843 243.385 0.878495 232.728C-1.85716 222.492 2.30703 212.335 6.36408 202.521C9.29642 196.64 11.145 190.279 11.8211 183.743C11.144 177.209 9.29545 170.851 6.36408 164.972C2.32132 155.158 -1.85716 144.973 0.878495 134.766C3.73557 124.109 13.0211 116.98 21.2423 110.688C26.4961 107.228 31.0916 102.86 34.8134 97.7879C37.4134 91.931 38.9446 85.6561 39.3347 79.2598C40.7633 68.6101 42.1918 57.6032 49.8916 49.9748C57.5915 42.3464 68.5555 40.8464 79.1767 39.4179C85.5882 39.0323 91.8783 37.4984 97.7477 34.8894C102.805 31.1646 107.158 26.5692 110.605 21.3183C116.89 13.1042 124.026 3.80443 134.683 0.954494C144.918 -1.80973 155.075 2.38303 164.889 6.44008C170.777 9.34573 177.14 11.1676 183.674 11.8185C190.21 11.1443 196.571 9.29823 202.452 6.36865C212.266 2.32589 222.452 -1.85973 232.652 0.875925C243.316 3.733 250.444 13.0185 256.737 21.2397C260.182 26.4914 264.536 31.087 269.594 34.8108C275.451 37.4165 281.729 38.948 288.129 39.3322C298.772 40.7607 309.778 42.2321 317.414 49.8891C325.049 57.546 326.549 68.5601 327.971 79.1741C328.362 85.5847 329.896 91.8738 332.499 97.7451C336.223 102.803 340.819 107.157 346.07 110.602C354.285 116.895 363.584 124.03 366.434 134.68C369.17 144.923 365.006 155.072 360.949 164.894C358.017 170.772 356.169 177.131 355.492 183.665C356.167 190.199 358.016 196.558 360.949 202.436C364.991 212.257 369.17 222.435 366.434 232.649C363.577 243.299 354.292 250.434 346.07 256.727C340.819 260.172 336.223 264.526 332.499 269.584C329.901 275.442 328.37 281.716 327.978 288.112C326.549 298.762 325.085 309.776 317.421 317.433C309.757 325.09 298.757 326.561 288.136 327.983C281.736 328.374 275.458 329.911 269.601 332.518C264.544 336.243 260.19 340.838 256.744 346.089C250.458 354.296 243.323 363.603 232.666 366.453C222.416 369.203 212.274 365.025 202.46 360.967C196.573 358.059 190.209 356.237 183.674 355.589C177.138 356.26 170.776 358.106 164.896 361.039C157.589 364.641 149.657 366.802 141.532 367.403ZM141.532 14.297C140.47 14.2879 139.411 14.4176 138.382 14.6827C132.418 16.2756 127.333 22.9111 121.954 29.9324C117.426 36.7212 111.627 42.5692 104.876 47.1534C97.4263 50.7797 89.3439 52.9265 81.0766 53.4747C73.5588 53.5431 66.2239 55.8019 59.97 59.9745C55.7924 66.2262 53.5331 73.5625 53.4701 81.0812C52.9218 89.3453 50.7775 97.425 47.156 104.873C42.5602 111.627 36.7 117.426 29.8992 121.952C22.878 127.337 16.2496 132.423 14.6496 138.38C14.2222 145.73 15.9208 153.048 19.5423 159.458C23.2703 167.029 25.49 175.253 26.0779 183.672C25.492 192.091 23.2722 200.315 19.5423 207.885C15.9179 214.297 14.2192 221.618 14.6496 228.971C16.2496 234.935 22.878 240.013 29.8992 245.399C36.7 249.924 42.5602 255.724 47.156 262.477C50.7808 269.924 52.9252 278.005 53.4701 286.269C53.5417 293.79 55.8029 301.127 59.9771 307.383C66.2313 311.554 73.5664 313.811 81.0838 313.876C89.3488 314.424 97.4289 316.571 104.876 320.197C111.632 324.787 117.43 330.648 121.947 337.454C127.333 344.468 132.418 351.103 138.375 352.696C145.722 353.114 153.035 351.416 159.446 347.804C167.025 344.087 175.253 341.879 183.674 341.304C192.095 341.889 200.321 344.106 207.895 347.832C214.302 351.462 221.622 353.161 228.973 352.725C234.937 351.132 240.023 344.496 245.401 337.475C249.922 330.675 255.72 324.817 262.472 320.226C269.922 316.597 278.004 314.448 286.272 313.897C293.79 313.836 301.126 311.58 307.378 307.404C311.553 301.152 313.812 293.816 313.878 286.298C314.426 278.034 316.57 269.954 320.192 262.506C324.786 255.748 330.646 249.946 337.449 245.42C344.47 240.035 351.099 234.956 352.699 228.992C353.126 221.642 351.428 214.324 347.806 207.914C344.076 200.344 341.856 192.119 341.271 183.7C341.858 175.282 344.078 167.058 347.806 159.486C351.431 153.078 353.13 145.759 352.699 138.408C351.099 132.444 344.47 127.366 337.449 121.98C330.648 117.455 324.788 111.655 320.192 104.902C316.569 97.4544 314.424 89.3743 313.878 81.1098C313.808 73.5889 311.547 66.2517 307.371 59.996C301.119 55.8209 293.783 53.5642 286.265 53.5033C277.998 52.9427 269.919 50.7863 262.472 47.1534C255.72 42.5594 249.922 36.6989 245.401 29.8967C240.016 22.8754 234.93 16.247 228.973 14.647C221.625 14.2244 214.31 15.9254 207.902 19.5469C200.327 23.2801 192.098 25.507 183.674 26.1039C175.254 25.515 167.029 23.2979 159.453 19.5755C153.837 16.7759 147.77 14.989 141.532 14.297Z" fill="#002B5B"/>
<path d="M183.674 305.605C159.563 305.606 135.994 298.458 115.946 285.063C95.8979 271.669 80.272 252.631 71.0442 230.356C61.8165 208.081 59.4013 183.57 64.1042 159.922C68.8071 136.275 80.4168 114.553 97.4652 97.5034C114.514 80.4541 136.235 68.8431 159.882 64.1388C183.529 59.4345 208.041 61.8482 230.316 71.0747C252.592 80.3011 271.631 95.9259 285.026 115.973C298.422 136.02 305.571 159.59 305.571 183.7C305.535 216.019 292.681 247.004 269.829 269.857C246.977 292.711 215.993 305.567 183.674 305.605ZM183.674 76.0885C162.389 76.0871 141.581 82.3978 123.882 94.2226C106.183 106.047 92.3878 122.855 84.2415 142.52C76.0952 162.185 73.9634 183.824 78.1157 204.701C82.2679 225.578 92.5178 244.754 107.569 259.805C122.62 274.857 141.797 285.107 162.673 289.259C183.55 293.411 205.189 291.279 224.854 283.133C244.519 274.987 261.327 261.192 273.152 243.493C284.977 225.794 291.287 204.986 291.286 183.7C291.254 155.17 279.906 127.817 259.732 107.643C239.558 87.4686 212.205 76.1206 183.674 76.0885ZM254.387 500C252.999 499.998 251.642 499.591 250.481 498.83C249.32 498.069 248.406 496.986 247.851 495.714L184.596 352.382C183.831 350.649 183.787 348.683 184.472 346.917C185.157 345.15 186.516 343.729 188.249 342.964C189.982 342.2 191.948 342.155 193.715 342.841C195.481 343.526 196.902 344.884 197.667 346.618L254.094 474.579L273.558 426.916C273.921 426.025 274.461 425.216 275.145 424.539C275.829 423.862 276.643 423.33 277.537 422.975C278.432 422.62 279.389 422.45 280.351 422.474C281.313 422.498 282.261 422.717 283.136 423.116L328.135 443.637L275.529 324.611C274.763 322.878 274.717 320.911 275.4 319.144C276.084 317.376 277.442 315.953 279.176 315.186C280.909 314.42 282.876 314.374 284.643 315.058C286.411 315.741 287.834 317.099 288.6 318.833L348.785 455.051C349.37 456.376 349.539 457.848 349.269 459.271C348.999 460.695 348.303 462.002 347.272 463.02C346.241 464.039 344.925 464.719 343.499 464.972C342.072 465.225 340.603 465.038 339.285 464.437L283.986 439.201L260.98 495.557C260.45 496.855 259.549 497.969 258.391 498.759C257.233 499.549 255.867 499.981 254.465 500H254.387Z" fill="#002B5B"/>
<path d="M222.745 247.327C221.587 247.328 220.447 247.046 219.423 246.506L183.674 227.714L147.961 246.506C146.781 247.124 145.453 247.4 144.125 247.303C142.797 247.207 141.522 246.74 140.445 245.957C139.368 245.174 138.531 244.106 138.029 242.873C137.527 241.639 137.38 240.29 137.604 238.978L144.432 199.179L115.512 170.986C114.557 170.056 113.881 168.876 113.561 167.582C113.242 166.287 113.291 164.929 113.704 163.661C114.116 162.393 114.876 161.265 115.896 160.406C116.916 159.548 118.156 158.991 119.476 158.801L159.439 153.001L177.296 116.788C177.954 115.676 178.89 114.754 180.012 114.114C181.134 113.474 182.404 113.137 183.696 113.137C184.988 113.137 186.257 113.474 187.38 114.114C188.502 114.754 189.438 115.676 190.096 116.788L207.952 153.001L247.916 158.801C249.236 158.991 250.476 159.548 251.496 160.406C252.516 161.265 253.275 162.393 253.688 163.661C254.1 164.929 254.15 166.287 253.83 167.582C253.511 168.876 252.835 170.056 251.88 170.986L222.959 199.179L229.788 238.978C229.963 240.002 229.913 241.053 229.641 242.057C229.368 243.06 228.88 243.992 228.21 244.787C227.54 245.582 226.704 246.222 225.762 246.66C224.819 247.099 223.785 247.327 222.745 247.327ZM183.674 212.507C184.831 212.505 185.971 212.785 186.996 213.321L213.259 227.149L208.259 197.914C208.064 196.773 208.149 195.601 208.508 194.5C208.866 193.399 209.487 192.401 210.317 191.593L231.552 170.879L202.202 166.594C201.056 166.426 199.967 165.983 199.03 165.301C198.093 164.619 197.336 163.719 196.824 162.679L183.674 136.087L170.546 162.687C170.034 163.726 169.277 164.626 168.34 165.308C167.403 165.99 166.314 166.434 165.168 166.601L135.818 170.886L157.054 191.6C157.883 192.408 158.504 193.406 158.862 194.507C159.221 195.608 159.306 196.78 159.111 197.921L154.111 227.156L180.374 213.35C181.39 212.807 182.522 212.518 183.674 212.507Z" fill="#002B5B"/>
</svg>
