<svg width="562" height="500" viewBox="0 0 562 500" fill="none" xmlns="http://www.w3.org/2000/svg">
<path d="M444.85 485.659C441.511 485.672 438.272 484.525 435.685 482.414C433.099 480.303 431.326 477.359 430.669 474.085L426.023 452.143C417.653 449.809 409.675 446.248 402.349 441.574C401.398 441.666 400.439 441.566 399.527 441.281C398.616 440.996 397.77 440.532 397.041 439.916C396.311 439.3 395.712 438.544 395.279 437.693C394.846 436.842 394.587 435.913 394.518 434.96C394.449 434.008 394.571 433.051 394.877 432.146C395.183 431.242 395.667 430.407 396.301 429.692C396.934 428.977 397.704 428.396 398.565 427.983C399.426 427.57 400.361 427.333 401.315 427.287C404.422 427.027 407.53 427.795 410.158 429.474C416.262 433.37 422.917 436.325 429.901 438.24C434.979 439.588 438.904 443.755 440.092 449.087L444.767 471.159L474.039 468.086L474.01 445.523C474.01 439.972 476.965 435.048 481.73 432.607C488.129 429.265 493.985 424.972 499.097 419.874C500.997 418 503.381 416.691 505.981 416.091C508.582 415.492 511.299 415.627 513.827 416.481L535.101 423.421L547.131 396.549L527.588 385.271C525.258 383.984 523.333 382.073 522.028 379.753C520.723 377.433 520.09 374.796 520.199 372.136C520.365 368.56 520.259 364.924 519.886 361.313C519.467 357.711 518.801 354.142 517.894 350.631C517.226 348.066 517.288 345.365 518.074 342.833C518.859 340.301 520.337 338.039 522.339 336.303L538.991 321.306L521.695 297.443L502.129 308.792C499.832 310.151 497.202 310.843 494.534 310.792C491.865 310.741 489.264 309.948 487.02 308.503C480.95 304.643 474.326 301.733 467.378 299.872C464.835 299.148 462.538 297.745 460.733 295.814C458.927 293.884 457.681 291.498 457.128 288.913L452.458 266.876L443.16 267.763C441.263 267.954 439.367 267.39 437.883 266.192C436.399 264.995 435.447 263.262 435.233 261.367C435.031 259.469 435.591 257.568 436.79 256.082C437.99 254.597 439.73 253.649 441.629 253.446L450.785 252.459C454.373 252.061 457.98 253.019 460.898 255.145C463.815 257.272 465.831 260.412 466.55 263.95L471.202 285.886C479.407 288.174 487.381 291.679 494.799 296.391L514.247 284.976C517.365 283.161 521.046 282.568 524.577 283.311C528.108 284.055 531.237 286.083 533.358 289.002L550.606 312.623C552.729 315.516 553.705 319.093 553.348 322.664C552.991 326.235 551.326 329.547 548.673 331.964L531.927 347.037C532.932 351.287 533.724 355.573 534.203 359.77C534.652 364.162 534.776 368.501 534.587 372.763L554.159 383.805C560.738 387.611 563.345 395.597 560.283 402.407L548.496 429.137C547.026 432.421 544.399 435.05 541.116 436.523C537.832 437.995 534.122 438.209 530.692 437.123L509.27 430.142C503.09 436.233 496.04 441.372 488.35 445.393L488.581 467.873C488.598 471.474 487.278 474.954 484.877 477.639C482.476 480.323 479.164 482.02 475.582 482.402L446.452 485.571C445.92 485.629 445.385 485.659 444.85 485.659ZM448.515 410.162C439.153 410.167 430.075 406.953 422.802 401.059C418.583 397.682 415.077 393.502 412.485 388.761C409.894 384.019 408.269 378.81 407.705 373.436C407.108 368.064 407.584 362.627 409.104 357.44C410.624 352.253 413.158 347.419 416.559 343.219C419.938 339.003 424.119 335.499 428.86 332.91C433.601 330.32 438.809 328.697 444.182 328.133C466.68 325.692 487.05 342.066 489.485 364.611C490.082 369.981 489.607 375.415 488.089 380.6C486.571 385.785 484.04 390.617 480.642 394.817C477.264 399.038 473.083 402.546 468.339 405.139C463.595 407.731 458.384 409.357 453.008 409.92C451.506 410.08 450.011 410.162 448.515 410.162ZM448.616 342.297C444.616 342.28 440.663 343.167 437.054 344.891C433.445 346.616 430.272 349.134 427.773 352.257C425.562 354.986 423.914 358.127 422.926 361.498C421.938 364.869 421.628 368.402 422.015 371.894C422.784 378.987 426.271 385.371 431.828 389.846C434.557 392.055 437.698 393.701 441.067 394.69C444.437 395.678 447.969 395.988 451.459 395.603C454.953 395.237 458.34 394.181 461.424 392.497C464.508 390.813 467.226 388.533 469.423 385.791C471.631 383.061 473.277 379.921 474.264 376.551C475.251 373.182 475.561 369.65 475.174 366.16C474.457 359.612 471.352 353.558 466.453 349.156C461.553 344.753 455.202 342.311 448.616 342.297Z" fill="#9AACBD"/>
<path d="M482.859 269.779C480.418 269.779 477.941 269.27 475.565 268.212L446.298 255.078C445.782 254.822 445.205 254.714 444.631 254.767C444.057 254.819 443.509 255.029 443.047 255.373C441.729 256.461 440.222 257.59 438.655 258.725C437.103 259.743 435.218 260.123 433.393 259.785C431.568 259.447 429.943 258.418 428.858 256.912C427.773 255.406 427.31 253.54 427.567 251.701C427.825 249.863 428.781 248.195 430.238 247.045C431.544 246.099 432.803 245.165 434.009 244.166C436.556 242.163 439.605 240.898 442.822 240.511C446.039 240.123 449.301 240.627 452.251 241.967L481.452 255.066C482.183 255.396 483.009 255.446 483.774 255.206C484.54 254.966 485.19 254.453 485.602 253.766L506.539 217.548C506.932 216.831 507.049 215.996 506.869 215.198C506.688 214.401 506.222 213.698 505.558 213.221L479.649 194.565C476.985 192.708 474.9 190.135 473.634 187.144C472.369 184.153 471.974 180.865 472.497 177.66C473.265 172.41 473.667 167.085 473.667 161.948C473.667 156.716 473.277 151.497 472.473 145.999C471.439 139.769 474.217 133.149 479.584 129.271L505.629 110.55C506.935 109.605 507.343 107.689 506.527 106.277L485.631 70.059C485.221 69.3563 484.566 68.8299 483.791 68.5811C483.016 68.3324 482.177 68.3787 481.434 68.7113L452.204 81.8931C446.062 84.6123 439.128 83.7492 434.068 79.6646C425.795 73.0223 416.553 67.6858 406.664 63.8405C400.617 61.4997 396.42 55.9019 395.729 49.24L392.495 17.3671C392.421 16.555 392.046 15.7999 391.443 15.2507C390.84 14.7014 390.054 14.3978 389.238 14.3997H347.482C346.67 14.3945 345.886 14.693 345.283 15.2366C344.681 15.7803 344.303 16.5297 344.225 17.3376L340.997 49.2164C340.3 55.9019 336.097 61.4997 330.038 63.8464C320.129 67.7091 310.861 73.0503 302.551 79.6883C297.527 83.7492 290.581 84.6064 284.499 81.9109L255.25 68.6995C254.508 68.3716 253.671 68.3303 252.9 68.5836C252.13 68.8369 251.48 69.3667 251.077 70.0709L250.084 71.7673C249.607 72.5828 248.973 73.2963 248.22 73.867C247.467 74.4377 246.609 74.8544 245.695 75.0935C244.78 75.3325 243.828 75.3892 242.892 75.2602C241.956 75.1312 241.054 74.8191 240.239 74.3417C239.424 73.8643 238.71 73.2309 238.139 72.4778C237.569 71.7247 237.152 70.8665 236.913 69.9523C236.674 69.0381 236.617 68.0858 236.746 67.1497C236.875 66.2136 237.187 65.3121 237.665 64.4967L238.64 62.8238C240.827 59.0417 244.341 56.2061 248.499 54.8662C252.658 53.5262 257.166 53.7773 261.15 55.5708L290.374 68.7704C291.45 69.2433 292.709 69.1369 293.549 68.463C303.005 60.9039 313.552 54.8212 324.83 50.4222C325.823 50.0321 326.545 48.9858 326.675 47.7445L329.896 15.9189C330.312 11.5495 332.347 7.49368 335.601 4.54817C338.855 1.60266 343.093 -0.0195802 347.482 0.00017839H389.238C393.631 -0.0162021 397.871 1.61108 401.125 4.56219C404.38 7.5133 406.412 11.5748 406.824 15.9484L410.045 47.7622C410.175 48.9858 410.891 50.0321 411.878 50.4163C423.162 54.8083 433.66 60.879 443.101 68.4453C443.562 68.7828 444.107 68.9886 444.676 69.0407C445.246 69.0927 445.819 68.9891 446.334 68.7409L475.547 55.5767C479.546 53.7554 484.082 53.4977 488.261 54.8543C492.441 56.211 495.961 59.0838 498.127 62.9066L519 99.0827C523.468 106.85 521.287 117.011 514.034 122.231L488.002 140.951C487.056 141.637 486.53 142.772 486.701 143.771C487.6 149.788 488.055 155.864 488.061 161.948C488.061 167.788 487.611 173.817 486.719 179.876C486.524 181.058 487.032 182.152 488.019 182.85L513.981 201.546C517.533 204.104 520.014 207.885 520.946 212.162C521.878 216.438 521.195 220.909 519.029 224.712L498.092 260.918C496.566 263.613 494.351 265.853 491.675 267.41C488.998 268.967 485.955 269.785 482.859 269.779ZM386.874 213.842C385.208 213.843 383.593 213.267 382.304 212.211C381.015 211.156 380.133 209.686 379.806 208.052C379.48 206.418 379.73 204.722 380.515 203.252C381.299 201.783 382.569 200.63 384.107 199.992C391.632 196.878 398.063 191.6 402.585 184.827C407.107 178.054 409.516 170.091 409.508 161.948C409.508 139.208 391.035 120.712 368.33 120.712C359.984 120.738 351.842 123.289 344.973 128.031C338.105 132.772 332.832 139.482 329.849 147.276C329.131 149.002 327.77 150.38 326.054 151.12C324.338 151.86 322.401 151.904 320.653 151.242C318.906 150.581 317.484 149.265 316.688 147.574C315.892 145.883 315.785 143.949 316.389 142.181C324.505 120.723 345.383 106.312 368.33 106.312C398.974 106.312 423.907 131.269 423.907 161.948C423.922 172.937 420.673 183.683 414.573 192.823C408.472 201.963 399.794 209.085 389.64 213.286C388.764 213.652 387.824 213.841 386.874 213.842Z" fill="#9AACBD"/>
<path d="M385.106 500H306.606C300.253 499.99 294.162 497.462 289.67 492.969C285.177 488.475 282.65 482.384 282.643 476.03V375.683C282.643 370.404 278.345 366.107 273.066 366.107H195.471C190.192 366.107 185.895 370.404 185.895 375.683V476.03C185.887 482.385 183.359 488.477 178.866 492.971C174.372 497.464 168.28 499.992 161.925 500H83.4312C77.0764 499.992 70.9842 497.464 66.4907 492.971C61.9972 488.477 59.4693 482.385 59.4615 476.03V310.039H24.036C14.0816 310.039 5.56959 304.306 1.82193 295.084C-1.91983 285.851 0.190452 275.808 7.33702 268.868L54.5966 222.98V136.293C54.6044 129.939 57.1323 123.846 61.6258 119.353C66.1193 114.859 72.2115 112.331 78.5663 112.324H108.477C114.832 112.33 120.926 114.857 125.421 119.351C129.916 123.844 132.444 129.938 132.452 136.293V147.329L217.567 64.6621C222.026 60.2901 228.021 57.8411 234.266 57.8411C240.51 57.8411 246.506 60.2901 250.965 64.6621L461.212 268.874C468.353 275.808 470.463 285.851 466.721 295.084C462.98 304.306 454.468 310.039 444.507 310.039H409.076V476.03C409.068 482.385 406.54 488.477 402.047 492.971C397.553 497.464 391.461 499.992 385.106 500ZM195.471 351.713H273.066C279.421 351.721 285.513 354.249 290.007 358.742C294.5 363.236 297.028 369.328 297.036 375.683V476.03C297.036 481.309 301.334 485.606 306.612 485.606H385.106C390.385 485.606 394.682 481.309 394.682 476.03V302.846C394.682 298.867 397.898 295.646 401.876 295.646H444.507C450.489 295.646 452.812 291.077 453.374 289.676C453.947 288.269 455.473 283.374 451.175 279.207L240.939 74.9888C239.159 73.2411 236.764 72.262 234.269 72.262C231.774 72.262 229.378 73.2411 227.598 74.9888L130.271 169.52C129.258 170.512 127.975 171.182 126.582 171.447C125.19 171.712 123.75 171.559 122.444 171.007C121.138 170.455 120.024 169.53 119.243 168.347C118.462 167.164 118.048 165.777 118.053 164.359V136.293C118.053 131.015 113.761 126.717 108.477 126.717H78.5663C73.2876 126.717 68.9961 131.015 68.9961 136.293V226.024C68.9961 227.969 68.21 229.831 66.809 231.191L17.3682 279.201C13.0767 283.368 14.5959 288.263 15.1693 289.664C15.7368 291.071 18.0539 295.64 24.036 295.64H66.6612C70.6394 295.64 73.861 298.861 73.861 302.84V476.036C73.861 481.309 78.1525 485.6 83.4371 485.6H161.925C167.204 485.6 171.501 481.309 171.501 476.03V375.683C171.509 369.328 174.037 363.236 178.53 358.742C183.024 354.249 189.116 351.721 195.471 351.713Z" fill="#9AACBD"/>
</svg>
