<svg width="500" height="500" viewBox="0 0 500 500" fill="none" xmlns="http://www.w3.org/2000/svg">
<path d="M437.358 0C403.914 0 376.507 26.3485 374.796 59.3776C337.7 35.0104 294.827 22.1888 250.003 22.1888C207.846 22.1888 167.275 33.5892 131.684 55.2905C131.798 53.8693 131.87 52.4378 131.87 50.9959C131.87 22.8734 108.997 0 80.8746 0C52.7522 0 29.8788 22.8734 29.8788 50.9959C29.8788 58.0187 31.2688 64.7925 34.0074 71.1307C34.0282 71.1826 34.0489 71.2241 34.0697 71.2759L59.2045 125.477C34.9825 162.521 22.1921 205.498 22.1921 250C22.1921 299.917 38.0012 347.199 67.9182 386.909V397.261H6.22734C4.28751 397.261 2.47216 398.164 1.28958 399.699C0.107011 401.234 -0.28718 403.226 0.210745 405.104L20.5738 481.1C23.6029 492.407 33.5095 500 45.2108 500H228.022C239.744 500 249.817 494.181 255.678 484.035L259.391 477.614C317.68 475.249 372.109 451.037 413.012 409.149C454.806 366.349 477.814 309.834 477.814 250.01C477.814 219.554 471.891 190.021 460.252 162.189L494.868 87.5311C494.889 87.4793 494.91 87.4378 494.931 87.3859C498.292 79.6058 500.003 71.2863 500.003 62.6556C500.003 28.1017 471.902 0 437.358 0ZM42.3269 50.9959C42.3269 29.7407 59.6195 12.4481 80.8746 12.4481C102.13 12.4481 119.422 29.7407 119.422 50.9959C119.422 56.2863 118.385 61.3693 116.352 66.11L80.8746 142.624L45.3975 66.11C43.3643 61.3693 42.3269 56.2863 42.3269 50.9959ZM75.2315 160.042C76.2481 162.241 78.4576 163.651 80.8746 163.651C83.2917 163.651 85.5012 162.241 86.5178 160.042L126.673 73.4336C130.781 70.5602 134.972 67.8216 139.246 65.2593L156.85 78.4232C165.159 84.6369 169.267 94.0249 168.126 104.17C167.389 110.643 169.194 116.732 173.323 121.763C177.451 126.795 183.074 129.751 189.557 130.301C191.383 130.456 192.752 131.608 193.229 133.371C193.717 135.166 193.095 136.857 191.559 137.915L183.312 143.558C176.715 148.081 172.877 155.477 173.043 163.361C173.115 166.846 171.819 169.761 169.173 172.033C166.528 174.305 163.447 175.145 160.024 174.554L121.642 167.863C119.661 167.521 117.638 168.154 116.196 169.564C115.49 170.26 114.961 171.115 114.652 172.057C114.344 172.999 114.265 174.001 114.422 174.979L119.9 209.025C120.107 210.29 120.698 211.463 121.59 212.386L140.314 231.556C141.684 232.967 143.644 233.631 145.595 233.371L171.414 229.907C175.138 229.409 178.344 230.539 180.937 233.257C183.323 235.768 184.339 238.745 183.945 242.106C183.178 248.6 185.117 255.207 189.267 260.239C193.157 264.959 198.561 267.801 204.474 268.237L247.389 271.452C252.897 271.867 257.109 275.996 257.628 281.504L257.69 282.137C259.256 298.89 249.889 314.336 234.381 320.581C227.42 323.382 222.016 328.558 218.914 334.959V292.666C218.914 289.232 216.124 286.442 212.69 286.442H118.634C118.053 282.811 118.333 279.056 119.526 275.55C124.256 261.587 119.951 246.515 108.572 237.158L96.1132 226.909C90.0344 221.909 87.2024 215.124 87.939 207.282L88.551 200.799C89.5572 190.104 83.4784 180.363 73.4369 176.566L50.8124 167.998C54.9528 157.963 59.8493 148.256 65.4597 138.963L75.2315 160.042ZM234.184 374.201H213.146C211.497 374.201 209.91 374.855 208.748 376.027L191.217 393.558V354.305H234.184V374.201ZM108.074 298.869H151.041V341.836H108.084V298.869H108.074ZM163.499 298.869H206.466V341.836H163.499V298.869ZM135.792 354.295H178.758V397.261H135.792V354.295ZM34.6402 250C34.6402 225.788 38.6444 202.064 46.4037 179.616L69.0282 188.185C73.8415 190.01 76.6423 194.492 76.1547 199.616L75.5427 206.1C74.4224 218.071 78.9141 228.869 88.2087 236.504L100.667 246.753C108.126 252.894 110.844 262.386 107.742 271.535C106.113 276.338 105.563 281.432 106.082 286.421H101.86C98.4265 286.421 95.6361 289.212 95.6361 292.645V341.836H74.1423C70.7087 341.836 67.9182 344.627 67.9182 348.06V365.062C46.0925 330.716 34.6402 291.307 34.6402 250ZM80.3664 354.295H123.333V397.261H80.3664V354.295ZM244.9 477.811C241.269 484.098 235.283 487.552 228.022 487.552H45.2108C39.2149 487.552 34.1527 483.662 32.5966 477.873L14.329 409.71H190.066C191.715 409.71 193.302 409.056 194.464 407.884L215.709 386.639H297.534L244.9 477.811ZM266.839 464.72L313.717 383.527C314.827 381.598 314.827 379.232 313.717 377.303C312.607 375.373 310.553 374.191 308.323 374.191H246.632V348.06C246.632 344.627 243.841 341.836 240.408 341.836H229.505C231.124 337.49 234.505 333.932 239.039 332.106C259.702 323.786 272.182 303.237 270.097 280.954L270.034 280.322C269.528 274.776 267.068 269.59 263.093 265.69C259.118 261.789 253.887 259.427 248.333 259.025L205.418 255.809C202.918 255.622 200.605 254.378 198.893 252.303C197.899 251.091 197.16 249.691 196.719 248.187C196.279 246.682 196.147 245.104 196.331 243.548C197.151 236.535 194.9 229.834 189.972 224.658C184.63 219.046 177.462 216.525 169.775 217.552L147.047 220.602L131.881 205.083L128.105 181.598L157.887 186.784C164.951 188.019 171.85 186.12 177.285 181.442C182.731 176.764 185.636 170.239 185.48 163.071C185.397 159.346 187.171 155.975 190.335 153.807L198.582 148.154C204.495 144.098 207.109 137.012 205.242 130.093C203.395 123.257 197.649 118.465 190.595 117.863C187.441 117.593 184.941 116.286 182.939 113.838C180.937 111.39 180.128 108.683 180.491 105.539C182.119 91.0996 176.072 77.2199 164.308 68.4232L151.144 58.5788C181.528 42.832 215.19 34.6162 249.993 34.6162C276.3 34.6162 301.891 39.2842 325.906 48.3403L320.989 63.8693C317.524 74.8133 318.624 85.9025 324.163 95.9544C326.165 99.5954 327.265 102.313 326.922 105.436C326.456 109.627 324.983 112.531 322.545 114.046C310.844 121.307 310.47 128.994 310.117 136.432C309.972 139.502 309.817 142.676 308.914 146.442C307.41 152.759 307.929 157.749 310.501 161.691C313.956 166.971 319.983 168.6 324.225 169.378L340.232 172.282C344.536 173.06 347.908 174.471 351.487 176.981C363.157 185.166 378.478 185.446 390.543 177.687L394.713 175.01C395.729 174.357 396.777 174.326 397.825 174.917C398.873 175.508 399.391 176.421 399.36 177.624L398.862 197.842C398.675 205.28 394.163 211.286 387.078 213.527L379.246 216.006C365.47 220.373 355.346 229.772 349.983 243.195C344.619 256.618 345.48 270.405 352.462 283.06L353.883 285.643C360.169 297.033 361.881 308.755 359.132 321.473C354.453 343.071 361.352 365.249 377.576 380.788L401.518 403.724C366.507 438.257 319.526 460.726 266.839 464.72ZM465.366 250C465.366 305.923 444.568 356.608 410.128 394.751L386.196 371.815C373.115 359.284 367.555 341.463 371.31 324.118C374.723 308.33 372.597 293.786 364.796 279.647L363.375 277.064C358.178 267.656 357.566 257.811 361.559 247.832C365.543 237.853 372.763 231.141 383.012 227.894L390.844 225.415C402.97 221.577 410.999 210.882 411.321 198.164L411.819 177.946C411.964 172.116 409.018 166.929 403.935 164.077C398.852 161.224 392.887 161.4 387.991 164.554L383.821 167.23C375.916 172.313 366.269 172.147 358.644 166.795C353.624 163.278 348.489 161.131 342.462 160.042L326.456 157.137C322.296 156.38 321.207 155.322 320.937 154.896C320.667 154.481 320.138 153.122 321.041 149.346C322.213 144.45 322.41 140.342 322.566 137.044C322.877 130.612 322.98 128.454 329.122 124.637C334.9 121.048 338.427 114.886 339.319 106.815C340.055 100.093 337.721 94.7407 335.086 89.9585C331.175 82.8735 330.439 75.3631 332.877 67.6349L337.483 53.0913C350.937 59.0871 363.821 66.5145 375.989 75.3008C376.837 79.4433 378.112 83.4864 379.796 87.3652C379.817 87.417 379.837 87.4585 379.858 87.5104L431.725 199.378C432.742 201.577 434.951 202.988 437.368 202.988C439.785 202.988 441.995 201.577 443.012 199.378L452.991 177.853C461.196 200.944 465.366 225.135 465.366 250ZM483.541 82.3652L437.358 181.981L391.165 82.3652C388.499 76.1826 387.151 69.5436 387.151 62.6556C387.151 34.9793 409.671 12.4585 437.348 12.4585C465.024 12.4585 487.555 34.9689 487.555 62.6452C487.555 69.5436 486.207 76.1826 483.541 82.3652ZM437.358 25.4564C416.85 25.4564 400.169 42.1369 400.169 62.6452C400.169 83.1535 416.85 99.834 437.358 99.834C457.866 99.834 474.547 83.1535 474.547 62.6452C474.547 42.1369 457.866 25.4564 437.358 25.4564ZM437.358 87.3963C423.717 87.3963 412.617 76.2967 412.617 62.6556C412.617 49.0145 423.717 37.9149 437.358 37.9149C450.999 37.9149 462.099 49.0145 462.099 62.6556C462.099 76.2967 450.999 87.3963 437.358 87.3963ZM106.736 50.9959C106.736 36.7427 95.1381 25.1452 80.885 25.1452C66.6319 25.1452 55.024 36.7427 55.024 50.9959C55.024 65.249 66.6215 76.8465 80.8746 76.8465C95.1278 76.8465 106.736 65.249 106.736 50.9959ZM67.4722 50.9959C67.4722 43.5996 73.4888 37.5934 80.8746 37.5934C88.2605 37.5934 94.2771 43.61 94.2771 50.9959C94.2771 58.3817 88.2605 64.3983 80.8746 64.3983C73.4888 64.3983 67.4722 58.3921 67.4722 50.9959Z" fill="#C1C7CD"/>
</svg>
