<svg xmlns="http://www.w3.org/2000/svg" width="621" height="177" viewBox="0 0 621 177" fill="none">
<path fill-rule="evenodd" clip-rule="evenodd" d="M15.0116 82.5813C15.0116 82.5813 11.6508 67.1291 11.6508 54.5881C11.4267 42.0472 11.6508 39.8077 21.7332 37.5683C29.575 35.7767 85.3643 30.402 86.2605 46.75C86.7086 55.2599 83.5719 75.639 82.0035 86.1644C80.6592 96.6898 76.1781 109.455 73.9376 111.694C71.697 110.351 65.1995 106.767 60.0463 102.288C53.9968 96.9138 53.7728 94.2264 52.4285 89.9715C51.0841 85.7165 51.0841 80.1179 51.0841 80.1179L67.6641 86.1644C67.6641 86.1644 70.3527 90.6433 73.4895 90.4194C76.6262 90.1954 77.0743 88.1799 78.1946 84.3728C79.3148 80.5658 80.4351 76.3108 77.0743 72.7277C73.7135 69.3685 52.2044 49.8853 52.2044 49.8853L53.5487 38.9119C53.5487 38.9119 23.7496 48.3176 15.0116 82.1334V82.5813ZM3.13674 30.8499C3.13674 30.8499 -7.27302e-07 31.7457 -7.27302e-07 36.6725C-7.27302e-07 41.5993 5.37728 90.8673 10.0824 105.2C14.7875 119.532 17.2521 124.907 28.0067 129.834C38.9853 134.761 48.3955 137 48.3955 137L62.7349 131.401C62.7349 131.401 78.4186 126.027 82.6756 112.59C86.9326 99.1532 89.1732 88.4039 91.6378 69.8164C94.1024 51.4529 94.9986 35.5528 94.9986 35.5528C94.9986 35.5528 95.2226 32.6415 90.0694 31.0739C68.5603 24.5794 24.6459 26.8189 2.91269 31.0739L3.13674 30.8499ZM47.4993 122.891C44.5866 122.667 36.7447 121.1 31.3674 112.366C24.4218 101.393 29.7991 84.8207 34.5042 75.415C39.2093 66.0093 47.7233 59.067 47.7233 59.067L69.2324 74.7432C69.2324 74.7432 73.0414 78.9982 68.7843 78.5503C64.5273 78.1024 48.6196 68.2488 48.6196 68.2488C48.6196 68.2488 43.4663 76.0869 42.5701 89.9715C42.122 97.1377 42.122 116.621 48.1714 121.772C47.9474 121.996 47.9474 122.444 47.7233 122.667L47.4993 122.891Z" fill="#002b5b"/>
<path d="M130.438 82.9375V111.188C130.438 114.562 131.583 116.833 133.875 118C134.833 118.542 135.875 118.958 137 119.25C138.167 119.542 139.271 120 140.312 120.625V125H112.562V120.625C113.438 120 114.417 119.542 115.5 119.25C116.625 118.917 117.667 118.5 118.625 118C120.917 116.833 122.062 114.562 122.062 111.188V60.625L130.438 82.9375ZM124.438 51.25C123.729 49.5 123.083 47.9583 122.5 46.625C121.417 46.375 120.292 46.125 119.125 45.875C118 45.625 116.875 45.375 115.75 45.125C113.333 44.5 111.458 43.9167 110.125 43.375V36.1875H140.25L167.312 107.062L162.812 125H152.062L124.438 51.25ZM165.562 87.0625L178.312 36.1875H211.312V40.875C210.188 41.3333 209.104 41.6875 208.062 41.9375C207.021 42.1458 206.083 42.4583 205.25 42.875C203.417 43.7917 202.5 45.5625 202.5 48.1875V113.125C202.5 115.708 203.417 117.458 205.25 118.375C206.083 118.792 207.021 119.125 208.062 119.375C209.104 119.583 210.188 119.917 211.312 120.375V125H173.25V120.375C174.375 119.917 175.458 119.583 176.5 119.375C177.583 119.125 178.542 118.792 179.375 118.375C181.25 117.458 182.188 115.708 182.188 113.125V49.625H181.875L169.812 98.0625L165.562 87.0625ZM247.875 68.4375C242.833 70.2708 240.312 78.625 240.312 93.5C240.312 100.833 240.875 106.562 242 110.688C243.167 114.771 245.125 117.354 247.875 118.438V125.938C239.583 125.271 232.75 121.938 227.375 115.938C221.958 109.896 219.25 102.479 219.25 93.6875C219.25 85.0625 221.958 77.625 227.375 71.375C232.917 65.0833 239.75 61.6042 247.875 60.9375V68.4375ZM261.062 93.5C261.062 78.625 258.521 70.2708 253.438 68.4375V60.9375C261.688 61.6042 268.521 65.0833 273.938 71.375C279.354 77.625 282.062 85.0625 282.062 93.6875C282.062 102.479 279.354 109.896 273.938 115.938C268.562 121.938 261.729 125.271 253.438 125.938V118.438C256.188 117.396 258.146 114.833 259.312 110.75C260.479 106.625 261.062 100.875 261.062 93.5ZM324.438 98L331.812 76.875C332.688 74.3333 333.125 72.6042 333.125 71.6875C333.125 70.7708 332.875 70.0833 332.375 69.625C331.917 69.1667 331.333 68.7917 330.625 68.5C329.958 68.2083 329.208 67.9583 328.375 67.75C327.583 67.5 326.854 67.1875 326.188 66.8125V62.1875H348.562V66.4375C347.979 66.8125 347.312 67.1458 346.562 67.4375C345.812 67.7292 345.083 68.0625 344.375 68.4375C342.667 69.3542 341.542 70.5625 341 72.0625L328.125 107.688L324.438 98ZM321.688 125H310.625L290.625 73.75C289.458 70.7917 287.458 68.875 284.625 68C283.917 67.75 283.229 67.3958 282.562 66.9375V62.1875H316.812V66.8125C316.146 67.2708 315.375 67.625 314.5 67.875C313.667 68.125 312.875 68.3958 312.125 68.6875C310.25 69.3958 309.312 70.4375 309.312 71.8125C309.312 72.9792 311.417 79.1458 315.625 90.3125C319.833 101.479 323.021 110.021 325.188 115.938L321.688 125ZM385.062 118.438C393.438 118.021 399.062 113.396 401.938 104.562L407.688 107.188C404.562 118.646 397.021 124.896 385.062 125.938V118.438ZM383.188 60.9375C391.771 61.5625 398.208 64.9792 402.5 71.1875C406.333 76.6875 408.25 84.0417 408.25 93.25H376.062V86.875H389C389 81.5417 388.583 77.3333 387.75 74.25C386.958 71.125 385.438 69.1875 383.188 68.4375V60.9375ZM379.5 125.938C370.458 125.229 363.167 121.708 357.625 115.375C352.458 109.5 349.875 102.271 349.875 93.6875C349.875 84.6875 352.479 77.125 357.688 71C362.854 64.875 369.5 61.5208 377.625 60.9375V68.4375C374.875 69.3958 372.938 71.9792 371.812 76.1875C370.729 80.3958 370.188 85.1458 370.188 90.4375C370.188 95.6875 370.312 99.625 370.562 102.25C370.854 104.833 371.354 107.167 372.062 109.25C373.521 113.625 376 116.688 379.5 118.438V125.938ZM442.125 106.875L437.188 113.375C436.271 114.625 435.812 115.708 435.812 116.625C435.812 117.542 436.042 118.188 436.5 118.562C437 118.938 437.604 119.25 438.312 119.5C439.021 119.708 439.792 119.917 440.625 120.125C441.458 120.333 442.229 120.667 442.938 121.125V125H415.438V120.625C415.979 120.083 416.708 119.688 417.625 119.438C418.542 119.188 419.583 118.833 420.75 118.375C423.917 117.167 426.812 114.917 429.438 111.625L437.875 101.062L442.125 106.875ZM425.188 73.5C423.021 70.5417 420.583 68.5833 417.875 67.625C417.208 67.4167 416.604 67.1042 416.062 66.6875V62.1875H451.312V66.4375C450.729 66.8125 450.104 67.125 449.438 67.375C448.812 67.5833 448.229 67.8333 447.688 68.125C446.479 68.7083 445.875 69.3542 445.875 70.0625C445.875 70.7708 445.979 71.3958 446.188 71.9375C446.438 72.4792 446.792 73.0833 447.25 73.75C447.708 74.5417 449 76.3958 451.125 79.3125L476.562 114.875C478.479 117.625 480.833 119.292 483.625 119.875C484.208 120 484.729 120.25 485.188 120.625V125H449.312V121C449.854 120.542 450.438 120.125 451.062 119.75C451.729 119.333 452.354 118.917 452.938 118.5C454.312 117.458 455 116.354 455 115.188C455 115.062 454.25 114 452.75 112C451.292 110 450.375 108.729 450 108.188L425.188 73.5ZM457.875 79.125L461.812 74.125C462.938 72.7083 463.5 71.6042 463.5 70.8125C463.5 70.0208 463.271 69.4583 462.812 69.125C462.396 68.75 461.896 68.4583 461.312 68.25C460.729 68.0417 460.104 67.8333 459.438 67.625C458.812 67.4167 458.312 67.1042 457.938 66.6875V62.1875H483.438V66.6875C481.854 66.6875 479.833 67.4375 477.375 68.9375C474.917 70.3958 472.479 72.5625 470.062 75.4375L462.062 85L457.875 79.125ZM526.188 123.75C523.438 125.208 519.312 125.938 513.812 125.938C508.312 125.938 504.104 124.375 501.188 121.25C498.271 118.125 496.812 113.375 496.812 107V73.0625C496.812 70.8542 495.812 69.3542 493.812 68.5625C492.979 68.2292 492.083 67.9583 491.125 67.75C490.208 67.5417 489.396 67.1458 488.688 66.5625V62.1875H515.375V108.688C515.375 111.854 515.875 114.271 516.875 115.938C517.917 117.604 519.396 118.438 521.312 118.438C523.229 118.438 524.854 118 526.188 117.125V123.75ZM531.812 73.0625C531.812 70.8542 530.812 69.3542 528.812 68.5625C527.979 68.2292 527.083 67.9583 526.125 67.75C525.208 67.5 524.354 67.1042 523.562 66.5625V62.1875H550.312V114.25C550.312 116.375 551.312 117.833 553.312 118.625C554.146 118.958 555.021 119.25 555.938 119.5C556.896 119.708 557.729 120.083 558.438 120.625V125H531.812V73.0625ZM588.312 68.4375C584.479 69.4792 582.562 71.2917 582.562 73.875C582.562 78.0417 586.208 81.5208 593.5 84.3125C599.25 86.5208 603.312 88.25 605.688 89.5C608.104 90.7083 610.125 92.0417 611.75 93.5C615.375 96.8333 617.188 100.979 617.188 105.938C617.188 111.812 614.958 116.521 610.5 120.062C606.167 123.479 600.625 125.438 593.875 125.938V118.438C598.25 117.396 600.438 114.979 600.438 111.188C600.438 107.271 596.854 103.917 589.688 101.125C584.062 98.9583 580.062 97.2708 577.688 96.0625C575.354 94.8542 573.396 93.5417 571.812 92.125C568.271 88.9583 566.5 85.0625 566.5 80.4375C566.5 75.4375 568.625 71 572.875 67.125C577.167 63.25 582.312 61.1875 588.312 60.9375V68.4375ZM605.438 69.75C604.521 69.375 600.667 68.9375 593.875 68.4375V60.9375C601.125 61.2292 606.792 62.9583 610.875 66.125C614.292 68.7917 616 71.75 616 75C616 79.0417 614.458 81.7083 611.375 83C610.292 83.4167 608.792 83.625 606.875 83.625C604.958 83.625 603.375 83.0208 602.125 81.8125C600.917 80.5625 600.312 79.0417 600.312 77.25C600.312 74.2083 602.021 71.7083 605.438 69.75ZM577.562 116.688C578.646 117.646 582.229 118.229 588.312 118.438V125.938C581.396 125.396 575.958 123.562 572 120.438C568.667 117.771 567 114.729 567 111.312C567 109.062 567.625 107.229 568.875 105.812C570.125 104.354 572.021 103.625 574.562 103.625C577.104 103.625 578.979 104.188 580.188 105.312C581.438 106.438 582.062 107.896 582.062 109.688C582.062 112.812 580.562 115.146 577.562 116.688Z" fill="#002b5b"/>
</svg>