<svg width="2575" height="512" viewBox="0 0 2575 512" fill="none" xmlns="http://www.w3.org/2000/svg">
<path d="M256.8 496C254.678 496 252.643 495.157 251.143 493.657C249.643 492.157 248.8 490.122 248.8 488C248.8 485.878 249.643 483.843 251.143 482.343C252.643 480.843 254.678 480 256.8 480C308.84 480 352.8 377.424 352.8 256C352.8 134.576 308.88 32 256.8 32C254.678 32 252.643 31.1571 251.143 29.6569C249.643 28.1566 248.8 26.1217 248.8 24C248.8 21.8783 249.643 19.8434 251.143 18.3431C252.643 16.8429 254.678 16 256.8 16C320.452 16 381.497 41.2856 426.505 86.2944C471.514 131.303 496.8 192.348 496.8 256C496.8 319.652 471.514 380.697 426.505 425.706C381.497 470.714 320.452 496 256.8 496ZM303.296 36.8C342.288 73.96 368.84 157.096 368.84 256C368.84 354.904 342.288 438 303.296 475.2C353.552 464.58 398.631 437.01 430.98 397.111C463.329 357.211 480.983 307.406 480.983 256.04C480.983 204.674 463.329 154.869 430.98 114.969C398.631 75.0697 353.552 47.5001 303.296 36.88V36.8Z" fill="white"/>
<path d="M488.84 264H256C253.878 264 251.843 263.157 250.343 261.657C248.843 260.157 248 258.122 248 256C248 253.878 248.843 251.843 250.343 250.343C251.843 248.843 253.878 248 256 248H488.8C490.922 248 492.957 248.843 494.457 250.343C495.957 251.843 496.8 253.878 496.8 256C496.8 258.122 495.957 260.157 494.457 261.657C492.957 263.157 490.922 264 488.8 264H488.84ZM456.84 144H256C253.878 144 251.843 143.157 250.343 141.657C248.843 140.157 248 138.122 248 136C248 133.878 248.843 131.843 250.343 130.343C251.843 128.843 253.878 128 256 128H456.8C458.922 128 460.957 128.843 462.457 130.343C463.957 131.843 464.8 133.878 464.8 136C464.8 138.122 463.957 140.157 462.457 141.657C460.957 143.157 458.922 144 456.8 144H456.84ZM456.84 384H256C253.878 384 251.843 383.157 250.343 381.657C248.843 380.157 248 378.122 248 376C248 373.878 248.843 371.843 250.343 370.343C251.843 368.843 253.878 368 256 368H456.8C458.922 368 460.957 368.843 462.457 370.343C463.957 371.843 464.8 373.878 464.8 376C464.8 378.122 463.957 380.157 462.457 381.657C460.957 383.157 458.922 384 456.8 384H456.84Z" fill="white"/>
<path d="M256 496C253.878 496 251.843 495.157 250.343 493.657C248.843 492.157 248 490.122 248 488V24C248 21.8783 248.843 19.8434 250.343 18.3431C251.843 16.8429 253.878 16 256 16C258.122 16 260.157 16.8429 261.657 18.3431C263.157 19.8434 264 21.8783 264 24V488C264 490.122 263.157 492.157 261.657 493.657C260.157 495.157 258.122 496 256 496Z" fill="white"/>
<path d="M195.96 39.9038C200.378 39.9038 203.96 36.3221 203.96 31.9038C203.96 27.4855 200.378 23.9038 195.96 23.9038C191.542 23.9038 187.96 27.4855 187.96 31.9038C187.96 36.3221 191.542 39.9038 195.96 39.9038Z" fill="white"/>
<path d="M140.008 63.0801C144.426 63.0801 148.008 59.4984 148.008 55.0801C148.008 50.6618 144.426 47.0801 140.008 47.0801C135.59 47.0801 132.008 50.6618 132.008 55.0801C132.008 59.4984 135.59 63.0801 140.008 63.0801Z" fill="white"/>
<path d="M91.96 99.9521C96.3782 99.9521 99.96 96.3704 99.96 91.9521C99.96 87.5339 96.3782 83.9521 91.96 83.9521C87.5417 83.9521 83.96 87.5339 83.96 91.9521C83.96 96.3704 87.5417 99.9521 91.96 99.9521Z" fill="white"/>
<path d="M55.0879 147.992C59.5062 147.992 63.0879 144.41 63.0879 139.992C63.0879 135.574 59.5062 131.992 55.0879 131.992C50.6696 131.992 47.0879 135.574 47.0879 139.992C47.0879 144.41 50.6696 147.992 55.0879 147.992Z" fill="white"/>
<path d="M31.9116 203.944C36.3299 203.944 39.9116 200.362 39.9116 195.944C39.9116 191.526 36.3299 187.944 31.9116 187.944C27.4933 187.944 23.9116 191.526 23.9116 195.944C23.9116 200.362 27.4933 203.944 31.9116 203.944Z" fill="white"/>
<path d="M24.0078 263.992C28.4261 263.992 32.0078 260.41 32.0078 255.992C32.0078 251.574 28.4261 247.992 24.0078 247.992C19.5895 247.992 16.0078 251.574 16.0078 255.992C16.0078 260.41 19.5895 263.992 24.0078 263.992Z" fill="white"/>
<path d="M31.9116 324.032C36.3299 324.032 39.9116 320.451 39.9116 316.032C39.9116 311.614 36.3299 308.032 31.9116 308.032C27.4933 308.032 23.9116 311.614 23.9116 316.032C23.9116 320.451 27.4933 324.032 31.9116 324.032Z" fill="white"/>
<path d="M55.0879 379.984C59.5062 379.984 63.0879 376.402 63.0879 371.984C63.0879 367.566 59.5062 363.984 55.0879 363.984C50.6696 363.984 47.0879 367.566 47.0879 371.984C47.0879 376.402 50.6696 379.984 55.0879 379.984Z" fill="white"/>
<path d="M91.96 428.032C96.3782 428.032 99.96 424.451 99.96 420.032C99.96 415.614 96.3782 412.032 91.96 412.032C87.5417 412.032 83.96 415.614 83.96 420.032C83.96 424.451 87.5417 428.032 91.96 428.032Z" fill="white"/>
<path d="M140.008 464.896C144.426 464.896 148.008 461.314 148.008 456.896C148.008 452.478 144.426 448.896 140.008 448.896C135.59 448.896 132.008 452.478 132.008 456.896C132.008 461.314 135.59 464.896 140.008 464.896Z" fill="white"/>
<path d="M195.96 488.072C200.378 488.072 203.96 484.49 203.96 480.072C203.96 475.653 200.378 472.072 195.96 472.072C191.542 472.072 187.96 475.653 187.96 480.072C187.96 484.49 191.542 488.072 195.96 488.072Z" fill="white"/>
<path d="M92.7461 247.277V291.418C92.7461 296.691 94.5365 300.24 98.1172 302.062C99.6146 302.909 101.242 303.56 103 304.016C104.823 304.471 106.548 305.188 108.176 306.164V313H64.8164V306.164C66.1836 305.188 67.7135 304.471 69.4062 304.016C71.1641 303.495 72.7917 302.844 74.2891 302.062C77.8698 300.24 79.6602 296.691 79.6602 291.418V212.414L92.7461 247.277ZM83.3711 197.766C82.2643 195.031 81.2552 192.622 80.3438 190.539C78.651 190.148 76.8932 189.758 75.0703 189.367C73.3125 188.977 71.5547 188.586 69.7969 188.195C66.0208 187.219 63.0911 186.307 61.0078 185.461V174.23H108.078L150.363 284.973L143.332 313H126.535L83.3711 197.766ZM147.629 253.723L167.551 174.23H219.113V181.555C217.355 182.271 215.663 182.824 214.035 183.215C212.408 183.54 210.943 184.029 209.641 184.68C206.776 186.112 205.344 188.879 205.344 192.98V294.445C205.344 298.482 206.776 301.216 209.641 302.648C210.943 303.299 212.408 303.82 214.035 304.211C215.663 304.536 217.355 305.057 219.113 305.773V313H159.641V305.773C161.398 305.057 163.091 304.536 164.719 304.211C166.411 303.82 167.909 303.299 169.211 302.648C172.141 301.216 173.605 298.482 173.605 294.445V195.227H173.117L154.27 270.91L147.629 253.723Z" fill="white"/>
<path d="M658.365 289.693V400.045C658.365 413.229 662.841 422.099 671.793 426.656C675.536 428.772 679.605 430.4 684 431.539C688.557 432.678 692.87 434.469 696.939 436.91V454H588.541V436.91C591.959 434.469 595.784 432.678 600.016 431.539C604.41 430.237 608.479 428.609 612.223 426.656C621.174 422.099 625.65 413.229 625.65 400.045V202.535L658.365 289.693ZM634.928 165.914C632.161 159.078 629.638 153.056 627.359 147.848C623.128 146.871 618.733 145.895 614.176 144.918C609.781 143.941 605.387 142.965 600.992 141.988C591.552 139.547 584.228 137.268 579.02 135.152V107.076H696.695L802.408 383.932L784.83 454H742.838L634.928 165.914ZM795.572 305.807L845.377 107.076H974.283V125.387C969.889 127.177 965.657 128.561 961.588 129.537C957.519 130.351 953.857 131.572 950.602 133.199C943.44 136.78 939.859 143.697 939.859 153.951V407.613C939.859 417.704 943.44 424.54 950.602 428.121C953.857 429.749 957.519 431.051 961.588 432.027C965.657 432.841 969.889 434.143 974.283 435.934V454H825.602V435.934C829.996 434.143 834.228 432.841 838.297 432.027C842.529 431.051 846.272 429.749 849.527 428.121C856.852 424.54 860.514 417.704 860.514 407.613V159.566H859.293L812.174 348.775L795.572 305.807ZM1117.11 233.053C1097.41 240.214 1087.56 272.848 1087.56 330.953C1087.56 359.599 1089.76 381.979 1094.16 398.092C1098.71 414.042 1106.36 424.133 1117.11 428.365V457.662C1084.72 455.058 1058.02 442.037 1037.03 418.6C1015.87 394.999 1005.29 366.028 1005.29 331.686C1005.29 297.994 1015.87 268.941 1037.03 244.527C1058.67 219.951 1085.37 206.36 1117.11 203.756V233.053ZM1168.62 330.953C1168.62 272.848 1158.69 240.214 1138.83 233.053V203.756C1171.06 206.36 1197.75 219.951 1218.91 244.527C1240.07 268.941 1250.65 297.994 1250.65 331.686C1250.65 366.028 1240.07 394.999 1218.91 418.6C1197.92 442.037 1171.22 455.058 1138.83 457.662V428.365C1149.58 424.296 1157.23 414.286 1161.78 398.336C1166.34 382.223 1168.62 359.762 1168.62 330.953ZM1416.18 348.531L1444.99 266.012C1448.4 256.083 1450.11 249.329 1450.11 245.748C1450.11 242.167 1449.14 239.482 1447.18 237.691C1445.39 235.901 1443.11 234.436 1440.35 233.297C1437.74 232.158 1434.81 231.181 1431.56 230.367C1428.47 229.391 1425.62 228.17 1423.01 226.705V208.639H1510.42V225.24C1508.14 226.705 1505.53 228.007 1502.6 229.146C1499.67 230.286 1496.83 231.588 1494.06 233.053C1487.39 236.633 1482.99 241.354 1480.88 247.213L1430.58 386.373L1416.18 348.531ZM1405.44 454H1362.22L1284.1 253.805C1279.54 242.249 1271.73 234.762 1260.66 231.344C1257.89 230.367 1255.21 228.984 1252.6 227.193V208.639H1386.39V226.705C1383.79 228.495 1380.78 229.879 1377.36 230.855C1374.1 231.832 1371.01 232.89 1368.08 234.029C1360.76 236.796 1357.1 240.865 1357.1 246.236C1357.1 250.794 1365.32 274.882 1381.75 318.502C1398.19 362.122 1410.64 395.488 1419.11 418.6L1405.44 454ZM1652.99 428.365C1685.71 426.738 1707.68 408.671 1718.91 374.166L1741.37 384.42C1729.17 429.179 1699.71 453.593 1652.99 457.662V428.365ZM1645.67 203.756C1679.2 206.197 1704.35 219.544 1721.11 243.795C1736.08 265.279 1743.57 294.007 1743.57 329.977H1617.84V305.074H1668.38C1668.38 284.241 1666.75 267.802 1663.49 255.758C1660.4 243.551 1654.46 235.982 1645.67 233.053V203.756ZM1631.27 457.662C1595.95 454.895 1567.46 441.142 1545.82 416.402C1525.63 393.453 1515.54 365.214 1515.54 331.686C1515.54 296.529 1525.72 266.988 1546.06 243.062C1566.24 219.137 1592.2 206.035 1623.94 203.756V233.053C1613.2 236.796 1605.63 246.887 1601.24 263.326C1597 279.765 1594.89 298.32 1594.89 318.99C1594.89 339.498 1595.38 354.879 1596.35 365.133C1597.49 375.224 1599.45 384.339 1602.21 392.477C1607.91 409.566 1617.59 421.529 1631.27 428.365V457.662ZM1875.89 383.199L1856.61 408.59C1853.03 413.473 1851.24 417.704 1851.24 421.285C1851.24 424.866 1852.13 427.389 1853.92 428.854C1855.88 430.318 1858.24 431.539 1861 432.516C1863.77 433.329 1866.78 434.143 1870.04 434.957C1873.29 435.771 1876.3 437.073 1879.07 438.863V454H1771.65V436.91C1773.76 434.794 1776.61 433.248 1780.19 432.271C1783.77 431.295 1787.84 429.911 1792.4 428.121C1804.77 423.401 1816.08 414.612 1826.33 401.754L1859.29 360.494L1875.89 383.199ZM1809.73 252.828C1801.27 241.272 1791.75 233.622 1781.17 229.879C1778.56 229.065 1776.2 227.844 1774.09 226.217V208.639H1911.78V225.24C1909.5 226.705 1907.06 227.926 1904.46 228.902C1902.02 229.716 1899.74 230.693 1897.62 231.832C1892.9 234.111 1890.54 236.633 1890.54 239.4C1890.54 242.167 1890.95 244.609 1891.76 246.725C1892.74 248.84 1894.12 251.201 1895.91 253.805C1897.7 256.897 1902.75 264.14 1911.05 275.533L2010.42 414.449C2017.9 425.191 2027.1 431.702 2038 433.98C2040.28 434.469 2042.32 435.445 2044.11 436.91V454H1903.97V438.375C1906.09 436.585 1908.37 434.957 1910.81 433.492C1913.41 431.865 1915.85 430.237 1918.13 428.609C1923.5 424.54 1926.19 420.227 1926.19 415.67C1926.19 415.182 1923.26 411.031 1917.4 403.219C1911.7 395.406 1908.12 390.442 1906.66 388.326L1809.73 252.828ZM1937.42 274.801L1952.8 255.27C1957.19 249.736 1959.39 245.423 1959.39 242.33C1959.39 239.238 1958.5 237.04 1956.71 235.738C1955.08 234.273 1953.12 233.134 1950.85 232.32C1948.57 231.507 1946.13 230.693 1943.52 229.879C1941.08 229.065 1939.13 227.844 1937.66 226.217V208.639H2037.27V226.217C2031.09 226.217 2023.19 229.146 2013.59 235.006C2003.99 240.702 1994.47 249.166 1985.03 260.396L1953.78 297.75L1937.42 274.801ZM2204.26 449.117C2193.52 454.814 2177.41 457.662 2155.92 457.662C2134.44 457.662 2118 451.559 2106.61 439.352C2095.21 427.145 2089.52 408.59 2089.52 383.688V251.119C2089.52 242.493 2085.61 236.633 2077.8 233.541C2074.54 232.239 2071.04 231.181 2067.3 230.367C2063.72 229.553 2060.55 228.007 2057.78 225.729V208.639H2162.03V390.279C2162.03 402.649 2163.98 412.089 2167.89 418.6C2171.96 425.11 2177.73 428.365 2185.22 428.365C2192.71 428.365 2199.06 426.656 2204.26 423.238V449.117ZM2226.24 251.119C2226.24 242.493 2222.33 236.633 2214.52 233.541C2211.26 232.239 2207.76 231.181 2204.02 230.367C2200.44 229.391 2197.1 227.844 2194.01 225.729V208.639H2298.5V412.008C2298.5 420.309 2302.41 426.005 2310.22 429.098C2313.48 430.4 2316.89 431.539 2320.47 432.516C2324.22 433.329 2327.47 434.794 2330.24 436.91V454H2226.24V251.119ZM2446.94 233.053C2431.97 237.122 2424.48 244.202 2424.48 254.293C2424.48 270.569 2438.72 284.16 2467.2 295.064C2489.66 303.691 2505.53 310.445 2514.81 315.328C2524.25 320.048 2532.14 325.257 2538.49 330.953C2552.65 343.974 2559.73 360.169 2559.73 379.537C2559.73 402.486 2551.02 420.878 2533.61 434.713C2516.68 448.059 2495.04 455.709 2468.67 457.662V428.365C2485.76 424.296 2494.3 414.856 2494.3 400.045C2494.3 384.745 2480.31 371.643 2452.31 360.738C2430.34 352.275 2414.71 345.683 2405.44 340.963C2396.32 336.243 2388.67 331.116 2382.49 325.582C2368.65 313.212 2361.73 297.994 2361.73 279.928C2361.73 260.396 2370.04 243.062 2386.64 227.926C2403.4 212.789 2423.5 204.732 2446.94 203.756V233.053ZM2513.83 238.18C2510.25 236.715 2495.2 235.006 2468.67 233.053V203.756C2496.99 204.895 2519.12 211.65 2535.07 224.02C2548.42 234.436 2555.09 245.992 2555.09 258.688C2555.09 274.475 2549.07 284.892 2537.03 289.938C2532.8 291.565 2526.94 292.379 2519.45 292.379C2511.96 292.379 2505.78 290.019 2500.89 285.299C2496.17 280.416 2493.81 274.475 2493.81 267.477C2493.81 255.595 2500.49 245.829 2513.83 238.18ZM2404.95 421.529C2409.18 425.273 2423.18 427.551 2446.94 428.365V457.662C2419.92 455.546 2398.68 448.385 2383.22 436.178C2370.2 425.761 2363.69 413.88 2363.69 400.533C2363.69 391.744 2366.13 384.583 2371.01 379.049C2375.89 373.352 2383.3 370.504 2393.23 370.504C2403.16 370.504 2410.48 372.701 2415.2 377.096C2420.08 381.49 2422.53 387.187 2422.53 394.186C2422.53 406.393 2416.67 415.507 2404.95 421.529Z" fill="white"/>
</svg>
