<svg width="2575" height="512" viewBox="0 0 2575 512" fill="none" xmlns="http://www.w3.org/2000/svg">
<path d="M256.8 496C254.678 496 252.643 495.157 251.143 493.657C249.643 492.157 248.8 490.122 248.8 488C248.8 485.878 249.643 483.843 251.143 482.343C252.643 480.843 254.678 480 256.8 480C308.84 480 352.8 377.424 352.8 256C352.8 134.576 308.88 32 256.8 32C254.678 32 252.643 31.1571 251.143 29.6569C249.643 28.1566 248.8 26.1217 248.8 24C248.8 21.8783 249.643 19.8434 251.143 18.3431C252.643 16.8429 254.678 16 256.8 16C320.452 16 381.497 41.2856 426.505 86.2944C471.514 131.303 496.8 192.348 496.8 256C496.8 319.652 471.514 380.697 426.505 425.706C381.497 470.714 320.452 496 256.8 496ZM303.296 36.8C342.288 73.96 368.84 157.096 368.84 256C368.84 354.904 342.288 438 303.296 475.2C353.552 464.58 398.631 437.01 430.98 397.111C463.329 357.211 480.983 307.406 480.983 256.04C480.983 204.674 463.329 154.869 430.98 114.969C398.631 75.0697 353.552 47.5001 303.296 36.88V36.8Z" fill="white"/>
<path d="M488.84 264H256C253.878 264 251.843 263.157 250.343 261.657C248.843 260.157 248 258.122 248 256C248 253.878 248.843 251.843 250.343 250.343C251.843 248.843 253.878 248 256 248H488.8C490.922 248 492.957 248.843 494.457 250.343C495.957 251.843 496.8 253.878 496.8 256C496.8 258.122 495.957 260.157 494.457 261.657C492.957 263.157 490.922 264 488.8 264H488.84ZM456.84 144H256C253.878 144 251.843 143.157 250.343 141.657C248.843 140.157 248 138.122 248 136C248 133.878 248.843 131.843 250.343 130.343C251.843 128.843 253.878 128 256 128H456.8C458.922 128 460.957 128.843 462.457 130.343C463.957 131.843 464.8 133.878 464.8 136C464.8 138.122 463.957 140.157 462.457 141.657C460.957 143.157 458.922 144 456.8 144H456.84ZM456.84 384H256C253.878 384 251.843 383.157 250.343 381.657C248.843 380.157 248 378.122 248 376C248 373.878 248.843 371.843 250.343 370.343C251.843 368.843 253.878 368 256 368H456.8C458.922 368 460.957 368.843 462.457 370.343C463.957 371.843 464.8 373.878 464.8 376C464.8 378.122 463.957 380.157 462.457 381.657C460.957 383.157 458.922 384 456.8 384H456.84Z" fill="white"/>
<path d="M256 496C253.878 496 251.843 495.157 250.343 493.657C248.843 492.157 248 490.122 248 488V24C248 21.8783 248.843 19.8434 250.343 18.3431C251.843 16.8429 253.878 16 256 16C258.122 16 260.157 16.8429 261.657 18.3431C263.157 19.8434 264 21.8783 264 24V488C264 490.122 263.157 492.157 261.657 493.657C260.157 495.157 258.122 496 256 496Z" fill="white"/>
<path d="M195.96 39.9038C200.378 39.9038 203.96 36.3221 203.96 31.9038C203.96 27.4855 200.378 23.9038 195.96 23.9038C191.542 23.9038 187.96 27.4855 187.96 31.9038C187.96 36.3221 191.542 39.9038 195.96 39.9038Z" fill="white"/>
<path d="M140.008 63.0801C144.426 63.0801 148.008 59.4984 148.008 55.0801C148.008 50.6618 144.426 47.0801 140.008 47.0801C135.59 47.0801 132.008 50.6618 132.008 55.0801C132.008 59.4984 135.59 63.0801 140.008 63.0801Z" fill="white"/>
<path d="M91.96 99.9521C96.3782 99.9521 99.96 96.3704 99.96 91.9521C99.96 87.5339 96.3782 83.9521 91.96 83.9521C87.5417 83.9521 83.96 87.5339 83.96 91.9521C83.96 96.3704 87.5417 99.9521 91.96 99.9521Z" fill="white"/>
<path d="M55.0879 147.992C59.5062 147.992 63.0879 144.41 63.0879 139.992C63.0879 135.574 59.5062 131.992 55.0879 131.992C50.6696 131.992 47.0879 135.574 47.0879 139.992C47.0879 144.41 50.6696 147.992 55.0879 147.992Z" fill="white"/>
<path d="M31.9116 203.944C36.3299 203.944 39.9116 200.362 39.9116 195.944C39.9116 191.526 36.3299 187.944 31.9116 187.944C27.4933 187.944 23.9116 191.526 23.9116 195.944C23.9116 200.362 27.4933 203.944 31.9116 203.944Z" fill="white"/>
<path d="M24.0078 263.992C28.4261 263.992 32.0078 260.41 32.0078 255.992C32.0078 251.574 28.4261 247.992 24.0078 247.992C19.5895 247.992 16.0078 251.574 16.0078 255.992C16.0078 260.41 19.5895 263.992 24.0078 263.992Z" fill="white"/>
<path d="M31.9116 324.032C36.3299 324.032 39.9116 320.451 39.9116 316.032C39.9116 311.614 36.3299 308.032 31.9116 308.032C27.4933 308.032 23.9116 311.614 23.9116 316.032C23.9116 320.451 27.4933 324.032 31.9116 324.032Z" fill="white"/>
<path d="M55.0879 379.984C59.5062 379.984 63.0879 376.402 63.0879 371.984C63.0879 367.566 59.5062 363.984 55.0879 363.984C50.6696 363.984 47.0879 367.566 47.0879 371.984C47.0879 376.402 50.6696 379.984 55.0879 379.984Z" fill="white"/>
<path d="M91.96 428.032C96.3782 428.032 99.96 424.451 99.96 420.032C99.96 415.614 96.3782 412.032 91.96 412.032C87.5417 412.032 83.96 415.614 83.96 420.032C83.96 424.451 87.5417 428.032 91.96 428.032Z" fill="white"/>
<path d="M140.008 464.896C144.426 464.896 148.008 461.314 148.008 456.896C148.008 452.478 144.426 448.896 140.008 448.896C135.59 448.896 132.008 452.478 132.008 456.896C132.008 461.314 135.59 464.896 140.008 464.896Z" fill="white"/>
<path d="M195.96 488.072C200.378 488.072 203.96 484.49 203.96 480.072C203.96 475.653 200.378 472.072 195.96 472.072C191.542 472.072 187.96 475.653 187.96 480.072C187.96 484.49 191.542 488.072 195.96 488.072Z" fill="white"/>
<path d="M92.7461 247.277V291.418C92.7461 296.691 94.5365 300.24 98.1172 302.062C99.6146 302.909 101.242 303.56 103 304.016C104.823 304.471 106.548 305.188 108.176 306.164V313H64.8164V306.164C66.1836 305.188 67.7135 304.471 69.4062 304.016C71.1641 303.495 72.7917 302.844 74.2891 302.062C77.8698 300.24 79.6602 296.691 79.6602 291.418V212.414L92.7461 247.277ZM83.3711 197.766C82.2643 195.031 81.2552 192.622 80.3438 190.539C78.651 190.148 76.8932 189.758 75.0703 189.367C73.3125 188.977 71.5547 188.586 69.7969 188.195C66.0208 187.219 63.0911 186.307 61.0078 185.461V174.23H108.078L150.363 284.973L143.332 313H126.535L83.3711 197.766ZM147.629 253.723L167.551 174.23H219.113V181.555C217.355 182.271 215.663 182.824 214.035 183.215C212.408 183.54 210.943 184.029 209.641 184.68C206.776 186.112 205.344 188.879 205.344 192.98V294.445C205.344 298.482 206.776 301.216 209.641 302.648C210.943 303.299 212.408 303.82 214.035 304.211C215.663 304.536 217.355 305.057 219.113 305.773V313H159.641V305.773C161.398 305.057 163.091 304.536 164.719 304.211C166.411 303.82 167.909 303.299 169.211 302.648C172.141 301.216 173.605 298.482 173.605 294.445V195.227H173.117L154.27 270.91L147.629 253.723Z" fill="white"/>
<path d="M658.365 255.693V366.045C658.365 379.229 662.841 388.099 671.793 392.656C675.536 394.772 679.605 396.4 684 397.539C688.557 398.678 692.87 400.469 696.939 402.91V420H588.541V402.91C591.959 400.469 595.784 398.678 600.016 397.539C604.41 396.237 608.479 394.609 612.223 392.656C621.174 388.099 625.65 379.229 625.65 366.045V168.535L658.365 255.693ZM634.928 131.914C632.161 125.078 629.638 119.056 627.359 113.848C623.128 112.871 618.733 111.895 614.176 110.918C609.781 109.941 605.387 108.965 600.992 107.988C591.552 105.547 584.228 103.268 579.02 101.152V73.0762H696.695L802.408 349.932L784.83 420H742.838L634.928 131.914ZM795.572 271.807L845.377 73.0762H974.283V91.3867C969.889 93.1771 965.657 94.5605 961.588 95.5371C957.519 96.3509 953.857 97.5716 950.602 99.1992C943.44 102.78 939.859 109.697 939.859 119.951V373.613C939.859 383.704 943.44 390.54 950.602 394.121C953.857 395.749 957.519 397.051 961.588 398.027C965.657 398.841 969.889 400.143 974.283 401.934V420H825.602V401.934C829.996 400.143 834.228 398.841 838.297 398.027C842.529 397.051 846.272 395.749 849.527 394.121C856.852 390.54 860.514 383.704 860.514 373.613V125.566H859.293L812.174 314.775L795.572 271.807ZM1117.11 199.053C1097.41 206.214 1087.56 238.848 1087.56 296.953C1087.56 325.599 1089.76 347.979 1094.16 364.092C1098.71 380.042 1106.36 390.133 1117.11 394.365V423.662C1084.72 421.058 1058.02 408.037 1037.03 384.6C1015.87 360.999 1005.29 332.028 1005.29 297.686C1005.29 263.994 1015.87 234.941 1037.03 210.527C1058.67 185.951 1085.37 172.36 1117.11 169.756V199.053ZM1168.62 296.953C1168.62 238.848 1158.69 206.214 1138.83 199.053V169.756C1171.06 172.36 1197.75 185.951 1218.91 210.527C1240.07 234.941 1250.65 263.994 1250.65 297.686C1250.65 332.028 1240.07 360.999 1218.91 384.6C1197.92 408.037 1171.22 421.058 1138.83 423.662V394.365C1149.58 390.296 1157.23 380.286 1161.78 364.336C1166.34 348.223 1168.62 325.762 1168.62 296.953ZM1416.18 314.531L1444.99 232.012C1448.4 222.083 1450.11 215.329 1450.11 211.748C1450.11 208.167 1449.14 205.482 1447.18 203.691C1445.39 201.901 1443.11 200.436 1440.35 199.297C1437.74 198.158 1434.81 197.181 1431.56 196.367C1428.47 195.391 1425.62 194.17 1423.01 192.705V174.639H1510.42V191.24C1508.14 192.705 1505.53 194.007 1502.6 195.146C1499.67 196.286 1496.83 197.588 1494.06 199.053C1487.39 202.633 1482.99 207.354 1480.88 213.213L1430.58 352.373L1416.18 314.531ZM1405.44 420H1362.22L1284.1 219.805C1279.54 208.249 1271.73 200.762 1260.66 197.344C1257.89 196.367 1255.21 194.984 1252.6 193.193V174.639H1386.39V192.705C1383.79 194.495 1380.78 195.879 1377.36 196.855C1374.1 197.832 1371.01 198.89 1368.08 200.029C1360.76 202.796 1357.1 206.865 1357.1 212.236C1357.1 216.794 1365.32 240.882 1381.75 284.502C1398.19 328.122 1410.64 361.488 1419.11 384.6L1405.44 420ZM1652.99 394.365C1685.71 392.738 1707.68 374.671 1718.91 340.166L1741.37 350.42C1729.17 395.179 1699.71 419.593 1652.99 423.662V394.365ZM1645.67 169.756C1679.2 172.197 1704.35 185.544 1721.11 209.795C1736.08 231.279 1743.57 260.007 1743.57 295.977H1617.84V271.074H1668.38C1668.38 250.241 1666.75 233.802 1663.49 221.758C1660.4 209.551 1654.46 201.982 1645.67 199.053V169.756ZM1631.27 423.662C1595.95 420.895 1567.46 407.142 1545.82 382.402C1525.63 359.453 1515.54 331.214 1515.54 297.686C1515.54 262.529 1525.72 232.988 1546.06 209.062C1566.24 185.137 1592.2 172.035 1623.94 169.756V199.053C1613.2 202.796 1605.63 212.887 1601.24 229.326C1597 245.765 1594.89 264.32 1594.89 284.99C1594.89 305.498 1595.38 320.879 1596.35 331.133C1597.49 341.224 1599.45 350.339 1602.21 358.477C1607.91 375.566 1617.59 387.529 1631.27 394.365V423.662ZM1875.89 349.199L1856.61 374.59C1853.03 379.473 1851.24 383.704 1851.24 387.285C1851.24 390.866 1852.13 393.389 1853.92 394.854C1855.88 396.318 1858.24 397.539 1861 398.516C1863.77 399.329 1866.78 400.143 1870.04 400.957C1873.29 401.771 1876.3 403.073 1879.07 404.863V420H1771.65V402.91C1773.76 400.794 1776.61 399.248 1780.19 398.271C1783.77 397.295 1787.84 395.911 1792.4 394.121C1804.77 389.401 1816.08 380.612 1826.33 367.754L1859.29 326.494L1875.89 349.199ZM1809.73 218.828C1801.27 207.272 1791.75 199.622 1781.17 195.879C1778.56 195.065 1776.2 193.844 1774.09 192.217V174.639H1911.78V191.24C1909.5 192.705 1907.06 193.926 1904.46 194.902C1902.02 195.716 1899.74 196.693 1897.62 197.832C1892.9 200.111 1890.54 202.633 1890.54 205.4C1890.54 208.167 1890.95 210.609 1891.76 212.725C1892.74 214.84 1894.12 217.201 1895.91 219.805C1897.7 222.897 1902.75 230.14 1911.05 241.533L2010.42 380.449C2017.9 391.191 2027.1 397.702 2038 399.98C2040.28 400.469 2042.32 401.445 2044.11 402.91V420H1903.97V404.375C1906.09 402.585 1908.37 400.957 1910.81 399.492C1913.41 397.865 1915.85 396.237 1918.13 394.609C1923.5 390.54 1926.19 386.227 1926.19 381.67C1926.19 381.182 1923.26 377.031 1917.4 369.219C1911.7 361.406 1908.12 356.442 1906.66 354.326L1809.73 218.828ZM1937.42 240.801L1952.8 221.27C1957.19 215.736 1959.39 211.423 1959.39 208.33C1959.39 205.238 1958.5 203.04 1956.71 201.738C1955.08 200.273 1953.12 199.134 1950.85 198.32C1948.57 197.507 1946.13 196.693 1943.52 195.879C1941.08 195.065 1939.13 193.844 1937.66 192.217V174.639H2037.27V192.217C2031.09 192.217 2023.19 195.146 2013.59 201.006C2003.99 206.702 1994.47 215.166 1985.03 226.396L1953.78 263.75L1937.42 240.801ZM2204.26 415.117C2193.52 420.814 2177.41 423.662 2155.92 423.662C2134.44 423.662 2118 417.559 2106.61 405.352C2095.21 393.145 2089.52 374.59 2089.52 349.688V217.119C2089.52 208.493 2085.61 202.633 2077.8 199.541C2074.54 198.239 2071.04 197.181 2067.3 196.367C2063.72 195.553 2060.55 194.007 2057.78 191.729V174.639H2162.03V356.279C2162.03 368.649 2163.98 378.089 2167.89 384.6C2171.96 391.11 2177.73 394.365 2185.22 394.365C2192.71 394.365 2199.06 392.656 2204.26 389.238V415.117ZM2226.24 217.119C2226.24 208.493 2222.33 202.633 2214.52 199.541C2211.26 198.239 2207.76 197.181 2204.02 196.367C2200.44 195.391 2197.1 193.844 2194.01 191.729V174.639H2298.5V378.008C2298.5 386.309 2302.41 392.005 2310.22 395.098C2313.48 396.4 2316.89 397.539 2320.47 398.516C2324.22 399.329 2327.47 400.794 2330.24 402.91V420H2226.24V217.119ZM2446.94 199.053C2431.97 203.122 2424.48 210.202 2424.48 220.293C2424.48 236.569 2438.72 250.16 2467.2 261.064C2489.66 269.691 2505.53 276.445 2514.81 281.328C2524.25 286.048 2532.14 291.257 2538.49 296.953C2552.65 309.974 2559.73 326.169 2559.73 345.537C2559.73 368.486 2551.02 386.878 2533.61 400.713C2516.68 414.059 2495.04 421.709 2468.67 423.662V394.365C2485.76 390.296 2494.3 380.856 2494.3 366.045C2494.3 350.745 2480.31 337.643 2452.31 326.738C2430.34 318.275 2414.71 311.683 2405.44 306.963C2396.32 302.243 2388.67 297.116 2382.49 291.582C2368.65 279.212 2361.73 263.994 2361.73 245.928C2361.73 226.396 2370.04 209.062 2386.64 193.926C2403.4 178.789 2423.5 170.732 2446.94 169.756V199.053ZM2513.83 204.18C2510.25 202.715 2495.2 201.006 2468.67 199.053V169.756C2496.99 170.895 2519.12 177.65 2535.07 190.02C2548.42 200.436 2555.09 211.992 2555.09 224.688C2555.09 240.475 2549.07 250.892 2537.03 255.938C2532.8 257.565 2526.94 258.379 2519.45 258.379C2511.96 258.379 2505.78 256.019 2500.89 251.299C2496.17 246.416 2493.81 240.475 2493.81 233.477C2493.81 221.595 2500.49 211.829 2513.83 204.18ZM2404.95 387.529C2409.18 391.273 2423.18 393.551 2446.94 394.365V423.662C2419.92 421.546 2398.68 414.385 2383.22 402.178C2370.2 391.761 2363.69 379.88 2363.69 366.533C2363.69 357.744 2366.13 350.583 2371.01 345.049C2375.89 339.352 2383.3 336.504 2393.23 336.504C2403.16 336.504 2410.48 338.701 2415.2 343.096C2420.08 347.49 2422.53 353.187 2422.53 360.186C2422.53 372.393 2416.67 381.507 2404.95 387.529Z" fill="white"/>
</svg>
